<?xml version="1.0" encoding="UTF-8"?>
<svg width="18px" height="18px" viewBox="0 0 18 18" version="1.1" xmlns="http://www.w3.org/2000/svg" xmlns:xlink="http://www.w3.org/1999/xlink">
    <!-- Generator: Sketch 51.3 (57544) - http://www.bohemiancoding.com/sketch -->
    <title>Arrow-right-circle - simple-line-icons</title>
    <desc>Created with Sketch.</desc>
    <defs></defs>
    <g id="Page-1" stroke="none" stroke-width="1" fill="none" fill-rule="evenodd">
        <g id="여행코스_좌측메뉴바" transform="translate(-160.000000, -101.000000)" fill="#1D1D1B">
            <g id="좌측뒤로가기">
                <path d="M169.15,101.366833 C170.323183,101.366833 171.427176,101.588185 172.462012,102.030896 C173.496848,102.473606 174.398857,103.079557 175.168066,103.848767 C175.937276,104.617977 176.543227,105.519986 176.985938,106.554822 C177.428648,107.589658 177.65,108.69365 177.65,109.866833 C177.65,111.040016 177.428648,112.144009 176.985938,113.178845 C176.543227,114.213681 175.937276,115.11569 175.168066,115.8849 C174.398857,116.654109 173.496848,117.26006 172.462012,117.702771 C171.427176,118.145481 170.323183,118.366833 169.15,118.366833 C167.976817,118.366833 166.872824,118.145481 165.837988,117.702771 C164.803152,117.26006 163.901143,116.654109 163.131934,115.8849 C162.362724,115.11569 161.756773,114.213681 161.314063,113.178845 C160.871352,112.144009 160.65,111.040016 160.65,109.866833 C160.65,108.69365 160.871352,107.589658 161.314063,106.554822 C161.756773,105.519986 162.362724,104.617977 163.131934,103.848767 C163.901143,103.079557 164.803152,102.473606 165.837988,102.030896 C166.872824,101.588185 167.976817,101.366833 169.15,101.366833 Z M169.15,117.320935 C170.179302,117.320935 171.14495,117.124485 172.046973,116.731579 C172.948995,116.338674 173.734795,115.804662 174.404395,115.129529 C175.073994,114.454395 175.605239,113.665829 175.998145,112.763806 C176.39105,111.861783 176.5875,110.896135 176.5875,109.866833 C176.5875,108.837531 176.39105,107.871883 175.998145,106.969861 C175.605239,106.067838 175.073994,105.282039 174.404395,104.612439 C173.734795,103.942839 172.948995,103.411594 172.046973,103.018689 C171.14495,102.625783 170.179302,102.429333 169.15,102.429333 C168.120698,102.429333 167.15505,102.625783 166.253027,103.018689 C165.351005,103.411594 164.565205,103.942839 163.895605,104.612439 C163.226006,105.282039 162.694761,106.067838 162.301855,106.969861 C161.90895,107.871883 161.7125,108.837531 161.7125,109.866833 C161.7125,110.896135 161.90895,111.861783 162.301855,112.763806 C162.694761,113.665829 163.226006,114.454395 163.895605,115.129529 C164.565205,115.804662 165.351005,116.338674 166.253027,116.731579 C167.15505,117.124485 168.120698,117.320935 169.15,117.320935 Z M169.482031,106.662732 C169.592709,106.552054 169.719986,106.496716 169.863867,106.496716 C170.007748,106.496716 170.135025,106.552054 170.245703,106.662732 L173.383398,109.883435 L170.245703,113.104138 C170.190364,113.148409 170.129493,113.184379 170.063086,113.212048 C169.996679,113.239718 169.930274,113.253552 169.863867,113.253552 C169.797461,113.253552 169.731055,113.239718 169.664648,113.212048 C169.598242,113.184379 169.53737,113.148409 169.482031,113.104138 C169.382421,112.99346 169.332617,112.866183 169.332617,112.722302 C169.332617,112.578421 169.382421,112.451144 169.482031,112.340466 L171.441016,110.398083 L165.43125,110.398083 C165.276301,110.398083 165.149024,110.345512 165.049414,110.240369 C164.949804,110.135225 164.9,110.010714 164.9,109.866833 C164.9,109.711885 164.949804,109.584607 165.049414,109.484997 C165.149024,109.385388 165.276301,109.335583 165.43125,109.335583 L171.407813,109.335583 L169.482031,107.409802 C169.382421,107.310192 169.332617,107.185682 169.332617,107.036267 C169.332617,106.886852 169.382421,106.762342 169.482031,106.662732 Z" id="Arrow-right-circle---simple-line-icons"></path>
            </g>
        </g>
    </g>
</svg>