<?xml version="1.0" encoding="UTF-8"?>
<svg width="33px" height="42px" viewBox="0 0 33 42" version="1.1" xmlns="http://www.w3.org/2000/svg" xmlns:xlink="http://www.w3.org/1999/xlink">
    <!-- Generator: Sketch 51.3 (57544) - http://www.bohemiancoding.com/sketch -->
    <title>힘들어캐릭터</title>
    <desc>Created with Sketch.</desc>
    <defs></defs>
    <g id="Page-1" stroke="none" stroke-width="1" fill="none" fill-rule="evenodd">
        <g id="여행코스_1" transform="translate(-217.000000, -118.000000)">
            <g id="힘들어캐릭터" transform="translate(217.000000, 118.050781)">
                <g transform="translate(0.844838, 0.295550)">
                    <path d="M16.2151151,37.7589457 L15.0746385,37.7589457 C7.35153332,37.7589457 1.09026422,31.4976766 1.09026422,23.7736982 L1.09026422,17.2949875 C1.09026422,9.57100913 7.35153332,3.30974003 15.0746385,3.30974003 L16.2151151,3.30974003 C23.9390935,3.30974003 30.2003626,9.57100913 30.2003626,17.2949875 L30.2003626,23.7736982 C30.2003626,31.4976766 23.9390935,37.7589457 16.2151151,37.7589457" id="Fill-1" fill="#F6D9BE"></path>
                    <path d="M16.2151151,37.7589457 L15.0746385,37.7589457 C7.35153332,37.7589457 1.09026422,31.4976766 1.09026422,23.7736982 L1.09026422,17.2949875 C1.09026422,9.57100913 7.35153332,3.30974003 15.0746385,3.30974003 L16.2151151,3.30974003 C23.9390935,3.30974003 30.2003626,9.57100913 30.2003626,17.2949875 L30.2003626,23.7736982 C30.2003626,31.4976766 23.9390935,37.7589457 16.2151151,37.7589457 Z" id="Stroke-3" stroke="#1D1D1B" stroke-width="0.942" stroke-linecap="round" stroke-linejoin="round"></path>
                    <path d="M9.73771433,17.0374634 C9.73771433,17.0374634 9.37967802,20.3663278 5.58973271,20.7907318" id="Stroke-5" stroke="#1D1D1B" stroke-width="1.068" stroke-linecap="round"></path>
                    <path d="M20.9644231,17.0374634 C20.9644231,17.0374634 21.3224594,20.3663278 25.1124047,20.7907318" id="Stroke-7" stroke="#1D1D1B" stroke-width="1.068" stroke-linecap="round"></path>
                    <path d="M11.1248867,31.8299518 C11.1248867,31.8299518 11.2637349,29.5262938 12.3666614,28.0059493 C13.028592,27.0942666 14.4127079,26.6401718 15.2719951,26.6401718 C16.130409,26.6401718 17.427199,26.9947151 18.0891295,27.9063978 C19.192056,29.4267422 19.4182302,31.8299518 19.4182302,31.8299518 L16.7067601,31.4003082 C15.7522877,31.2492343 14.7794768,31.2501076 13.8250044,31.4011815 L11.1248867,31.8299518 Z" id="Fill-9" fill="#B41E18"></path>
                    <path d="M11.1248867,31.8299518 C11.1248867,31.8299518 11.2637349,29.5262938 12.3666614,28.0059493 C13.028592,27.0942666 14.4127079,26.6401718 15.2719951,26.6401718 C16.130409,26.6401718 17.427199,26.9947151 18.0891295,27.9063978 C19.192056,29.4267422 19.4182302,31.8299518 19.4182302,31.8299518 L16.7067601,31.4003082 C15.7522877,31.2492343 14.7794768,31.2501076 13.8250044,31.4011815 L11.1248867,31.8299518 Z" id="Stroke-11" stroke="#1D1D1B" stroke-width="0.484" stroke-linecap="round" stroke-linejoin="round"></path>
                    <path d="M18.1829176,28.9229589 C17.3227572,29.3412501 14.9841688,30.2127629 12.3705038,28.9247054 C12.1600483,28.8207876 12.0901875,28.5518237 12.2176834,28.3553404 C12.5853255,27.7885951 13.4830361,26.7729946 15.2566257,26.6411324 C15.2662316,26.6402591 15.2740909,26.6402591 15.2836967,26.6393859 C15.4557288,26.6341463 17.3908714,26.6131881 18.3558229,28.3649462 C18.4667269,28.5666691 18.38988,28.8225341 18.1829176,28.9229589" id="Fill-13" fill="#E94F51"></path>
                    <path d="M18.1829176,28.9229589 C17.3227572,29.3412501 14.9841688,30.2127629 12.3705038,28.9247054 C12.1600483,28.8207876 12.0901875,28.5518237 12.2176834,28.3553404 C12.5853255,27.7885951 13.4830361,26.7729946 15.2566257,26.6411324 C15.2662316,26.6402591 15.2740909,26.6402591 15.2836967,26.6393859 C15.4557288,26.6341463 17.3908714,26.6131881 18.3558229,28.3649462 C18.4667269,28.5666691 18.38988,28.8225341 18.1829176,28.9229589 Z" id="Stroke-15" stroke="#1D1D1B" stroke-width="0.534" stroke-linecap="round" stroke-linejoin="round"></path>
                    <path d="M12.9439731,12.953579 C12.9439731,12.953579 15.5096089,11.6419435 18.3459551,12.953579" id="Stroke-17" stroke="#AA9281" stroke-width="0.534" stroke-linecap="round" stroke-linejoin="round"></path>
                    <path d="M13.9923209,14.2809331 C13.9923209,14.2809331 15.5624411,13.8425569 17.2976073,14.2809331" id="Stroke-19" stroke="#AA9281" stroke-width="0.534" stroke-linecap="round" stroke-linejoin="round"></path>
                    <path d="M11.8868054,27.0409105 C11.5907705,26.9465985 11.2606785,27.0671083 11.0257718,27.2705777 C10.7917383,27.4740471 10.6336784,27.749997 10.480858,28.0198342 C9.68706529,29.4205421 8.8653283,30.9583517 9.09761527,32.5511766" id="Stroke-21" stroke="#AA9281" stroke-width="0.534" stroke-linecap="round" stroke-linejoin="round"></path>
                    <path d="M19.7647395,26.7766622 C21.1392496,28.2646961 21.9985367,30.2207969 22.164456,32.2406456" id="Stroke-23" stroke="#AA9281" stroke-width="0.534" stroke-linecap="round" stroke-linejoin="round"></path>
                    <polygon id="Fill-25" fill="#A32F2F" points="20.9202361 38.1768876 20.9202361 40.8595401 18.5973664 39.5182139 16.2736235 38.1768876 18.5973664 36.8355613 20.9202361 35.4942351"></polygon>
                    <polygon id="Stroke-27" stroke="#1D1D1B" stroke-width="1.068" stroke-linecap="round" stroke-linejoin="round" points="20.9202361 38.1768876 20.9202361 40.8595401 18.5973664 39.5182139 16.2736235 38.1768876 18.5973664 36.8355613 20.9202361 35.4942351"></polygon>
                    <polygon id="Fill-29" fill="#A32F2F" points="10.984292 38.1768876 10.984292 35.4942351 13.3071617 36.8355613 15.6309046 38.1768876 13.3071617 39.5182139 10.984292 40.8595401"></polygon>
                    <polygon id="Stroke-31" stroke="#1D1D1B" stroke-width="1.068" stroke-linecap="round" stroke-linejoin="round" points="10.984292 38.1768876 10.984292 35.4942351 13.3071617 36.8355613 15.6309046 38.1768876 13.3071617 39.5182139 10.984292 40.8595401"></polygon>
                    <path d="M19.9287376,6.82469599 C19.9287376,6.82469599 28.033457,6.35837553 30.2000133,17.8993703 C30.2000133,17.8993703 34.1410325,9.00522444 24.6853809,3.30982736 L19.9287376,6.82469599 Z" id="Fill-33" fill="#777677"></path>
                    <path d="M19.9287376,6.82469599 C19.9287376,6.82469599 28.033457,6.35837553 30.2000133,17.8993703 C30.2000133,17.8993703 34.1410325,9.00522444 24.6853809,3.30982736 L19.9287376,6.82469599 Z" id="Stroke-35" stroke="#1D1D1B" stroke-width="1.068"></path>
                    <path d="M1.09008957,18.5633967 C1.09008957,18.5633967 2.54231977,6.79972078 17.5082375,7.996086 C19.0670053,8.12096208 20.6467313,7.96290215 22.1216663,7.44505939 C24.4908187,6.61197003 27.1271885,4.72834974 26.798843,0.465971156 C26.798843,0.465971156 23.41409,2.62816116 19.7647395,1.7348169 C19.7647395,1.7348169 -3.60717214,-1.17400979 1.09008957,18.5633967" id="Fill-37" fill="#777677"></path>
                    <path d="M1.09008957,18.5633967 C1.09008957,18.5633967 2.54231977,6.79972078 17.5082375,7.996086 C19.0670053,8.12096208 20.6467313,7.96290215 22.1216663,7.44505939 C24.4908187,6.61197003 27.1271885,4.72834974 26.798843,0.465971156 C26.798843,0.465971156 23.41409,2.62816116 19.7647395,1.7348169 C19.7647395,1.7348169 -3.60717214,-1.17400979 1.09008957,18.5633967 Z" id="Stroke-39" stroke="#1D1D1B" stroke-width="1.068" stroke-linejoin="round"></path>
                    <path d="M15.3952993,26.1939363 C15.3402839,25.7695323 14.8975415,25.4228484 14.3273032,25.3363957 C13.7046693,25.2420837 12.8401426,25.1861951 12.1886912,25.4342007 C12.1886912,25.4342007 11.373067,25.6132189 10.1915472,26.5528459 C10.1915472,26.5528459 8.13240178,28.0609647 6.50028017,27.7474646 C6.50028017,27.7474646 10.1513773,29.8624986 14.0766778,27.9797516 C14.0766778,27.9797516 15.5437534,27.3483851 15.3952993,26.1939363" id="Fill-41" fill="#777677"></path>
                    <path d="M15.3952993,26.1939363 C15.3402839,25.7695323 14.8975415,25.4228484 14.3273032,25.3363957 C13.7046693,25.2420837 12.8401426,25.1861951 12.1886912,25.4342007 C12.1886912,25.4342007 11.373067,25.6132189 10.1915472,26.5528459 C10.1915472,26.5528459 8.13240178,28.0609647 6.50028017,27.7474646 C6.50028017,27.7474646 10.1513773,29.8624986 14.0766778,27.9797516 C14.0766778,27.9797516 15.5437534,27.3483851 15.3952993,26.1939363 Z" id="Stroke-43" stroke="#1D1D1B" stroke-width="0.534" stroke-linejoin="round"></path>
                    <path d="M15.2764487,26.1939363 C15.331464,25.7695323 15.7742065,25.4228484 16.3444448,25.3363957 C16.9670787,25.2420837 17.8316054,25.1861951 18.4830568,25.4342007 C18.4830568,25.4342007 19.298681,25.6132189 20.4802008,26.5528459 C20.4802008,26.5528459 22.5393462,28.0609647 24.1714678,27.7474646 C24.1714678,27.7474646 20.5203707,29.8624986 16.5950702,27.9797516 C16.5950702,27.9797516 15.1279946,27.3483851 15.2764487,26.1939363" id="Fill-45" fill="#777677"></path>
                    <path d="M15.2764487,26.1939363 C15.331464,25.7695323 15.7742065,25.4228484 16.3444448,25.3363957 C16.9670787,25.2420837 17.8316054,25.1861951 18.4830568,25.4342007 C18.4830568,25.4342007 19.298681,25.6132189 20.4802008,26.5528459 C20.4802008,26.5528459 22.5393462,28.0609647 24.1714678,27.7474646 C24.1714678,27.7474646 20.5203707,29.8624986 16.5950702,27.9797516 C16.5950702,27.9797516 15.1279946,27.3483851 15.2764487,26.1939363 Z" id="Stroke-47" stroke="#1D1D1B" stroke-width="0.534" stroke-linejoin="round"></path>
                    <path d="M14.1478484,20.8647842 C14.1478484,20.8647842 15.4638501,19.5164718 16.8043031,20.8647842" id="Stroke-49" stroke="#1D1D1B" stroke-width="1.068" stroke-linecap="round"></path>
                    <path d="M28.75311,19.5964624 C28.75311,22.9331861 26.0477527,25.6385434 22.711029,25.6385434 C19.3743052,25.6385434 16.6698212,22.9331861 16.6698212,19.5964624 C16.6698212,16.2597387 19.3743052,13.5543814 22.711029,13.5543814 C26.0477527,13.5543814 28.75311,16.2597387 28.75311,19.5964624 Z" id="Stroke-51" stroke="#1D1D1B" stroke-width="1.068"></path>
                    <path d="M14.282243,19.5964624 C14.282243,22.9331861 11.5768857,25.6385434 8.24016197,25.6385434 C4.90343823,25.6385434 2.19895421,22.9331861 2.19895421,19.5964624 C2.19895421,16.2597387 4.90343823,13.5543814 8.24016197,13.5543814 C11.5768857,13.5543814 14.282243,16.2597387 14.282243,19.5964624 Z" id="Stroke-53" stroke="#1D1D1B" stroke-width="1.068"></path>
                    <path d="M18.9031818,21.6591882 C18.9031818,21.6591882 18.7975175,24.0047626 20.3589051,24.4047154 C20.3589051,24.4047154 21.7264291,25.0596598 22.3595421,21.6591882 C22.3595421,21.6591882 20.6497004,23.5707527 18.9031818,21.6591882" id="Fill-55" fill="#CDB4A1"></path>
                    <path d="M8.83196979,21.6591882 C8.83196979,21.6591882 8.72630542,24.0047626 10.287693,24.4047154 C10.287693,24.4047154 11.6552171,25.0596598 12.2883301,21.6591882 C12.2883301,21.6591882 10.5784884,23.5707527 8.83196979,21.6591882" id="Fill-57" fill="#CDB4A1"></path>
                    <path d="M21.9176729,21.6591882 C20.3527923,23.2965493 19.345051,21.6591882 19.345051,21.6591882" id="Stroke-59" stroke="#1D1D1B" stroke-linecap="round"></path>
                    <path d="M9.25943022,21.6591882 C9.25943022,21.6591882 10.2671714,23.2965493 11.8320521,21.6591882" id="Stroke-61" stroke="#1D1D1B" stroke-linecap="round"></path>
                    <path d="M26.826962,15.3104185 C26.826962,16.5181361 26.4077975,17.0377254 25.8917013,17.0377254 C25.3747318,17.0377254 24.9555673,16.5181361 24.9555673,15.3104185 C24.9555673,14.1027009 25.8917013,12.3710277 25.8917013,12.3710277 C25.8917013,12.3710277 26.826962,14.1027009 26.826962,15.3104185" id="Fill-63" fill="#FCFCFC"></path>
                    <path d="M26.826962,15.3104185 C26.826962,16.5181361 26.4077975,17.0377254 25.8917013,17.0377254 C25.3747318,17.0377254 24.9555673,16.5181361 24.9555673,15.3104185 C24.9555673,14.1027009 25.8917013,12.3710277 25.8917013,12.3710277 C25.8917013,12.3710277 26.826962,14.1027009 26.826962,15.3104185 Z" id="Stroke-65" stroke="#1D1D1B" stroke-width="0.718" stroke-linecap="round" stroke-linejoin="round"></path>
                    <path d="M27.6925366,19.038537 C27.6925366,19.8008924 27.427939,20.1571822 27.1022133,20.1571822 C26.7756143,20.1571822 26.51189,19.8008924 26.51189,19.038537 C26.51189,18.2761817 27.1022133,17.182861 27.1022133,17.182861 C27.1022133,17.182861 27.6925366,18.2761817 27.6925366,19.038537" id="Fill-67" fill="#FCFCFC"></path>
                    <path d="M27.6925366,19.038537 C27.6925366,19.8008924 27.427939,20.1571822 27.1022133,20.1571822 C26.7756143,20.1571822 26.51189,19.8008924 26.51189,19.038537 C26.51189,18.2761817 27.1022133,17.182861 27.1022133,17.182861 C27.1022133,17.182861 27.6925366,18.2761817 27.6925366,19.038537 Z" id="Stroke-69" stroke="#1D1D1B" stroke-width="0.453" stroke-linecap="round" stroke-linejoin="round"></path>
                </g>
            </g>
        </g>
    </g>
</svg>