<?xml version="1.0" encoding="UTF-8"?>
<svg width="40px" height="51px" viewBox="0 0 40 51" version="1.1" xmlns="http://www.w3.org/2000/svg" xmlns:xlink="http://www.w3.org/1999/xlink">
    <!-- Generator: Sketch 51.3 (57544) - http://www.bohemiancoding.com/sketch -->
    <title>할배</title>
    <desc>Created with Sketch.</desc>
    <defs></defs>
    <g id="Page-2" stroke="none" stroke-width="1" fill="none" fill-rule="evenodd">
        <g id="s1" transform="translate(-181.000000, -476.000000)">
            <g id="할배" transform="translate(180.360352, 475.412500)">
                <g id="밝음얼굴캐릭터-copy" transform="translate(0.841543, 0.042422)">
                    <g id="밝음얼굴캐릭터" transform="translate(0.619425, 0.672876)">
                        <path d="M19.7989248,46.1042998 L18.4063839,46.1042998 C8.97634428,46.1042998 1.33123072,38.4591863 1.33123072,29.0280803 L1.33123072,21.117467 C1.33123072,11.6863611 8.97634428,4.04124755 18.4063839,4.04124755 L19.7989248,4.04124755 C29.2300308,4.04124755 36.8751443,11.6863611 36.8751443,21.117467 L36.8751443,29.0280803 C36.8751443,38.4591863 29.2300308,46.1042998 19.7989248,46.1042998" id="Fill-1" fill="#FFFFFF"></path>
                        <path d="M19.7989248,46.1042998 L18.4063839,46.1042998 C8.97634428,46.1042998 1.33123072,38.4591863 1.33123072,29.0280803 L1.33123072,21.117467 C1.33123072,11.6863611 8.97634428,4.04124755 18.4063839,4.04124755 L19.7989248,4.04124755 C29.2300308,4.04124755 36.8751443,11.6863611 36.8751443,21.117467 L36.8751443,29.0280803 C36.8751443,38.4591863 29.2300308,46.1042998 19.7989248,46.1042998 Z" id="Stroke-3" stroke="#FFFFFF" stroke-width="1.13982" stroke-linecap="round" stroke-linejoin="round"></path>
                        <path d="M35.1080248,23.927606 C35.1080248,28.0018011 31.8047387,31.3050873 27.7305436,31.3050873 C23.6563485,31.3050873 20.3541286,28.0018011 20.3541286,23.927606 C20.3541286,19.8534109 23.6563485,16.5501248 27.7305436,16.5501248 C31.8047387,16.5501248 35.1080248,19.8534109 35.1080248,23.927606 Z" id="Stroke-5" stroke="#FFFFFF" stroke-width="1.29228"></path>
                        <path d="M17.4388559,23.927606 C17.4388559,28.0018011 14.1355697,31.3050873 10.0613746,31.3050873 C5.98717952,31.3050873 2.68495962,28.0018011 2.68495962,23.927606 C2.68495962,19.8534109 5.98717952,16.5501248 10.0613746,16.5501248 C14.1355697,16.5501248 17.4388559,19.8534109 17.4388559,23.927606 Z" id="Stroke-7" stroke="#FFFFFF" stroke-width="1.29228"></path>
                        <path d="M14.5686862,26.4462285 C14.5686862,27.5999262 13.7935122,28.5350398 12.8370733,28.5350398 C11.8806344,28.5350398 11.1065267,27.5999262 11.1065267,26.4462285 C11.1065267,25.2925307 11.8806344,24.3574171 12.8370733,24.3574171 C13.7935122,24.3574171 14.5686862,25.2925307 14.5686862,26.4462285" id="Fill-9" fill="#FFFFFF"></path>
                        <path d="M26.8454377,26.4462285 C26.8454377,27.5999262 26.0702637,28.5350398 25.1138248,28.5350398 C24.157386,28.5350398 23.3832782,27.5999262 23.3832782,26.4462285 C23.3832782,25.2925307 24.157386,24.3574171 25.1138248,24.3574171 C26.0702637,24.3574171 26.8454377,25.2925307 26.8454377,26.4462285" id="Fill-11" fill="#FFFFFF"></path>
                        <path d="M12.8763118,20.8472757 C12.8763118,20.8472757 7.18246157,18.1901456 6.32838403,26.4462285" id="Stroke-13" stroke="#FFFFFF" stroke-width="1.29228" stroke-linecap="round"></path>
                        <path d="M25.1914489,21.2104453 C25.1914489,21.2104453 30.8852991,18.5533151 31.7393767,26.809398" id="Stroke-15" stroke="#FFFFFF" stroke-width="1.29228" stroke-linecap="round"></path>
                        <path d="M23.7101948,32.5267061 C23.7101948,32.5267061 23.5406588,35.3395108 22.1939673,37.1958766 C21.3857391,38.3090563 19.6957105,38.8635136 18.6465066,38.8635136 C17.598369,38.8635136 16.0149668,38.4306104 15.2067386,37.3174307 C13.8600471,35.4610649 13.5838847,32.5267061 13.5838847,32.5267061 L18.6465066,32.5267061 L23.7101948,32.5267061 Z" id="Fill-17" fill="#FFFFFF"></path>
                        <path d="M23.7101948,32.5267061 C23.7101948,32.5267061 23.5406588,35.3395108 22.1939673,37.1958766 C21.3857391,38.3090563 19.6957105,38.8635136 18.6465066,38.8635136 C17.598369,38.8635136 16.0149668,38.4306104 15.2067386,37.3174307 C13.8600471,35.4610649 13.5838847,32.5267061 13.5838847,32.5267061 L18.6465066,32.5267061 L23.7101948,32.5267061 Z" id="Stroke-19" stroke="#FFFFFF" stroke-width="0.58564" stroke-linecap="round" stroke-linejoin="round"></path>
                        <path d="M15.0922219,36.0761926 C16.142492,35.5654521 18.9979473,34.5013206 22.1892757,36.0740601 C22.4462453,36.2009455 22.5315465,36.5293549 22.3758719,36.7692643 C21.9269747,37.4612697 20.8308552,38.7013348 18.6652729,38.8623407 C18.653544,38.863407 18.6439476,38.863407 18.6322187,38.8644732 C18.4221646,38.8708708 16.0593234,38.8964612 14.8811016,36.7575354 C14.745686,36.5112284 14.8395173,36.198813 15.0922219,36.0761926" id="Fill-21" fill="#FFFFFF"></path>
                        <path d="M15.0922219,36.0761926 C16.142492,35.5654521 18.9979473,34.5013206 22.1892757,36.0740601 C22.4462453,36.2009455 22.5315465,36.5293549 22.3758719,36.7692643 C21.9269747,37.4612697 20.8308552,38.7013348 18.6652729,38.8623407 C18.653544,38.863407 18.6439476,38.863407 18.6322187,38.8644732 C18.4221646,38.8708708 16.0593234,38.8964612 14.8811016,36.7575354 C14.745686,36.5112284 14.8395173,36.198813 15.0922219,36.0761926 Z" id="Stroke-23" stroke="#FFFFFF" stroke-width="0.64614" stroke-linecap="round" stroke-linejoin="round"></path>
                        <path d="M15.8048062,15.8165351 C15.8048062,15.8165351 18.9374901,14.2150064 22.4007159,15.8165351" id="Stroke-25" stroke="#FFFFFF" stroke-width="0.64614" stroke-linecap="round" stroke-linejoin="round"></path>
                        <path d="M17.0848562,17.4372565 C17.0848562,17.4372565 19.0019991,16.9019919 21.1206658,17.4372565" id="Stroke-27" stroke="#FFFFFF" stroke-width="0.64614" stroke-linecap="round" stroke-linejoin="round"></path>
                        <path d="M14.5139869,33.0174008 C14.1525233,32.9022443 13.7494755,33.0493887 13.4626505,33.2978283 C13.1768917,33.5462678 12.9838979,33.8832073 12.7973017,34.2126829 C11.8280676,35.9229705 10.8247131,37.8006616 11.1083393,39.7455273" id="Stroke-29" stroke="#FFFFFF" stroke-width="0.64614" stroke-linecap="round" stroke-linejoin="round"></path>
                        <path d="M24.1330751,32.6947493 C25.8113748,34.5116633 26.8605787,36.9000949 27.0631689,39.3663637" id="Stroke-31" stroke="#FFFFFF" stroke-width="0.64614" stroke-linecap="round" stroke-linejoin="round"></path>
                        <polygon id="Fill-33" fill="#FFFFFF" points="25.5439558 46.6146138 25.5439558 49.8901771 22.7076933 48.2523955 19.8703645 46.6146138 22.7076933 44.9768322 25.5439558 43.3390505"></polygon>
                        <polygon id="Stroke-35" stroke="#FFFFFF" stroke-width="1.29228" stroke-linecap="round" stroke-linejoin="round" points="25.5439558 46.6146138 25.5439558 49.8901771 22.7076933 48.2523955 19.8703645 46.6146138 22.7076933 44.9768322 25.5439558 43.3390505"></polygon>
                        <polygon id="Fill-37" fill="#FFFFFF" points="13.4120029 46.6146138 13.4120029 43.3390505 16.2482654 44.9768322 19.0855942 46.6146138 16.2482654 48.2523955 13.4120029 49.8901771"></polygon>
                        <polygon id="Stroke-39" stroke="#FFFFFF" stroke-width="1.29228" stroke-linecap="round" stroke-linejoin="round" points="13.4120029 46.6146138 13.4120029 43.3390505 16.2482654 44.9768322 19.0855942 46.6146138 16.2482654 48.2523955 13.4120029 49.8901771"></polygon>
                        <path d="M24.3333195,8.33306715 C24.3333195,8.33306715 34.2293166,7.76368213 36.8747178,21.8554284 C36.8747178,21.8554284 41.6867677,10.9955286 30.1412601,4.04135417 L24.3333195,8.33306715 Z" id="Fill-41" fill="#FFFFFF"></path>
                        <path d="M24.3333195,8.33306715 C24.3333195,8.33306715 34.2293166,7.76368213 36.8747178,21.8554284 C36.8747178,21.8554284 41.6867677,10.9955286 30.1412601,4.04135417 L24.3333195,8.33306715 Z" id="Stroke-43" stroke="#FFFFFF" stroke-width="1.29228"></path>
                        <path d="M1.33101747,22.6662156 C1.33101747,22.6662156 3.10421466,8.302572 21.3778487,9.76335381 C23.2811301,9.91582957 25.2100019,9.72283577 27.0109219,9.09054117 C29.9036964,8.07332522 33.1227477,5.77339357 32.7218324,0.568958521 C32.7218324,0.568958521 28.5889928,3.20902842 24.1330751,2.11824025 C24.1330751,2.11824025 -4.4044171,-1.43348545 1.33101747,22.6662156" id="Fill-45" fill="#FFFFFF"></path>
                        <path d="M1.33101747,22.6662156 C1.33101747,22.6662156 3.10421466,8.302572 21.3778487,9.76335381 C23.2811301,9.91582957 25.2100019,9.72283577 27.0109219,9.09054117 C29.9036964,8.07332522 33.1227477,5.77339357 32.7218324,0.568958521 C32.7218324,0.568958521 28.5889928,3.20902842 24.1330751,2.11824025 C24.1330751,2.11824025 -4.4044171,-1.43348545 1.33101747,22.6662156 Z" id="Stroke-47" stroke="#FFFFFF" stroke-width="1.29228" stroke-linejoin="round"></path>
                        <path d="M18.7979161,31.9832313 C18.7307415,31.4650269 18.1901456,31.0417201 17.4938751,30.9361599 C16.7336288,30.8210034 15.6780274,30.7527625 14.8825944,31.0555815 C14.8825944,31.0555815 13.8867037,31.2741657 12.4440484,32.4214658 C12.4440484,32.4214658 9.92979763,34.2629039 7.93695004,33.8801151 C7.93695004,33.8801151 12.3950002,36.4626067 17.1878573,34.1637414 C17.1878573,34.1637414 18.979181,33.3928324 18.7979161,31.9832313" id="Fill-49" fill="#FFFFFF"></path>
                        <path d="M18.7979161,31.9832313 C18.7307415,31.4650269 18.1901456,31.0417201 17.4938751,30.9361599 C16.7336288,30.8210034 15.6780274,30.7527625 14.8825944,31.0555815 C14.8825944,31.0555815 13.8867037,31.2741657 12.4440484,32.4214658 C12.4440484,32.4214658 9.92979763,34.2629039 7.93695004,33.8801151 C7.93695004,33.8801151 12.3950002,36.4626067 17.1878573,34.1637414 C17.1878573,34.1637414 18.979181,33.3928324 18.7979161,31.9832313 Z" id="Stroke-51" stroke="#FFFFFF" stroke-width="0.64614" stroke-linejoin="round"></path>
                        <path d="M18.6527976,31.9832313 C18.7199722,31.4650269 19.2605681,31.0417201 19.9568386,30.9361599 C20.7170849,30.8210034 21.7726863,30.7527625 22.5681193,31.0555815 C22.5681193,31.0555815 23.56401,31.2741657 25.0066653,32.4214658 C25.0066653,32.4214658 27.520916,34.2629039 29.5137636,33.8801151 C29.5137636,33.8801151 25.0557135,36.4626067 20.2628563,34.1637414 C20.2628563,34.1637414 18.4715327,33.3928324 18.6527976,31.9832313" id="Fill-53" fill="#FFFFFF"></path>
                        <path d="M18.6527976,31.9832313 C18.7199722,31.4650269 19.2605681,31.0417201 19.9568386,30.9361599 C20.7170849,30.8210034 21.7726863,30.7527625 22.5681193,31.0555815 C22.5681193,31.0555815 23.56401,31.2741657 25.0066653,32.4214658 C25.0066653,32.4214658 27.520916,34.2629039 29.5137636,33.8801151 C29.5137636,33.8801151 25.0557135,36.4626067 20.2628563,34.1637414 C20.2628563,34.1637414 18.4715327,33.3928324 18.6527976,31.9832313 Z" id="Stroke-55" stroke="#FFFFFF" stroke-width="0.64614" stroke-linejoin="round"></path>
                        <path d="M17.2747579,25.476248 C17.2747579,25.476248 18.8816178,23.8299363 20.5183332,25.476248" id="Stroke-57" stroke="#FFFFFF" stroke-width="1.29228" stroke-linecap="round"></path>
                    </g>
                </g>
                <g id="밝음얼굴캐릭터" transform="translate(2.656543, 2.407422)">
                    <g transform="translate(0.563114, 0.611706)">
                        <path d="M17.9990226,41.9129998 L16.7330763,41.9129998 C8.16031298,41.9129998 1.21020975,34.9628966 1.21020975,26.3891639 L1.21020975,19.1976973 C1.21020975,10.6239646 8.16031298,3.6738614 16.7330763,3.6738614 L17.9990226,3.6738614 C26.5727552,3.6738614 33.5228585,10.6239646 33.5228585,19.1976973 L33.5228585,26.3891639 C33.5228585,34.9628966 26.5727552,41.9129998 17.9990226,41.9129998" id="Fill-1" fill="#F6D9BE"></path>
                        <path d="M17.9990226,41.9129998 L16.7330763,41.9129998 C8.16031298,41.9129998 1.21020975,34.9628966 1.21020975,26.3891639 L1.21020975,19.1976973 C1.21020975,10.6239646 8.16031298,3.6738614 16.7330763,3.6738614 L17.9990226,3.6738614 C26.5727552,3.6738614 33.5228585,10.6239646 33.5228585,19.1976973 L33.5228585,26.3891639 C33.5228585,34.9628966 26.5727552,41.9129998 17.9990226,41.9129998 Z" id="Stroke-3" stroke="#1D1D1B" stroke-width="1.0362" stroke-linecap="round" stroke-linejoin="round"></path>
                        <path d="M31.9163862,21.7523691 C31.9163862,25.4561829 28.9133988,28.4591703 25.2095851,28.4591703 C21.5057713,28.4591703 18.5037532,25.4561829 18.5037532,21.7523691 C18.5037532,18.0485554 21.5057713,15.045568 25.2095851,15.045568 C28.9133988,15.045568 31.9163862,18.0485554 31.9163862,21.7523691 Z" id="Stroke-5" stroke="#1D1D1B" stroke-width="1.1748"></path>
                        <path d="M15.8535054,21.7523691 C15.8535054,25.4561829 12.8505179,28.4591703 9.1467042,28.4591703 C5.44289047,28.4591703 2.44087238,25.4561829 2.44087238,21.7523691 C2.44087238,18.0485554 5.44289047,15.045568 9.1467042,15.045568 C12.8505179,15.045568 15.8535054,18.0485554 15.8535054,21.7523691 Z" id="Stroke-7" stroke="#1D1D1B" stroke-width="1.1748"></path>
                        <path d="M13.2442602,24.0420259 C13.2442602,25.090842 12.5395566,25.9409453 11.6700666,25.9409453 C10.8005767,25.9409453 10.0968424,25.090842 10.0968424,24.0420259 C10.0968424,22.9932097 10.8005767,22.1431065 11.6700666,22.1431065 C12.5395566,22.1431065 13.2442602,22.9932097 13.2442602,24.0420259" id="Fill-9" fill="#1D1D1B"></path>
                        <path d="M24.4049434,24.0420259 C24.4049434,25.090842 23.7002398,25.9409453 22.8307499,25.9409453 C21.96126,25.9409453 21.2575257,25.090842 21.2575257,24.0420259 C21.2575257,22.9932097 21.96126,22.1431065 22.8307499,22.1431065 C23.7002398,22.1431065 24.4049434,22.9932097 24.4049434,24.0420259" id="Fill-11" fill="#1D1D1B"></path>
                        <path d="M11.705738,18.9520688 C11.705738,18.9520688 6.52951052,16.536496 5.75307639,24.0420259" id="Stroke-13" stroke="#1D1D1B" stroke-width="1.1748" stroke-linecap="round"></path>
                        <path d="M22.9013172,19.282223 C22.9013172,19.282223 28.0775447,16.8666501 28.8539788,24.37218" id="Stroke-15" stroke="#1D1D1B" stroke-width="1.1748" stroke-linecap="round"></path>
                        <path d="M21.5547225,29.5697328 C21.5547225,29.5697328 21.4005989,32.126828 20.1763339,33.8144332 C19.441581,34.8264148 17.9051913,35.3304669 16.9513696,35.3304669 C15.9985173,35.3304669 14.5590607,34.9369185 13.8243079,33.924937 C12.6000428,32.2373317 12.3489861,29.5697328 12.3489861,29.5697328 L16.9513696,29.5697328 L21.5547225,29.5697328 Z" id="Fill-17" fill="#B41E18"></path>
                        <path d="M21.5547225,29.5697328 C21.5547225,29.5697328 21.4005989,32.126828 20.1763339,33.8144332 C19.441581,34.8264148 17.9051913,35.3304669 16.9513696,35.3304669 C15.9985173,35.3304669 14.5590607,34.9369185 13.8243079,33.924937 C12.6000428,32.2373317 12.3489861,29.5697328 12.3489861,29.5697328 L16.9513696,29.5697328 L21.5547225,29.5697328 Z" id="Stroke-19" stroke="#1D1D1B" stroke-width="0.5324" stroke-linecap="round" stroke-linejoin="round"></path>
                        <path d="M13.7202017,32.7965388 C14.6749927,32.3322292 17.2708611,31.3648369 20.1720688,32.7946001 C20.4056776,32.9099505 20.4832241,33.2085044 20.3417017,33.4266039 C19.9336134,34.0556997 18.9371411,35.1830317 16.9684299,35.3294006 C16.9577672,35.33037 16.9490432,35.33037 16.9383806,35.3313393 C16.7474224,35.3371553 14.5993849,35.3604192 13.5282742,33.4159413 C13.4051691,33.1920258 13.4904703,32.9080118 13.7202017,32.7965388" id="Fill-21" fill="#E94F51"></path>
                        <path d="M13.7202017,32.7965388 C14.6749927,32.3322292 17.2708611,31.3648369 20.1720688,32.7946001 C20.4056776,32.9099505 20.4832241,33.2085044 20.3417017,33.4266039 C19.9336134,34.0556997 18.9371411,35.1830317 16.9684299,35.3294006 C16.9577672,35.33037 16.9490432,35.33037 16.9383806,35.3313393 C16.7474224,35.3371553 14.5993849,35.3604192 13.5282742,33.4159413 C13.4051691,33.1920258 13.4904703,32.9080118 13.7202017,32.7965388 Z" id="Stroke-23" stroke="#1D1D1B" stroke-width="0.5874" stroke-linecap="round" stroke-linejoin="round"></path>
                        <path d="M14.3680056,14.3786682 C14.3680056,14.3786682 17.2159001,12.9227331 20.3642871,14.3786682" id="Stroke-25" stroke="#CDB4A1" stroke-width="0.5874" stroke-linecap="round" stroke-linejoin="round"></path>
                        <path d="M15.5316875,15.8520514 C15.5316875,15.8520514 17.2745446,15.3654472 19.2006053,15.8520514" id="Stroke-27" stroke="#CDB4A1" stroke-width="0.5874" stroke-linecap="round" stroke-linejoin="round"></path>
                        <path d="M13.1945335,30.0158189 C12.8659303,29.9111312 12.4995232,30.0448989 12.2387731,30.270753 C11.9789924,30.4966071 11.8035435,30.8029157 11.6339106,31.102439 C10.7527887,32.6572459 9.84064826,34.3642378 10.0984903,36.1322975" id="Stroke-29" stroke="#CDB4A1" stroke-width="0.5874" stroke-linecap="round" stroke-linejoin="round"></path>
                        <path d="M21.9391592,29.7224994 C23.4648862,31.3742394 24.4187079,33.5455408 24.6028808,35.7876034" id="Stroke-31" stroke="#CDB4A1" stroke-width="0.5874" stroke-linecap="round" stroke-linejoin="round"></path>
                        <polygon id="Fill-33" fill="#A32F2F" points="23.221778 42.3769216 23.221778 45.3547065 20.6433575 43.8658141 18.0639678 42.3769216 20.6433575 40.8880292 23.221778 39.3991368"></polygon>
                        <polygon id="Stroke-35" stroke="#1D1D1B" stroke-width="1.1748" stroke-linecap="round" stroke-linejoin="round" points="23.221778 42.3769216 23.221778 45.3547065 20.6433575 43.8658141 18.0639678 42.3769216 20.6433575 40.8880292 23.221778 39.3991368"></polygon>
                        <polygon id="Fill-37" fill="#A32F2F" points="12.1927299 42.3769216 12.1927299 39.3991368 14.7711504 40.8880292 17.3505401 42.3769216 14.7711504 43.8658141 12.1927299 45.3547065"></polygon>
                        <polygon id="Stroke-39" stroke="#1D1D1B" stroke-width="1.1748" stroke-linecap="round" stroke-linejoin="round" points="12.1927299 42.3769216 12.1927299 39.3991368 14.7711504 40.8880292 17.3505401 42.3769216 14.7711504 43.8658141 12.1927299 45.3547065"></polygon>
                        <path d="M22.1211996,7.57551559 C22.1211996,7.57551559 31.1175605,7.05789284 33.5224707,19.8685713 C33.5224707,19.8685713 37.8970615,9.99593509 27.4011455,3.67395834 L22.1211996,7.57551559 Z" id="Fill-41" fill="#777677"></path>
                        <path d="M22.1211996,7.57551559 C22.1211996,7.57551559 31.1175605,7.05789284 33.5224707,19.8685713 C33.5224707,19.8685713 37.8970615,9.99593509 27.4011455,3.67395834 L22.1211996,7.57551559 Z" id="Stroke-43" stroke="#1D1D1B" stroke-width="1.1748"></path>
                        <path d="M1.21001588,20.6056506 C1.21001588,20.6056506 2.82201333,7.54779273 19.4344079,8.87577619 C21.1646637,9.01439052 22.9181835,8.83894161 24.5553836,8.26412833 C27.1851786,7.33938656 30.1115888,5.24853961 29.7471204,0.517235019 C29.7471204,0.517235019 25.9899934,2.91729856 21.9391592,1.92567295 C21.9391592,1.92567295 -4.00401554,-1.30316859 1.21001588,20.6056506" id="Fill-45" fill="#777677"></path>
                        <path d="M1.21001588,20.6056506 C1.21001588,20.6056506 2.82201333,7.54779273 19.4344079,8.87577619 C21.1646637,9.01439052 22.9181835,8.83894161 24.5553836,8.26412833 C27.1851786,7.33938656 30.1115888,5.24853961 29.7471204,0.517235019 C29.7471204,0.517235019 25.9899934,2.91729856 21.9391592,1.92567295 C21.9391592,1.92567295 -4.00401554,-1.30316859 1.21001588,20.6056506 Z" id="Stroke-47" stroke="#1D1D1B" stroke-width="1.1748" stroke-linejoin="round"></path>
                        <path d="M17.0890146,29.0756648 C17.0279468,28.6045699 16.536496,28.2197455 15.9035228,28.1237818 C15.2123898,28.019094 14.2527522,27.9570568 13.5296312,28.2323468 C13.5296312,28.2323468 12.6242761,28.4310597 11.3127712,29.4740598 C11.3127712,29.4740598 9.02708876,31.1480945 7.21540913,30.8001046 C7.21540913,30.8001046 11.268182,33.1478243 15.6253248,31.0579467 C15.6253248,31.0579467 17.2538009,30.3571204 17.0890146,29.0756648" id="Fill-49" fill="#777677"></path>
                        <path d="M17.0890146,29.0756648 C17.0279468,28.6045699 16.536496,28.2197455 15.9035228,28.1237818 C15.2123898,28.019094 14.2527522,27.9570568 13.5296312,28.2323468 C13.5296312,28.2323468 12.6242761,28.4310597 11.3127712,29.4740598 C11.3127712,29.4740598 9.02708876,31.1480945 7.21540913,30.8001046 C7.21540913,30.8001046 11.268182,33.1478243 15.6253248,31.0579467 C15.6253248,31.0579467 17.2538009,30.3571204 17.0890146,29.0756648 Z" id="Stroke-51" stroke="#1D1D1B" stroke-width="0.5874" stroke-linejoin="round"></path>
                        <path d="M16.9570887,29.0756648 C17.0181565,28.6045699 17.5096074,28.2197455 18.1425805,28.1237818 C18.8337135,28.019094 19.7933512,27.9570568 20.5164721,28.2323468 C20.5164721,28.2323468 21.4218273,28.4310597 22.7333321,29.4740598 C22.7333321,29.4740598 25.0190146,31.1480945 26.8306942,30.8001046 C26.8306942,30.8001046 22.7779213,33.1478243 18.4207785,31.0579467 C18.4207785,31.0579467 16.7923024,30.3571204 16.9570887,29.0756648" id="Fill-53" fill="#777677"></path>
                        <path d="M16.9570887,29.0756648 C17.0181565,28.6045699 17.5096074,28.2197455 18.1425805,28.1237818 C18.8337135,28.019094 19.7933512,27.9570568 20.5164721,28.2323468 C20.5164721,28.2323468 21.4218273,28.4310597 22.7333321,29.4740598 C22.7333321,29.4740598 25.0190146,31.1480945 26.8306942,30.8001046 C26.8306942,30.8001046 22.7779213,33.1478243 18.4207785,31.0579467 C18.4207785,31.0579467 16.7923024,30.3571204 16.9570887,29.0756648 Z" id="Stroke-55" stroke="#1D1D1B" stroke-width="0.5874" stroke-linejoin="round"></path>
                        <path d="M15.7043253,23.1602255 C15.7043253,23.1602255 17.1651071,21.6635784 18.6530302,23.1602255" id="Stroke-57" stroke="#1D1D1B" stroke-width="1.1748" stroke-linecap="round"></path>
                    </g>
                </g>
            </g>
        </g>
    </g>
</svg>