<?xml version="1.0" encoding="UTF-8"?>
<svg width="33px" height="43px" viewBox="0 0 33 43" version="1.1" xmlns="http://www.w3.org/2000/svg" xmlns:xlink="http://www.w3.org/1999/xlink">
    <!-- Generator: Sketch 51.3 (57544) - http://www.bohemiancoding.com/sketch -->
    <title>밝음얼굴캐릭터</title>
    <desc>Created with Sketch.</desc>
    <defs></defs>
    <g id="Page-1" stroke="none" stroke-width="1" fill="none" fill-rule="evenodd">
        <g id="여행코스_1" transform="translate(-20.000000, -116.000000)">
            <g id="밝음얼굴캐릭터" transform="translate(20.000000, 116.050781)">
                <g transform="translate(0.511922, 0.556096)">
                    <path d="M16.3627478,38.1027271 L15.2118875,38.1027271 C7.41846635,38.1027271 1.10019068,31.7844515 1.10019068,23.990149 L1.10019068,17.4524521 C1.10019068,9.65814967 7.41846635,3.339874 15.2118875,3.339874 L16.3627478,3.339874 C24.1570502,3.339874 30.4753259,9.65814967 30.4753259,17.4524521 L30.4753259,23.990149 C30.4753259,31.7844515 24.1570502,38.1027271 16.3627478,38.1027271" id="Fill-1" fill="#F6D9BE"></path>
                    <path d="M16.3627478,38.1027271 L15.2118875,38.1027271 C7.41846635,38.1027271 1.10019068,31.7844515 1.10019068,23.990149 L1.10019068,17.4524521 C1.10019068,9.65814967 7.41846635,3.339874 15.2118875,3.339874 L16.3627478,3.339874 C24.1570502,3.339874 30.4753259,9.65814967 30.4753259,17.4524521 L30.4753259,23.990149 C30.4753259,31.7844515 24.1570502,38.1027271 16.3627478,38.1027271 Z" id="Stroke-3" stroke="#1D1D1B" stroke-width="0.942" stroke-linecap="round" stroke-linejoin="round"></path>
                    <path d="M29.0148966,19.774881 C29.0148966,23.1419844 26.284908,25.871973 22.9178046,25.871973 C19.5507012,25.871973 16.8215938,23.1419844 16.8215938,19.774881 C16.8215938,16.4077776 19.5507012,13.6777891 22.9178046,13.6777891 C26.284908,13.6777891 29.0148966,16.4077776 29.0148966,19.774881 Z" id="Stroke-5" stroke="#1D1D1B" stroke-width="1.068"></path>
                    <path d="M14.4122776,19.774881 C14.4122776,23.1419844 11.682289,25.871973 8.31518564,25.871973 C4.94808225,25.871973 2.21897489,23.1419844 2.21897489,19.774881 C2.21897489,16.4077776 4.94808225,13.6777891 8.31518564,13.6777891 C11.682289,13.6777891 14.4122776,16.4077776 14.4122776,19.774881 Z" id="Stroke-7" stroke="#1D1D1B" stroke-width="1.068"></path>
                    <path d="M12.0402365,21.8563872 C12.0402365,22.8098564 11.3995969,23.5826775 10.6091515,23.5826775 C9.81870613,23.5826775 9.17894768,22.8098564 9.17894768,21.8563872 C9.17894768,20.9029179 9.81870613,20.1300968 10.6091515,20.1300968 C11.3995969,20.1300968 12.0402365,20.9029179 12.0402365,21.8563872" id="Fill-9" fill="#1D1D1B"></path>
                    <path d="M22.1863122,21.8563872 C22.1863122,22.8098564 21.5456725,23.5826775 20.7552271,23.5826775 C19.9647818,23.5826775 19.3250233,22.8098564 19.3250233,21.8563872 C19.3250233,20.9029179 19.9647818,20.1300968 20.7552271,20.1300968 C21.5456725,20.1300968 22.1863122,20.9029179 22.1863122,21.8563872" id="Fill-11" fill="#1D1D1B"></path>
                    <path d="M10.64158,17.2291535 C10.64158,17.2291535 5.93591865,15.0331782 5.23006944,21.8563872" id="Stroke-13" stroke="#1D1D1B" stroke-width="1.068" stroke-linecap="round"></path>
                    <path d="M20.8193792,17.5292936 C20.8193792,17.5292936 25.5250406,15.3333183 26.2308898,22.1565273" id="Stroke-15" stroke="#1D1D1B" stroke-width="1.068" stroke-linecap="round"></path>
                    <path d="M19.5952023,26.8815753 C19.5952023,26.8815753 19.4550899,29.2062072 18.3421217,30.7403938 C17.6741645,31.6603771 16.2774467,32.1186063 15.410336,32.1186063 C14.5441066,32.1186063 13.2355098,31.760835 12.5675526,30.8408518 C11.4545844,29.3066652 11.226351,26.8815753 11.226351,26.8815753 L15.410336,26.8815753 L19.5952023,26.8815753 Z" id="Fill-17" fill="#B41E18"></path>
                    <path d="M19.5952023,26.8815753 C19.5952023,26.8815753 19.4550899,29.2062072 18.3421217,30.7403938 C17.6741645,31.6603771 16.2774467,32.1186063 15.410336,32.1186063 C14.5441066,32.1186063 13.2355098,31.760835 12.5675526,30.8408518 C11.4545844,29.3066652 11.226351,26.8815753 11.226351,26.8815753 L15.410336,26.8815753 L19.5952023,26.8815753 Z" id="Stroke-19" stroke="#1D1D1B" stroke-width="0.484" stroke-linecap="round" stroke-linejoin="round"></path>
                    <path d="M12.4729106,29.8150352 C13.3409025,29.3929356 15.7007829,28.5134881 18.3382444,29.8132728 C18.550616,29.9181368 18.6211128,30.1895495 18.4924561,30.3878217 C18.1214667,30.959727 17.2155828,31.9845742 15.4258453,32.117637 C15.416152,32.1185182 15.4082211,32.1185182 15.3985278,32.1193994 C15.2249295,32.1246866 13.2721681,32.1458357 12.2984311,30.3781284 C12.1865174,30.1745689 12.2640639,29.9163744 12.4729106,29.8150352" id="Fill-21" fill="#E94F51"></path>
                    <path d="M12.4729106,29.8150352 C13.3409025,29.3929356 15.7007829,28.5134881 18.3382444,29.8132728 C18.550616,29.9181368 18.6211128,30.1895495 18.4924561,30.3878217 C18.1214667,30.959727 17.2155828,31.9845742 15.4258453,32.117637 C15.416152,32.1185182 15.4082211,32.1185182 15.3985278,32.1193994 C15.2249295,32.1246866 13.2721681,32.1458357 12.2984311,30.3781284 C12.1865174,30.1745689 12.2640639,29.9163744 12.4729106,29.8150352 Z" id="Stroke-23" stroke="#1D1D1B" stroke-width="0.534" stroke-linecap="round" stroke-linejoin="round"></path>
                    <path d="M13.0618233,13.0715166 C13.0618233,13.0715166 15.6508182,11.7479392 18.5129883,13.0715166" id="Stroke-25" stroke="#CDB4A1" stroke-width="0.534" stroke-linecap="round" stroke-linejoin="round"></path>
                    <path d="M14.1197159,14.4109558 C14.1197159,14.4109558 15.7041315,13.9685884 17.4550957,14.4109558" id="Stroke-27" stroke="#CDB4A1" stroke-width="0.534" stroke-linecap="round" stroke-linejoin="round"></path>
                    <path d="M11.9950305,27.2871081 C11.6963003,27.1919374 11.3632029,27.3135444 11.1261574,27.5188663 C10.8899931,27.7241883 10.7304941,28.0026506 10.5762824,28.2749445 C9.77526248,29.6884054 8.94604388,31.2402162 9.18044573,32.8475432" id="Stroke-29" stroke="#CDB4A1" stroke-width="0.534" stroke-linecap="round" stroke-linejoin="round"></path>
                    <path d="M19.9446902,27.020454 C21.3317147,28.5220358 22.1988254,30.4959462 22.3662553,32.5341849" id="Stroke-31" stroke="#CDB4A1" stroke-width="0.534" stroke-linecap="round" stroke-linejoin="round"></path>
                    <polygon id="Fill-33" fill="#A32F2F" points="21.1107073 38.5244742 21.1107073 41.2315513 18.7666887 39.8780128 16.4217889 38.5244742 18.7666887 37.1709357 21.1107073 35.8173971"></polygon>
                    <polygon id="Stroke-35" stroke="#1D1D1B" stroke-width="1.068" stroke-linecap="round" stroke-linejoin="round" points="21.1107073 38.5244742 21.1107073 41.2315513 18.7666887 39.8780128 16.4217889 38.5244742 18.7666887 37.1709357 21.1107073 35.8173971"></polygon>
                    <polygon id="Fill-37" fill="#A32F2F" points="11.0842999 38.5244742 11.0842999 35.8173971 13.4283185 37.1709357 15.7732183 38.5244742 13.4283185 39.8780128 11.0842999 41.2315513"></polygon>
                    <polygon id="Stroke-39" stroke="#1D1D1B" stroke-width="1.068" stroke-linecap="round" stroke-linejoin="round" points="11.0842999 38.5244742 11.0842999 35.8173971 13.4283185 37.1709357 15.7732183 38.5244742 13.4283185 39.8780128 11.0842999 41.2315513"></polygon>
                    <path d="M20.1101814,6.88683236 C20.1101814,6.88683236 28.2886914,6.41626622 30.4749734,18.0623375 C30.4749734,18.0623375 34.4518741,9.08721372 24.9101323,3.33996213 L20.1101814,6.88683236 Z" id="Fill-41" fill="#777677"></path>
                    <path d="M20.1101814,6.88683236 C20.1101814,6.88683236 28.2886914,6.41626622 30.4749734,18.0623375 C30.4749734,18.0623375 34.4518741,9.08721372 24.9101323,3.33996213 L20.1101814,6.88683236 Z" id="Stroke-43" stroke="#1D1D1B" stroke-width="1.068"></path>
                    <path d="M1.10001444,18.7324096 C1.10001444,18.7324096 2.56546666,6.86162975 17.6676436,8.06888745 C19.2406034,8.19490048 20.8347123,8.03540147 22.323076,7.51284394 C24.7137987,6.6721696 27.3741717,4.77139964 27.0428367,0.470213654 C27.0428367,0.470213654 23.6272668,2.6520896 19.9446902,1.75061178 C19.9446902,1.75061178 -3.64001413,-1.18469872 1.10001444,18.7324096" id="Fill-45" fill="#777677"></path>
                    <path d="M1.10001444,18.7324096 C1.10001444,18.7324096 2.56546666,6.86162975 17.6676436,8.06888745 C19.2406034,8.19490048 20.8347123,8.03540147 22.323076,7.51284394 C24.7137987,6.6721696 27.3741717,4.77139964 27.0428367,0.470213654 C27.0428367,0.470213654 23.6272668,2.6520896 19.9446902,1.75061178 C19.9446902,1.75061178 -3.64001413,-1.18469872 1.10001444,18.7324096 Z" id="Stroke-47" stroke="#1D1D1B" stroke-width="1.068" stroke-linejoin="round"></path>
                    <path d="M15.5354679,26.4324225 C15.4799516,26.0041545 15.0331782,25.6543141 14.457748,25.5670743 C13.8294453,25.4719036 12.9570474,25.4155062 12.2996648,25.6657698 C12.2996648,25.6657698 11.4766146,25.8464179 10.2843375,26.7945999 C10.2843375,26.7945999 8.20644433,28.3164495 6.55946284,28.0000951 C6.55946284,28.0000951 10.2438018,30.1343857 14.2048408,28.234497 C14.2048408,28.234497 15.6852736,27.5973822 15.5354679,26.4324225" id="Fill-49" fill="#777677"></path>
                    <path d="M15.5354679,26.4324225 C15.4799516,26.0041545 15.0331782,25.6543141 14.457748,25.5670743 C13.8294453,25.4719036 12.9570474,25.4155062 12.2996648,25.6657698 C12.2996648,25.6657698 11.4766146,25.8464179 10.2843375,26.7945999 C10.2843375,26.7945999 8.20644433,28.3164495 6.55946284,28.0000951 C6.55946284,28.0000951 10.2438018,30.1343857 14.2048408,28.234497 C14.2048408,28.234497 15.6852736,27.5973822 15.5354679,26.4324225 Z" id="Stroke-51" stroke="#1D1D1B" stroke-width="0.534" stroke-linejoin="round"></path>
                    <path d="M15.4155352,26.4324225 C15.4710514,26.0041545 15.9178249,25.6543141 16.493255,25.5670743 C17.1215577,25.4719036 17.9939556,25.4155062 18.6513383,25.6657698 C18.6513383,25.6657698 19.4743884,25.8464179 20.6666655,26.7945999 C20.6666655,26.7945999 22.7445587,28.3164495 24.3915402,28.0000951 C24.3915402,28.0000951 20.7072012,30.1343857 16.7461623,28.234497 C16.7461623,28.234497 15.2657295,27.5973822 15.4155352,26.4324225" id="Fill-53" fill="#777677"></path>
                    <path d="M15.4155352,26.4324225 C15.4710514,26.0041545 15.9178249,25.6543141 16.493255,25.5670743 C17.1215577,25.4719036 17.9939556,25.4155062 18.6513383,25.6657698 C18.6513383,25.6657698 19.4743884,25.8464179 20.6666655,26.7945999 C20.6666655,26.7945999 22.7445587,28.3164495 24.3915402,28.0000951 C24.3915402,28.0000951 20.7072012,30.1343857 16.7461623,28.234497 C16.7461623,28.234497 15.2657295,27.5973822 15.4155352,26.4324225 Z" id="Stroke-55" stroke="#1D1D1B" stroke-width="0.534" stroke-linejoin="round"></path>
                    <path d="M14.2766594,21.0547504 C14.2766594,21.0547504 15.6046428,19.6941622 16.9573002,21.0547504" id="Stroke-57" stroke="#1D1D1B" stroke-width="1.068" stroke-linecap="round"></path>
                </g>
            </g>
        </g>
    </g>
</svg>