<?xml version="1.0" encoding="UTF-8"?>
<svg width="82px" height="82px" viewBox="0 0 82 82" version="1.1" xmlns="http://www.w3.org/2000/svg" xmlns:xlink="http://www.w3.org/1999/xlink">
    <!-- Generator: Sketch 51.3 (57544) - http://www.bohemiancoding.com/sketch -->
    <title>나침반</title>
    <desc>Created with Sketch.</desc>
    <defs>
        <circle id="path-1" cx="38.9254703" cy="39.1133489" r="33.6730206"></circle>
        <filter x="-16.3%" y="-14.8%" width="132.7%" height="132.7%" filterUnits="objectBoundingBox" id="filter-2">
            <feOffset dx="0" dy="1" in="SourceAlpha" result="shadowOffsetOuter1"></feOffset>
            <feGaussianBlur stdDeviation="3.5" in="shadowOffsetOuter1" result="shadowBlurOuter1"></feGaussianBlur>
            <feColorMatrix values="0 0 0 0 0.929411765   0 0 0 0 0.454901961   0 0 0 0 0.290196078  0 0 0 0.702983469 0" type="matrix" in="shadowBlurOuter1"></feColorMatrix>
        </filter>
        <linearGradient x1="50%" y1="0%" x2="50%" y2="100%" id="linearGradient-3">
            <stop stop-color="#F7AC81" offset="0%"></stop>
            <stop stop-color="#ED744A" offset="100%"></stop>
        </linearGradient>
        <path d="M36.6808835,26.3000501 L50.3163811,53.5710454 C50.4645747,53.8674325 50.3444401,54.2278363 50.048053,54.3760299 C49.8886521,54.4557303 49.7020702,54.4604456 49.538847,54.3888987 L36.385105,48.6231115 C36.231571,48.5558117 36.0568834,48.5558117 35.9033493,48.6231115 L22.7496073,54.3888987 C22.446113,54.5219318 22.0922375,54.3837457 21.9592044,54.0802514 C21.8876574,53.9170282 21.8923728,53.7304462 21.9720732,53.5710454 L35.6075708,26.3000501 C35.7557644,26.003663 36.1161682,25.8835284 36.4125553,26.0317219 C36.5286718,26.0897801 36.6228253,26.1839336 36.6808835,26.3000501 Z" id="path-4"></path>
        <filter x="-3.5%" y="-3.5%" width="107.0%" height="107.0%" filterUnits="objectBoundingBox" id="filter-5">
            <feGaussianBlur stdDeviation="0.5" in="SourceAlpha" result="shadowBlurInner1"></feGaussianBlur>
            <feOffset dx="0" dy="1" in="shadowBlurInner1" result="shadowOffsetInner1"></feOffset>
            <feComposite in="shadowOffsetInner1" in2="SourceAlpha" operator="arithmetic" k2="-1" k3="1" result="shadowInnerInner1"></feComposite>
            <feColorMatrix values="0 0 0 0 0.579347364   0 0 0 0 0.579347364   0 0 0 0 0.579347364  0 0 0 0.635926178 0" type="matrix" in="shadowInnerInner1"></feColorMatrix>
        </filter>
    </defs>
    <g id="Page-2" stroke="none" stroke-width="1" fill="none" fill-rule="evenodd">
        <g id="s2" transform="translate(-158.000000, -317.000000)">
            <g id="나침반" transform="translate(198.985663, 357.035036) rotate(-14.000000) translate(-198.985663, -357.035036) translate(159.985663, 317.535036)">
                <g id="Oval" fill-rule="nonzero">
                    <use fill="black" fill-opacity="1" filter="url(#filter-2)" xlink:href="#path-1"></use>
                    <use fill="#FFFFFF" xlink:href="#path-1"></use>
                </g>
                <g id="Triangle-Copy-2" fill-rule="nonzero" transform="translate(36.144293, 40.203886) rotate(-134.724964) translate(-36.144293, -40.203886) ">
                    <use fill="url(#linearGradient-3)" xlink:href="#path-4"></use>
                    <use fill="black" fill-opacity="1" filter="url(#filter-5)" xlink:href="#path-4"></use>
                </g>
                <g id="Group-75" transform="translate(38.974676, 39.388053) rotate(-165.000000) translate(-38.974676, -39.388053) translate(7.174676, 7.588053)">
                    <polygon id="Fill-3" fill="#ED754B" points="31.0393703 3.09763849 32.1860128 3.09763849 32.1860128 0 31.0393703 0"></polygon>
                    <polygon id="Fill-4" fill="#C6C5C5" points="28.2862408 0.170163608 28.5562516 3.25644409 29.6987639 3.15628712 29.4287531 0.0705229031"></polygon>
                    <polygon id="Fill-5" fill="#C6C5C5" points="27.2258675 3.43130579 26.096262 3.6305872 25.5583055 0.579929553 26.687911 0.380648144"></polygon>
                    <polygon id="Fill-6" fill="#C6C5C5" points="24.7863739 3.92088755 23.6784519 4.21774457 22.8766798 1.22542579 23.9846018 0.928568766"></polygon>
                    <polygon id="Fill-7" fill="#C6C5C5" points="22.3988691 4.62121199 21.3208909 5.01357953 20.2614985 2.10283189 21.3394767 1.71046435"></polygon>
                    <polygon id="Fill-8" fill="#C6C5C5" points="20.0814741 5.52696148 19.0417001 6.01174191 17.7329478 3.20424889 18.7722055 2.71946846"></polygon>
                    <polygon id="Fill-9" fill="#C6C5C5" points="17.8517939 6.63121798 16.8584845 7.20479737 15.3096652 4.52224244 16.3029747 3.94866304"></polygon>
                    <polygon id="Fill-10" fill="#C6C5C5" points="15.7269171 7.92561785 14.7873001 8.58334976 13.0108045 6.04586756 13.9504215 5.38813565"></polygon>
                    <polygon id="Fill-11" fill="#C6C5C5" points="13.7228999 9.40030028 12.8442031 10.1375382 10.8529379 7.76474716 11.7316346 7.0275092"></polygon>
                    <polygon id="Fill-12" fill="#C6C5C5" points="11.8550239 11.0440105 11.0439589 11.8550755 8.85341221 9.66452885 9.66447722 8.85346384"></polygon>
                    <polygon id="Fill-13" fill="#C6C5C5" points="10.1375382 12.8443064 9.40030028 13.7230032 7.0275092 11.7317379 7.76474716 10.8530411"></polygon>
                    <polygon id="Fill-14" fill="#C6C5C5" points="8.58345301 14.7874034 7.92572111 15.7270204 5.38823891 13.9500084 6.04597081 13.0109077"></polygon>
                    <polygon id="Fill-15" fill="#C6C5C5" points="7.20469412 16.8585361 6.63111472 17.8518455 3.94855979 16.3030263 4.52213918 15.3097169"></polygon>
                    <polygon id="Fill-16" fill="#C6C5C5" points="6.01163865 19.0419582 5.52685823 20.0817322 2.71936521 18.7724637 3.20414563 17.7326897"></polygon>
                    <polygon id="Fill-17" fill="#C6C5C5" points="5.01347628 21.3210974 4.62110873 22.3990756 1.71036109 21.3396832 2.10272864 20.261705"></polygon>
                    <polygon id="Fill-18" fill="#C6C5C5" points="4.21769295 23.6785552 3.92083592 24.7864772 0.928517139 23.9847051 1.22537416 22.8767831"></polygon>
                    <polygon id="Fill-19" fill="#C6C5C5" points="0.380544889 26.6879626 3.43120253 27.2259191 3.63048394 26.0963136 0.579826299 25.5583571"></polygon>
                    <polygon id="Fill-20" fill="#C6C5C5" points="0.0701615119 29.428908 3.156442 29.6989188 3.2560827 28.5564065 0.17031849 28.2863957"></polygon>
                    <polygon id="Fill-21" fill="#C6C5C5" points="0 32.1860128 3.09763849 32.1860128 3.09763849 31.0393703 0 31.0393703"></polygon>
                    <polygon id="Fill-22" fill="#C6C5C5" points="0.0701615119 33.7965783 0.17031849 34.9390906 3.2560827 34.6690798 3.156442 33.5265675"></polygon>
                    <polygon id="Fill-23" fill="#C6C5C5" points="0.380544889 36.5375237 0.579826299 37.6671292 3.63048394 37.1291727 3.43120253 35.9995672"></polygon>
                    <polygon id="Fill-24" fill="#C6C5C5" points="3.92083592 38.4390091 4.21769295 39.5469311 1.22537416 40.3487032 0.928517139 39.2407812"></polygon>
                    <polygon id="Fill-25" fill="#C6C5C5" points="4.62116036 40.826514 5.0135279 41.9044922 2.10278026 42.9638845 1.71041272 41.8859063"></polygon>
                    <polygon id="Fill-26" fill="#C6C5C5" points="5.52690986 43.1439089 6.01169028 44.1836829 3.20419726 45.4924352 2.71941683 44.4531775"></polygon>
                    <polygon id="Fill-27" fill="#C6C5C5" points="6.63116635 45.3735891 7.20474575 46.3668985 4.52219081 47.9157178 3.94861142 46.9224084"></polygon>
                    <polygon id="Fill-28" fill="#C6C5C5" points="7.92556622 47.4984659 8.58329813 48.4380829 6.04581593 50.2145786 5.38808402 49.2749616"></polygon>
                    <polygon id="Fill-29" fill="#C6C5C5" points="9.40024866 49.5024831 10.1374866 50.3811799 7.76469553 52.3724452 7.02745757 51.4937484"></polygon>
                    <polygon id="Fill-30" fill="#C6C5C5" points="11.0439589 51.3703591 11.8550239 52.1814241 9.66447722 54.3719708 8.85341221 53.5609058"></polygon>
                    <polygon id="Fill-31" fill="#C6C5C5" points="12.8442548 53.0878448 13.7229515 53.8250828 11.7316863 56.1978738 10.8529895 55.4606359"></polygon>
                    <polygon id="Fill-32" fill="#C6C5C5" points="14.7873518 54.64193 15.7269688 55.2996619 13.9499568 57.8371441 13.0108561 57.1794122"></polygon>
                    <polygon id="Fill-33" fill="#C6C5C5" points="16.8584845 56.0206889 17.8517939 56.5942683 16.3029747 59.2768232 15.3096652 58.7032439"></polygon>
                    <polygon id="Fill-34" fill="#C6C5C5" points="19.0419066 57.2137444 20.0816806 57.6985248 18.7724121 60.5060178 17.7326381 60.0212374"></polygon>
                    <polygon id="Fill-35" fill="#C6C5C5" points="21.3210458 58.2119068 22.399024 58.6042743 21.3396316 61.5150219 20.2616534 61.1226544"></polygon>
                    <polygon id="Fill-36" fill="#C6C5C5" points="23.6784519 59.0076901 24.7863739 59.3045471 23.9846018 62.2968659 22.8766798 62.0000089"></polygon>
                    <polygon id="Fill-37" fill="#C6C5C5" points="25.5583055 62.6455051 26.687911 62.8447865 27.2258675 59.7941289 26.096262 59.5948475"></polygon>
                    <polygon id="Fill-38" fill="#C6C5C5" points="28.2862408 63.0553227 29.4287531 63.1554797 29.6987639 60.0691992 28.5562516 59.9690422"></polygon>
                    <polygon id="Fill-39" fill="#C6C5C5" points="31.0393703 63.225383 32.1860128 63.225383 32.1860128 60.1277445 31.0393703 60.1277445"></polygon>
                    <polygon id="Fill-40" fill="#C6C5C5" points="33.5265158 60.0690443 33.7965267 63.1553248 34.939039 63.0551678 34.6690282 59.9688873"></polygon>
                    <polygon id="Fill-41" fill="#C6C5C5" points="35.9993606 59.793974 36.5373172 62.8446316 37.6669227 62.6453502 37.1289661 59.5952089"></polygon>
                    <polygon id="Fill-42" fill="#C6C5C5" points="38.4389575 59.3045471 39.5468795 59.0076901 40.3486516 62.0000089 39.2407296 62.2968659"></polygon>
                    <polygon id="Fill-43" fill="#C6C5C5" points="40.8264623 58.6042227 41.9044405 58.2118551 42.9638329 61.1226028 41.8858547 61.5149703"></polygon>
                    <polygon id="Fill-44" fill="#C6C5C5" points="43.1438573 57.6984732 44.1836313 57.2136928 45.4923836 60.0211858 44.4531259 60.5059662"></polygon>
                    <polygon id="Fill-45" fill="#C6C5C5" points="45.3735375 56.5942167 46.3668469 56.0206373 47.9156662 58.7031922 46.9223568 59.2767716"></polygon>
                    <polygon id="Fill-46" fill="#C6C5C5" points="47.4984143 55.2998168 48.4380313 54.6420849 50.2145269 57.1795671 49.2749099 57.837299"></polygon>
                    <polygon id="Fill-47" fill="#C6C5C5" points="49.5024315 53.8251344 50.3811283 53.0878964 52.3723936 55.4606875 51.4936968 56.1979255"></polygon>
                    <polygon id="Fill-48" fill="#C6C5C5" points="51.3703075 52.1814241 52.1813725 51.3703591 54.3719192 53.5609058 53.5608542 54.3719708"></polygon>
                    <polygon id="Fill-49" fill="#C6C5C5" points="53.0877932 50.3811283 53.8250311 49.5024315 56.1978222 51.4936968 55.4605842 52.3723936"></polygon>
                    <polygon id="Fill-50" fill="#C6C5C5" points="54.6418784 48.4380313 55.2996103 47.4984143 57.8370925 49.2754262 57.1793606 50.2145269"></polygon>
                    <polygon id="Fill-51" fill="#C6C5C5" points="56.0206373 46.3668985 56.5942167 45.3735891 59.2767716 46.9224084 58.7031922 47.9157178"></polygon>
                    <polygon id="Fill-52" fill="#C6C5C5" points="57.2136928 44.1834764 57.6984732 43.1437024 60.5059662 44.452971 60.0211858 45.492745"></polygon>
                    <polygon id="Fill-53" fill="#C6C5C5" points="58.2118551 41.9043373 58.6042227 40.8263591 61.5149703 41.8857514 61.1226028 42.9637296"></polygon>
                    <polygon id="Fill-54" fill="#C6C5C5" points="59.0076385 39.5469311 59.3044955 38.4390091 62.2968143 39.2407812 61.9999572 40.3487032"></polygon>
                    <polygon id="Fill-55" fill="#C6C5C5" points="59.5948991 37.1290694 59.7941805 35.9994639 62.8448381 36.5374205 62.6455567 37.667026"></polygon>
                    <polygon id="Fill-56" fill="#C6C5C5" points="59.9690422 34.669183 63.0553227 34.9391939 63.1549634 33.7966815 60.0686829 33.5266707"></polygon>
                    <polygon id="Fill-57" fill="#C6C5C5" points="60.1277445 32.1860128 63.225383 32.1860128 63.225383 31.0393703 60.1277445 31.0393703"></polygon>
                    <polygon id="Fill-58" fill="#C6C5C5" points="59.9690422 28.5563032 60.0686829 29.6988156 63.1549634 29.4288048 63.0553227 28.2862924"></polygon>
                    <polygon id="Fill-59" fill="#C6C5C5" points="59.7940772 27.2259191 59.5947958 26.0963136 62.6454535 25.5583571 62.8447349 26.6879626"></polygon>
                    <polygon id="Fill-60" fill="#C6C5C5" points="59.3044955 24.7864256 59.0076385 23.6785035 61.9999572 22.8767314 62.2968143 23.9846535"></polygon>
                    <polygon id="Fill-61" fill="#ED754B" points="58.604171 22.3989207 58.2118035 21.3209425 61.1225511 20.2615501 61.5149187 21.3395283"></polygon>
                    <polygon id="Fill-62" fill="#ED754B" points="57.6984216 20.0815257 57.2136411 19.0417517 60.0211341 17.7329995 60.5059146 18.7722572"></polygon>
                    <polygon id="Fill-63" fill="#ED754B" points="56.5941651 17.8518455 56.0205857 16.8585361 58.7031406 15.3097169 59.27672 16.3030263"></polygon>
                    <polygon id="Fill-64" fill="#ED754B" points="55.2997652 15.7269688 54.6420333 14.7873518 57.1795155 13.0108561 57.8372474 13.9504731"></polygon>
                    <polygon id="Fill-65" fill="#ED754B" points="53.8250828 13.7229515 53.0878448 12.8442548 55.4606359 10.8529895 56.1978738 11.7316863"></polygon>
                    <polygon id="Fill-66" fill="#ED754B" points="52.1813725 11.8550755 51.3703075 11.0440105 53.5608542 8.85346384 54.3719192 9.66452885"></polygon>
                    <polygon id="Fill-67" fill="#ED754B" points="50.3810766 10.1375899 49.5023799 9.40035191 51.4936451 7.02756082 52.3723419 7.76479879"></polygon>
                    <polygon id="Fill-68" fill="#ED754B" points="48.4379796 8.58350464 47.4983626 7.92577273 49.2753746 5.38829053 50.2144753 6.04602244"></polygon>
                    <polygon id="Fill-69" fill="#ED754B" points="46.3668469 7.20474575 45.3735375 6.63116635 46.9223568 3.94861142 47.9156662 4.52219081"></polygon>
                    <polygon id="Fill-70" fill="#ED754B" points="44.1834248 6.01169028 43.1436508 5.52690986 44.4529193 2.71941683 45.4926933 3.20419726"></polygon>
                    <polygon id="Fill-71" fill="#ED754B" points="41.9042857 5.0135279 40.8263075 4.62116036 41.8856998 1.71041272 42.963678 2.10278026"></polygon>
                    <polygon id="Fill-72" fill="#ED754B" points="39.5468279 4.21774457 38.4389058 3.92088755 39.2406779 0.928568766 40.3486 1.22542579"></polygon>
                    <polygon id="Fill-73" fill="#ED754B" points="37.1290178 3.63048394 35.9994123 3.43120253 36.5373688 0.380544889 37.6669743 0.579826299"></polygon>
                    <polygon id="Fill-74" fill="#ED754B" points="33.5265158 3.156442 34.6690282 3.2560827 34.939039 0.17031849 33.7965267 0.0701615119"></polygon>
                </g>
            </g>
        </g>
    </g>
</svg>