<?xml version="1.0" encoding="UTF-8"?>
<svg width="16px" height="16px" viewBox="0 0 16 16" version="1.1" xmlns="http://www.w3.org/2000/svg" xmlns:xlink="http://www.w3.org/1999/xlink">
    <!-- Generator: Sketch 51.3 (57544) - http://www.bohemiancoding.com/sketch -->
    <title>Cursor - simple-line-icons</title>
    <desc>Created with Sketch.</desc>
    <defs></defs>
    <g id="Page-1" stroke="none" stroke-width="1" fill="none" fill-rule="evenodd">
        <g id="여행코스_좌측메뉴바" transform="translate(-326.000000, -42.000000)" fill="#FBF8F2">
            <g id="상단컨텐츠">
                <g id="길안내" transform="translate(264.000000, 36.000000)">
                    <path d="M76.3544922,7.94628906 L64.6357422,12.8828125 L69.6894531,14.4208984 L71.4326172,19.4599609 L76.3544922,7.94628906 Z M77.5703125,6.45214844 C77.7070319,6.45214844 77.7949217,6.50585884 77.8339844,6.61328125 C77.8730471,6.72070366 77.853516,6.86718657 77.7753906,7.05273438 L71.7988281,21.0273438 C71.7402341,21.1640632 71.6718754,21.2641598 71.59375,21.3276367 C71.5156246,21.3911136 71.4326176,21.4228516 71.3447266,21.4228516 C71.2666012,21.4228516 71.1860356,21.3959964 71.1030273,21.3422852 C71.0200191,21.288574 70.949219,21.2080083 70.890625,21.1005859 L68.9863281,15.1826172 L63.2001953,13.3808594 C62.9658191,13.2343743 62.855957,13.0708017 62.8706055,12.8901367 C62.885254,12.7094718 63.01953,12.5654302 63.2734375,12.4580078 L77.2480469,6.52539062 C77.3164066,6.4960936 77.3774411,6.47656255 77.4311523,6.46679688 C77.4848635,6.4570312 77.5312498,6.45214844 77.5703125,6.45214844 Z" id="Cursor---simple-line-icons"></path>
                </g>
            </g>
        </g>
    </g>
</svg>