<?xml version="1.0" encoding="UTF-8"?>
<svg width="12px" height="21px" viewBox="0 0 12 21" version="1.1" xmlns="http://www.w3.org/2000/svg" xmlns:xlink="http://www.w3.org/1999/xlink">
    <!-- Generator: Sketch 51.3 (57544) - http://www.bohemiancoding.com/sketch -->
    <title>Arrow-left - simple-line-icons</title>
    <desc>Created with Sketch.</desc>
    <defs></defs>
    <g id="Page-2" stroke="none" stroke-width="1" fill="none" fill-rule="evenodd">
        <g id="3_스타일선택" transform="translate(-29.000000, -38.000000)" fill="#ED744A">
            <g id="상단" transform="translate(0.000000, -1.000000)">
                <path d="M39.8203125,39.2109375 C39.9114588,39.2109375 39.9960934,39.2272134 40.0742188,39.2597656 C40.1523441,39.2923179 40.223958,39.3411455 40.2890625,39.40625 C40.4192715,39.536459 40.484375,39.6959626 40.484375,39.8847656 C40.484375,40.0735687 40.4192715,40.2330723 40.2890625,40.3632812 L31.3828125,49.2695312 L40.171875,58.0585938 C40.302084,58.1888027 40.3671875,58.3450512 40.3671875,58.5273438 C40.3671875,58.7096363 40.302084,58.8658848 40.171875,58.9960938 C40.041666,59.1263027 39.8821624,59.1914062 39.6933594,59.1914062 C39.5045563,59.1914062 39.3450527,59.1263027 39.2148438,58.9960938 L29.9570312,49.7382812 C29.8268223,49.6080723 29.7617188,49.4518238 29.7617188,49.2695312 C29.7617188,49.0872387 29.8268223,48.9309902 29.9570312,48.8007812 L39.3515625,39.40625 C39.416667,39.3411455 39.491536,39.2923179 39.5761719,39.2597656 C39.6608077,39.2272134 39.7421871,39.2109375 39.8203125,39.2109375 Z" id="Arrow-left---simple-line-icons"></path>
            </g>
        </g>
    </g>
</svg>