<?xml version="1.0" encoding="UTF-8"?>
<svg width="72px" height="64px" viewBox="0 0 72 64" version="1.1" xmlns="http://www.w3.org/2000/svg" xmlns:xlink="http://www.w3.org/1999/xlink">
    <!-- Generator: Sketch 51.3 (57544) - http://www.bohemiancoding.com/sketch -->
    <title>개선문</title>
    <desc>Created with Sketch.</desc>
    <defs>
        <polygon id="path-1" points="0 0.294115543 70.8349635 0.294115543 70.8349635 63.1197786 0 63.1197786"></polygon>
        <path d="M67.834899,19.5450709 L67.834899,18.2117283 L70.8349635,11.5077444 L70.8349635,10.1756041 L67.834899,10.1756041 L67.834899,5.55038415 L68.7789917,4.21704157 L68.7789917,2.48333553 L67.1755701,2.48333553 L67.1755701,1.20169153 L62.5756286,1.20169153 L62.5756286,2.48333553 L59.740987,2.48333553 L59.740987,1.20169153 L55.1410455,1.20169153 L55.1410455,2.48333553 L52.3064039,2.48333553 L52.3064039,1.20169153 L47.7064624,1.20169153 L47.7064624,2.48333553 L44.8730024,2.48333553 L44.8730024,1.20169153 L40.2730609,1.20169153 L40.2730609,2.48333553 L37.4384193,2.48333553 L37.4384193,1.20169153 L32.8384778,1.20169153 L32.8384778,2.48333553 L30.0038363,2.48333553 L30.0038363,1.20169153 L25.4038948,1.20169153 L25.4038948,2.48333553 L22.5704348,2.48333553 L22.5704348,1.20169153 L17.9704933,1.20169153 L17.9704933,2.48333553 L15.1358517,2.48333553 L15.1358517,1.20169153 L10.5359102,1.20169153 L10.5359102,2.48333553 L7.70126862,2.48333553 L7.70126862,1.20169153 L3.10132712,1.20169153 L3.10132712,2.48333553 L1.772035,2.48333553 L1.772035,4.21704157 L2.51053062,5.55038415 L2.51053062,10.1756041 L-0.000354477896,10.1756041 L-0.000354477896,11.5077444 L2.51053062,18.2117283 L2.51053062,19.5450709 L3.39672536,19.5450709 L3.39672536,33.1129438 L1.89492067,33.1129438 L1.89492067,34.9813066 L3.7441137,34.9813066 L3.7441137,61.478635 L24.6027747,61.478635 L24.6027747,34.9813066 L26.4507861,34.9813066 L26.4507861,33.1129438 L26.1636591,33.1129438 L26.1636591,31.4429593 C26.1636591,26.3632727 30.2886002,22.2454203 35.3765396,22.2454203 C40.464479,22.2454203 44.5894201,26.3632727 44.5894201,31.4429593 L44.5894201,33.1129438 L44.334196,33.1129438 L44.334196,34.9813066 L46.1822075,34.9813066 L46.1822075,61.478635 L67.0408685,61.478635 L67.0408685,34.9813066 L68.8900615,34.9813066 L68.8900615,33.1129438 L67.0408685,33.1129438 L67.0408685,19.5450709 L67.834899,19.5450709 Z" id="path-3"></path>
        <filter x="-3.1%" y="-3.6%" width="109.0%" height="110.6%" filterUnits="objectBoundingBox" id="filter-4">
            <feMorphology radius="1.2" operator="dilate" in="SourceAlpha" result="shadowSpreadOuter1"></feMorphology>
            <feOffset dx="1" dy="1" in="shadowSpreadOuter1" result="shadowOffsetOuter1"></feOffset>
            <feGaussianBlur stdDeviation="0.5" in="shadowOffsetOuter1" result="shadowBlurOuter1"></feGaussianBlur>
            <feComposite in="shadowBlurOuter1" in2="SourceAlpha" operator="out" result="shadowBlurOuter1"></feComposite>
            <feColorMatrix values="0 0 0 0 0   0 0 0 0 0   0 0 0 0 0  0 0 0 0.5 0" type="matrix" in="shadowBlurOuter1"></feColorMatrix>
        </filter>
        <polygon id="path-5" points="0 60.6199402 70.835318 60.6199402 70.835318 1.02816173 0 1.02816173"></polygon>
    </defs>
    <g id="Page-2" stroke="none" stroke-width="1" fill="none" fill-rule="evenodd">
        <g id="s1" transform="translate(-200.000000, -171.000000)">
            <g id="장소" transform="translate(59.665160, 169.885938)">
                <g id="개선문" transform="translate(138.565446, 0.429666)">
                    <g id="개선문-copy" transform="translate(1.328550, 0.866974)">
                        <g id="Group-3" transform="translate(0.673877, 0.000000)">
                            <mask id="mask-2" fill="white">
                                <use xlink:href="#path-1"></use>
                            </mask>
                            <g id="Clip-2"></g>
                            <g id="Fill-1" mask="url(#mask-2)">
                                <use fill="black" fill-opacity="1" filter="url(#filter-4)" xlink:href="#path-3"></use>
                                <path stroke="#FFFFFF" stroke-width="1.2" d="M67.6408685,20.1450709 L67.6408685,32.5129438 L69.4900615,32.5129438 L69.4900615,35.5813066 L67.6408685,35.5813066 L67.6408685,62.078635 L45.5822075,62.078635 L45.5822075,35.5813066 L43.734196,35.5813066 L43.734196,32.5129438 L43.9894201,32.5129438 L43.9894201,31.4429593 C43.9894201,26.6949457 40.13341,22.8454203 35.3765396,22.8454203 C30.6196691,22.8454203 26.7636591,26.6949457 26.7636591,31.4429593 L26.7636591,32.5129438 L27.0507861,32.5129438 L27.0507861,35.5813066 L25.2027747,35.5813066 L25.2027747,62.078635 L3.1441137,62.078635 L3.1441137,35.5813066 L1.29492067,35.5813066 L1.29492067,32.5129438 L2.79672536,32.5129438 L2.79672536,20.1450709 L1.91053062,20.1450709 L1.91053062,18.3204031 L-0.562237604,11.71819 L-0.600354478,11.5077444 L-0.600354478,9.57560408 L1.91053062,9.57560408 L1.91053062,5.70544667 L1.172035,4.37210409 L1.172035,1.88333553 L2.50132712,1.88333553 L2.50132712,0.601691532 L8.30126862,0.601691532 L8.30126862,1.88333553 L9.93591019,1.88333553 L9.93591019,0.601691532 L15.7358517,0.601691532 L15.7358517,1.88333553 L17.3704933,1.88333553 L17.3704933,0.601691532 L23.1704348,0.601691532 L23.1704348,1.88333553 L24.8038948,1.88333553 L24.8038948,0.601691532 L30.6038363,0.601691532 L30.6038363,1.88333553 L32.2384778,1.88333553 L32.2384778,0.601691532 L38.0384193,0.601691532 L38.0384193,1.88333553 L39.6730609,1.88333553 L39.6730609,0.601691532 L45.4730024,0.601691532 L45.4730024,1.88333553 L47.1064624,1.88333553 L47.1064624,0.601691532 L52.9064039,0.601691532 L52.9064039,1.88333553 L54.5410455,1.88333553 L54.5410455,0.601691532 L60.340987,0.601691532 L60.340987,1.88333553 L61.9756286,1.88333553 L61.9756286,0.601691532 L67.7755701,0.601691532 L67.7755701,1.88333553 L69.3789917,1.88333553 L69.3789917,4.40795478 L68.434899,5.74129736 L68.434899,9.57560408 L71.4349635,9.57560408 L71.4349635,11.6358735 L68.434899,18.3398575 L68.434899,20.1450709 L67.6408685,20.1450709 Z" fill="#B7A77C" fill-rule="evenodd"></path>
                            </g>
                        </g>
                        <g id="개선문" transform="translate(0.673877, 0.594313)">
                            <polygon id="Fill-1" fill="#B7A77C" points="2.5108851 10.0592253 67.8352534 10.0592253 67.8352534 5.48658004 2.5108851 5.48658004"></polygon>
                            <polygon id="Fill-2" fill="#B7A77C" points="0 11.3775307 2.5108851 18.0053109 67.8352534 18.0053109 70.835318 11.3775307"></polygon>
                            <polygon id="Fill-3" fill="#7A7967" points="0 11.3774119 70.835318 11.3774119 70.835318 10.0592253 0 10.0592253"></polygon>
                            <polygon id="Fill-4" fill="#7A7967" points="67.834899 5.48705549 2.51053062 5.48705549 1.772035 4.16886895 68.7789917 4.16886895"></polygon>
                            <polygon id="Fill-5" fill="#7A7967" points="2.5108851 19.3233786 67.8352534 19.3233786 67.8352534 18.005192 2.5108851 18.005192"></polygon>
                            <polygon id="Fill-6" fill="#B7A77C" points="3.39707984 32.7370261 24.6019476 32.7370261 24.6019476 19.3233786 3.39707984 19.3233786"></polygon>
                            <polygon id="Fill-7" fill="#B7A77C" points="3.74446818 60.7802859 24.6031292 60.7802859 24.6031292 34.5841514 3.74446818 34.5841514"></polygon>
                            <g id="Group-21" transform="translate(0.000000, 0.160346)">
                                <path d="M20.6120626,57.5809794 L7.38767384,57.5809794 L7.38767384,44.2077452 C7.38767384,40.5337013 10.3475643,37.5561925 13.9998682,37.5561925 C17.6521721,37.5561925 20.6120626,40.5337013 20.6120626,44.2077452 L20.6120626,57.5809794 Z" id="Fill-8" fill="#F8F2D5"></path>
                                <path d="M24.5702809,19.1625574 L24.5702809,32.576205 L26.1642498,32.576205 L26.1642498,30.9252031 C26.1642498,25.9032571 30.2880094,21.832212 35.3759488,21.832212 C40.4650698,21.832212 44.5888293,25.9032571 44.5888293,30.9252031 L44.5888293,32.576205 L46.1827982,32.576205 L46.1827982,19.1625574 L24.5702809,19.1625574 Z" id="Fill-10" fill="#ACA28D"></path>
                                <mask id="mask-6" fill="white">
                                    <use xlink:href="#path-5"></use>
                                </mask>
                                <g id="Clip-13"></g>
                                <polygon id="Fill-12" fill="#7A7967" mask="url(#mask-6)" points="5.59602439 29.9759661 22.403003 29.9759661 22.403003 21.7625585 5.59602439 21.7625585"></polygon>
                                <polygon id="Fill-14" fill="#7A7967" mask="url(#mask-6)" points="1.89527515 34.4238057 26.4511406 34.4238057 26.4511406 32.5766804 1.89527515 32.5766804"></polygon>
                                <polygon id="Fill-15" fill="#C5B385" mask="url(#mask-6)" points="45.8363552 32.5766804 67.0412229 32.5766804 67.0412229 19.1630329 45.8363552 19.1630329"></polygon>
                                <polygon id="Fill-16" fill="#C5B385" mask="url(#mask-6)" points="46.1825619 60.6199402 67.0412229 60.6199402 67.0412229 34.4238057 46.1825619 34.4238057"></polygon>
                                <path d="M63.0509834,57.5809794 L49.8265947,57.5809794 L49.8265947,44.2077452 C49.8265947,40.5337013 52.7864851,37.5561925 56.4387891,37.5561925 C60.091093,37.5561925 63.0509834,40.5337013 63.0509834,44.2077452 L63.0509834,57.5809794 Z" id="Fill-17" fill="#F8F2D5" mask="url(#mask-6)"></path>
                                <polygon id="Fill-18" fill="#7A7967" mask="url(#mask-6)" points="48.0352997 29.9759661 64.8422784 29.9759661 64.8422784 21.7625585 48.0352997 21.7625585"></polygon>
                                <polygon id="Fill-19" fill="#7A7967" mask="url(#mask-6)" points="44.3333689 34.4238057 68.8892344 34.4238057 68.8892344 32.5766804 44.3333689 32.5766804"></polygon>
                                <polygon id="Fill-20" fill="#B7A77C" mask="url(#mask-6)" points="67.1750974 2.29428644 67.1750974 1.02839946 62.5751559 1.02839946 62.5751559 2.29428644 59.7405143 2.29428644 59.7405143 1.02839946 55.1405728 1.02839946 55.1405728 2.29428644 52.3071129 2.29428644 52.3071129 1.02839946 47.7071714 1.02839946 47.7071714 2.29428644 44.8725298 2.29428644 44.8725298 1.02839946 40.2725883 1.02839946 40.2725883 2.29428644 37.4379467 2.29428644 37.4379467 1.02839946 32.8380052 1.02839946 32.8380052 2.29428644 30.0045452 2.29428644 30.0045452 1.02839946 25.4046037 1.02839946 25.4046037 2.29428644 22.5699621 2.29428644 22.5699621 1.02839946 17.9700206 1.02839946 17.9700206 2.29428644 15.1353791 2.29428644 15.1353791 1.02839946 10.5354376 1.02839946 10.5354376 2.29428644 7.70197757 2.29428644 7.70197757 1.02839946 3.10203607 1.02839946 3.10203607 2.29428644 1.77274396 2.29428644 1.77274396 4.00828554 68.7785191 4.00828554 68.7785191 2.29428644"></polygon>
                            </g>
                        </g>
                    </g>
                </g>
            </g>
        </g>
    </g>
</svg>