<svg xmlns="http://www.w3.org/2000/svg" width="132" height="68" viewBox="0 0 132 68">
  <defs>
    <filter id="layer_incline_2_active-a" width="111.3%" height="123%" x="-5.6%" y="-8.2%" filterUnits="objectBoundingBox">
      <feOffset dy="2" in="SourceAlpha" result="shadowOffsetOuter1"/>
      <feGaussianBlur in="shadowOffsetOuter1" result="shadowBlurOuter1" stdDeviation="2"/>
      <feColorMatrix in="shadowBlurOuter1" result="shadowMatrixOuter1" values="0 0 0 0 0   0 0 0 0 0   0 0 0 0 0  0 0 0 0.5 0"/>
      <feMerge>
        <feMergeNode in="shadowMatrixOuter1"/>
        <feMergeNode in="SourceGraphic"/>
      </feMerge>
    </filter>
  </defs>
  <g fill="none" fill-rule="evenodd" filter="url(#layer_incline_2_active-a)" transform="translate(4 2)">
    <rect width="122.524" height="51.341" x=".588" y=".095" fill="#4A90E2" fill-rule="nonzero" rx="4"/>
    <polygon fill="#4A90E2" fill-rule="nonzero" points="24.631 60.435 17.023 50.435 32.239 50.435"/>
    <path fill="#FFF" d="M21.8042936 15.705668L21.1802936 16.615668C19.3992936 16.108668 17.5662936 14.691668 17.0332936 13.404668 16.5782936 14.704668 14.7322936 16.121668 12.8862936 16.602668L12.3012936 15.666668C14.1602936 15.341668 16.4482936 13.716668 16.4482936 11.805668L16.4482936 11.025668 17.6312936 11.025668 17.6312936 11.805668C17.6312936 13.703668 20.0752936 15.367668 21.8042936 15.705668zM22.1682936 20.099668L11.9112936 20.099668 11.9112936 19.163668 16.4352936 19.163668 16.4352936 16.342668 17.5922936 16.342668 17.5922936 19.163668 22.1682936 19.163668 22.1682936 20.099668zM32.144865 13.885668C32.144865 15.653668 30.454865 16.823668 27.906865 16.823668 25.371865 16.823668 23.681865 15.653668 23.681865 13.885668 23.681865 12.117668 25.371865 10.934668 27.906865 10.934668 30.467865 10.934668 32.144865 12.117668 32.144865 13.885668zM30.961865 13.885668C30.961865 12.689668 29.752865 11.883668 27.906865 11.883668 26.073865 11.883668 24.864865 12.689668 24.864865 13.885668 24.864865 15.068668 26.073865 15.874668 27.906865 15.874668 29.739865 15.874668 30.961865 15.068668 30.961865 13.885668zM33.041865 20.099668L22.784865 20.099668 22.784865 19.163668 25.241865 19.163668 25.241865 17.148668 26.398865 17.109668 26.398865 19.163668 29.401865 19.163668 29.401865 17.109668 30.545865 17.148668 30.545865 19.163668 33.041865 19.163668 33.041865 20.099668zM43.0574364 21.542668L41.9134364 21.542668 41.9134364 10.180668 43.0574364 10.180668 43.0574364 21.542668zM40.5614364 17.954668L39.8724364 18.812668C38.8584364 18.110668 37.5454364 16.758668 37.1294364 15.432668 36.7264364 16.823668 35.6084364 18.266668 34.3214364 19.111668L33.6064364 18.266668C35.3094364 17.187668 36.5184364 15.211668 36.5184364 13.118668L36.5184364 11.181668 37.7144364 11.181668 37.7144364 13.066668C37.7144364 15.198668 38.9884364 17.044668 40.5614364 17.954668zM55.0100078 14.600668L53.3070078 14.600668 53.3070078 18.552668 52.1500078 18.552668 52.1500078 10.180668 53.3070078 10.180668 53.3070078 13.638668 55.0100078 13.638668 55.0100078 14.600668zM53.6450078 21.243668L46.1310078 21.243668 46.1310078 17.681668 47.2750078 17.681668 47.2750078 20.307668 53.6450078 20.307668 53.6450078 21.243668zM44.9740078 11.103668L50.1220078 11.103668C50.0310078 14.197668 47.9510078 16.433668 44.9740078 17.304668L44.3890078 16.368668C46.7420078 15.796668 48.5490078 14.041668 48.8610078 12.052668L44.9740078 12.052668 44.9740078 11.103668zM77.024579 20.086668L77.024579 19.410668 79.026579 17.330668C80.261579 16.043668 81.119579 15.055668 81.119579 13.833668 81.119579 12.702668 80.573579 12.156668 79.351579 12.156668 78.623579 12.156668 77.921579 12.507668 77.414579 12.845668L77.141579 11.961668C77.687579 11.597668 78.584579 11.181668 79.572579 11.181668 81.366579 11.181668 82.328579 12.156668 82.328579 13.716668 82.328579 15.250668 81.327579 16.368668 79.897579 17.811668L78.597579 19.124668 82.497579 19.124668 82.497579 20.086668 77.024579 20.086668zM86.5591504 20.255668C84.6351504 20.255668 83.4521504 19.293668 83.4521504 17.863668 83.4521504 16.719668 84.4141504 15.926668 85.3761504 15.549668 84.4531504 15.172668 83.7121504 14.522668 83.7121504 13.404668 83.7121504 12.117668 84.8041504 11.181668 86.5201504 11.181668 88.1971504 11.181668 89.3281504 11.974668 89.3281504 13.339668 89.3281504 14.392668 88.4831504 15.016668 87.5861504 15.471668 88.6521504 15.822668 89.6661504 16.446668 89.6661504 17.746668 89.6661504 19.163668 88.4831504 20.255668 86.5591504 20.255668zM86.5331504 19.332668C87.6511504 19.332668 88.4571504 18.721668 88.4571504 17.863668 88.4571504 16.823668 87.7551504 16.420668 86.2861504 15.965668 85.4411504 16.251668 84.5961504 16.875668 84.5961504 17.798668 84.5961504 18.734668 85.3891504 19.332668 86.5331504 19.332668zM86.7411504 15.055668C87.5211504 14.717668 88.1581504 14.197668 88.1581504 13.391668 88.1581504 12.650668 87.5991504 12.104668 86.5461504 12.104668 85.5451504 12.104668 84.9211504 12.572668 84.9211504 13.378668 84.9211504 14.249668 85.5841504 14.769668 86.7411504 15.055668zM99.4217218 14.938668L91.7257218 14.938668 91.7257218 10.544668 92.8827218 10.544668 92.8827218 11.883668 98.2777218 11.883668 98.2777218 10.531668 99.4217218 10.531668 99.4217218 14.938668zM96.1977218 19.137668L95.0537218 19.137668 95.0537218 17.044668 90.4517218 17.044668 90.4517218 16.108668 100.708722 16.108668 100.708722 17.044668 96.1977218 17.044668 96.1977218 19.137668zM99.5127218 21.204668L91.7257218 21.204668 91.7257218 18.084668 92.8827218 18.084668 92.8827218 20.268668 99.5127218 20.268668 99.5127218 21.204668zM98.2777218 14.002668L98.2777218 12.793668 92.8827218 12.793668 92.8827218 14.002668 98.2777218 14.002668zM22.6482936 34.380668L22.1282936 35.303668C20.4382936 35.056668 18.6442936 34.133668 18.0332936 33.067668 17.5132936 34.146668 15.7842936 35.082668 13.9512936 35.342668L13.4312936 34.419668C15.1992936 34.211668 17.0582936 33.392668 17.4092936 32.118668L13.9382936 32.118668 13.9382936 31.182668 22.1282936 31.182668 22.1282936 32.118668 18.6832936 32.118668C19.0472936 33.379668 20.9582936 34.211668 22.6482936 34.380668zM18.5922936 40.542668L17.4352936 40.542668 17.4352936 36.993668 12.9112936 36.993668 12.9112936 36.044668 23.1682936 36.044668 23.1682936 36.993668 18.5922936 36.993668 18.5922936 40.542668zM19.8792936 30.259668L16.1872936 30.259668 16.1872936 29.323668 19.8792936 29.323668 19.8792936 30.259668zM30.440865 35.355668L29.855865 36.278668C28.893865 35.992668 27.645865 35.030668 27.164865 34.016668 26.813865 35.030668 25.617865 36.174668 24.369865 36.603668L23.732865 35.693668C25.240865 35.225668 26.501865 33.951668 26.566865 32.456668L24.031865 32.456668 24.031865 31.520668 30.232865 31.520668 30.232865 32.456668 27.749865 32.456668C27.814865 33.951668 29.140865 35.030668 30.440865 35.355668zM33.105865 29.180668L33.105865 37.474668 31.948865 37.474668 31.948865 34.016668 29.998865 34.016668 29.998865 33.080668 31.948865 33.080668 31.948865 29.180668 33.105865 29.180668zM33.352865 40.191668L25.734865 40.191668 25.734865 36.759668 26.878865 36.759668 26.878865 39.268668 33.352865 39.268668 33.352865 40.191668zM28.724865 30.532668L25.578865 30.532668 25.578865 29.596668 28.724865 29.596668 28.724865 30.532668zM41.6524364 36.980668L40.9764364 37.838668C39.8844364 37.201668 38.5454364 35.771668 38.1814364 34.510668 37.8564364 35.849668 36.6864364 37.305668 35.3344364 38.098668L34.6064364 37.266668C36.3354364 36.252668 37.5834364 34.393668 37.5834364 32.170668L37.5834364 31.260668 35.0094364 31.260668 35.0094364 30.324668 41.3144364 30.324668 41.3144364 31.260668 38.7664364 31.260668 38.7664364 32.170668C38.7664364 34.367668 40.0404364 36.109668 41.6524364 36.980668zM42.8744364 29.180668L44.0314364 29.180668 44.0314364 40.542668 42.8744364 40.542668 42.8744364 29.180668zM48.5350078 29.791668C50.1210078 29.791668 51.4210078 30.909668 51.4210078 32.508668 51.4210078 34.107668 50.1340078 35.160668 48.5350078 35.160668 46.9620078 35.160668 45.6620078 34.120668 45.6620078 32.508668 45.6620078 30.922668 46.9490078 29.791668 48.5350078 29.791668zM48.5350078 30.753668C47.5080078 30.753668 46.7930078 31.520668 46.7930078 32.495668 46.7930078 33.509668 47.5210078 34.237668 48.5350078 34.237668 49.5880078 34.237668 50.2770078 33.509668 50.2770078 32.508668 50.2770078 31.520668 49.6140078 30.753668 48.5350078 30.753668zM51.7720078 31.624668L51.7590078 30.675668 53.6960078 30.675668 53.6960078 29.180668 54.8530078 29.180668 54.8530078 35.797668 53.6960078 35.797668 53.6960078 34.289668 51.7590078 34.289668 51.7720078 33.327668 53.6960078 33.327668 53.6960078 31.624668 51.7720078 31.624668zM47.1310078 36.395668L54.8530078 36.395668 54.8530078 40.555668 53.6960078 40.555668 53.6960078 37.318668 47.1310078 37.318668 47.1310078 36.395668zM84.1972936 39.086668L84.1972936 38.410668 86.1992936 36.330668C87.4342936 35.043668 88.2922936 34.055668 88.2922936 32.833668 88.2922936 31.702668 87.7462936 31.156668 86.5242936 31.156668 85.7962936 31.156668 85.0942936 31.507668 84.5872936 31.845668L84.3142936 30.961668C84.8602936 30.597668 85.7572936 30.181668 86.7452936 30.181668 88.5392936 30.181668 89.5012936 31.156668 89.5012936 32.716668 89.5012936 34.250668 88.5002936 35.368668 87.0702936 36.811668L85.7702936 38.124668 89.6702936 38.124668 89.6702936 39.086668 84.1972936 39.086668zM100.725865 35.381668L90.468865 35.381668 90.468865 34.432668 94.563865 34.432668 94.563865 32.300668 95.720865 32.300668 95.720865 34.432668 100.725865 34.432668 100.725865 35.381668zM99.867865 39.645668L99.308865 40.568668C97.670865 40.321668 95.980865 39.164668 95.447865 38.124668 94.966865 39.190668 93.185865 40.308668 91.625865 40.542668L91.040865 39.619668C93.094865 39.502668 94.888865 38.007668 94.888865 36.668668L94.888865 36.226668 96.058865 36.226668 96.058865 36.668668C96.058865 37.981668 97.956865 39.489668 99.867865 39.645668zM99.386865 29.687668C99.386865 30.116668 99.386865 30.519668 99.373865 30.896668 99.347865 31.936668 99.230865 33.015668 99.035865 33.730668 98.671865 33.678668 98.294865 33.626668 97.930865 33.587668 98.190865 32.586668 98.216865 31.611668 98.216865 30.610668L91.690865 30.610668 91.690865 29.687668 99.386865 29.687668zM111.302548 31.3729023C111.256974 31.3729023 111.21303 31.3647644 111.170712 31.3484883 111.128394 31.3322122 111.090959 31.3077983 111.058407 31.2752461 110.993302 31.2101416 110.960751 31.1320174 110.960751 31.0408711 110.960751 30.9497248 110.993302 30.8716006 111.058407 30.8064961L115.521298 26.3436055 111.126766 21.9588398C111.061662 21.8937354 111.02911 21.8139835 111.02911 21.719582 111.02911 21.6251805 111.061662 21.5454287 111.126766 21.4803242 111.191871 21.4152197 111.271623 21.382668 111.366024 21.382668 111.460426 21.382668 111.540177 21.4152197 111.605282 21.4803242L116.224423 26.1092305C116.289527 26.174335 116.322079 26.2524592 116.322079 26.3436055 116.322079 26.4347518 116.289527 26.512876 116.224423 26.5779805L111.536923 31.2752461C111.50437 31.3077983 111.466936 31.3322122 111.424618 31.3484883 111.3823 31.3647644 111.34161 31.3729023 111.302548 31.3729023z"/>
  </g>
</svg>
