<svg xmlns="http://www.w3.org/2000/svg" width="114" height="66" viewBox="0 0 114 66">
  <defs>
    <filter id="layer_incline_1-a" width="113.2%" height="124.1%" x="-6.6%" y="-8.6%" filterUnits="objectBoundingBox">
      <feOffset dy="2" in="SourceAlpha" result="shadowOffsetOuter1"/>
      <feGaussianBlur in="shadowOffsetOuter1" result="shadowBlurOuter1" stdDeviation="2"/>
      <feColorMatrix in="shadowBlurOuter1" result="shadowMatrixOuter1" values="0 0 0 0 0   0 0 0 0 0   0 0 0 0 0  0 0 0 0.5 0"/>
      <feMerge>
        <feMergeNode in="shadowMatrixOuter1"/>
        <feMergeNode in="SourceGraphic"/>
      </feMerge>
    </filter>
  </defs>
  <g fill="none" fill-rule="evenodd" filter="url(#layer_incline_1-a)" transform="translate(4 2)">
    <polygon fill="#FFF" fill-rule="nonzero" points="81.608 58 74 48 89.216 48"/>
    <rect width="105.272" height="48.483" fill="#FFF" fill-rule="nonzero" rx="4"/>
    <path fill="#ED744A" d="M18.334 38.165C18.334 39.517 16.943 40.362 14.46 40.362 12.016 40.362 10.599 39.517 10.599 38.165 10.599 36.813 12.016 35.955 14.46 35.955 16.943 35.955 18.334 36.813 18.334 38.165zM14.46 36.891C12.796 36.891 11.795 37.372 11.795 38.165 11.795 38.958 12.796 39.426 14.46 39.426 16.176 39.426 17.164 38.958 17.164 38.165 17.164 37.372 16.176 36.891 14.46 36.891zM14.746 34.343L14.746 33.42 17.112 33.42 17.112 32.042 14.876 32.042 14.876 31.119 17.112 31.119 17.112 29 18.269 29 18.269 36.033 17.112 36.033 17.112 34.343 14.746 34.343zM14.733 29.871C14.577 32.822 12.653 34.889 9.663 35.916L9 34.98C11.223 34.408 13.095 32.77 13.459 30.82L9.559 30.82 9.559 29.871 14.733 29.871zM30.3645714 34.473L28.5965714 34.473 28.5965714 40.362 27.4525714 40.362 27.4525714 29 28.5965714 29 28.5965714 33.524 30.3645714 33.524 30.3645714 34.473zM26.5165714 36.735L25.8275714 37.593C24.8135714 36.93 23.4875714 35.513 23.0585714 34.2 22.6685714 35.578 21.5375714 37.021 20.2505714 37.879L19.5355714 37.021C21.2515714 35.942 22.4605714 33.966 22.4605714 31.873L22.4605714 29.975 23.6435714 29.975 23.6435714 31.821C23.6435714 33.953 24.9175714 35.747 26.5165714 36.735zM40.9521428 38.919L30.6951428 38.919 30.6951428 37.983 35.2191428 37.983 35.2191428 36.189 31.9301428 36.189 31.9301428 32.536 38.5341428 32.536 38.5341428 30.872 31.9041428 30.872 31.9041428 29.936 39.6781428 29.936 39.6781428 33.472 33.0741428 33.472 33.0741428 35.253 39.9901428 35.253 39.9901428 36.189 36.3761428 36.189 36.3761428 37.983 40.9521428 37.983 40.9521428 38.919zM63.187714 38.906L63.187714 38.23 65.189714 36.15C66.424714 34.863 67.282714 33.875 67.282714 32.653 67.282714 31.522 66.736714 30.976 65.514714 30.976 64.786714 30.976 64.084714 31.327 63.577714 31.665L63.304714 30.781C63.850714 30.417 64.747714 30.001 65.735714 30.001 67.529714 30.001 68.491714 30.976 68.491714 32.536 68.491714 34.07 67.490714 35.188 66.060714 36.631L64.760714 37.944 68.660714 37.944 68.660714 38.906 63.187714 38.906zM79.7162854 35.201L69.4592854 35.201 69.4592854 34.252 73.5542854 34.252 73.5542854 32.12 74.7112854 32.12 74.7112854 34.252 79.7162854 34.252 79.7162854 35.201zM78.8582854 39.465L78.2992854 40.388C76.6612854 40.141 74.9712854 38.984 74.4382854 37.944 73.9572854 39.01 72.1762854 40.128 70.6162854 40.362L70.0312854 39.439C72.0852854 39.322 73.8792854 37.827 73.8792854 36.488L73.8792854 36.046 75.0492854 36.046 75.0492854 36.488C75.0492854 37.801 76.9472854 39.309 78.8582854 39.465zM78.3772854 29.507C78.3772854 29.936 78.3772854 30.339 78.3642854 30.716 78.3382854 31.756 78.2212854 32.835 78.0262854 33.55 77.6622854 33.498 77.2852854 33.446 76.9212854 33.407 77.1812854 32.406 77.2072854 31.431 77.2072854 30.43L70.6812854 30.43 70.6812854 29.507 78.3772854 29.507zM18.893 14.525L18.269 15.435C16.488 14.928 14.655 13.511 14.122 12.224 13.667 13.524 11.821 14.941 9.975 15.422L9.39 14.486C11.249 14.161 13.537 12.536 13.537 10.625L13.537 9.845 14.72 9.845 14.72 10.625C14.72 12.523 17.164 14.187 18.893 14.525zM19.257 18.919L9 18.919 9 17.983 13.524 17.983 13.524 15.162 14.681 15.162 14.681 17.983 19.257 17.983 19.257 18.919zM29.2335714 12.705C29.2335714 14.473 27.5435714 15.643 24.9955714 15.643 22.4605714 15.643 20.7705714 14.473 20.7705714 12.705 20.7705714 10.937 22.4605714 9.754 24.9955714 9.754 27.5565714 9.754 29.2335714 10.937 29.2335714 12.705zM28.0505714 12.705C28.0505714 11.509 26.8415714 10.703 24.9955714 10.703 23.1625714 10.703 21.9535714 11.509 21.9535714 12.705 21.9535714 13.888 23.1625714 14.694 24.9955714 14.694 26.8285714 14.694 28.0505714 13.888 28.0505714 12.705zM30.1305714 18.919L19.8735714 18.919 19.8735714 17.983 22.3305714 17.983 22.3305714 15.968 23.4875714 15.929 23.4875714 17.983 26.4905714 17.983 26.4905714 15.929 27.6345714 15.968 27.6345714 17.983 30.1305714 17.983 30.1305714 18.919zM40.1461428 20.362L39.0021428 20.362 39.0021428 9 40.1461428 9 40.1461428 20.362zM37.6501428 16.774L36.9611428 17.632C35.9471428 16.93 34.6341428 15.578 34.2181428 14.252 33.8151428 15.643 32.6971428 17.086 31.4101428 17.931L30.6951428 17.086C32.3981428 16.007 33.6071428 14.031 33.6071428 11.938L33.6071428 10.001 34.8031428 10.001 34.8031428 11.886C34.8031428 14.018 36.0771428 15.864 37.6501428 16.774zM52.0987142 13.42L50.3957142 13.42 50.3957142 17.372 49.2387142 17.372 49.2387142 9 50.3957142 9 50.3957142 12.458 52.0987142 12.458 52.0987142 13.42zM50.7337142 20.063L43.2197142 20.063 43.2197142 16.501 44.3637142 16.501 44.3637142 19.127 50.7337142 19.127 50.7337142 20.063zM42.0627142 9.923L47.2107142 9.923C47.1197142 13.017 45.0397142 15.253 42.0627142 16.124L41.4777142 15.188C43.8307142 14.616 45.6377142 12.861 45.9497142 10.872L42.0627142 10.872 42.0627142 9.923zM63.3399998 18.958L63.3399998 11.314 61.7539998 11.665 61.7539998 11.002 63.8599998 10.027 64.4839998 10.027 64.4839998 18.958 63.3399998 18.958zM69.3125712 19.062C67.3105712 19.062 66.2575712 17.619 66.2575712 15.149L66.2575712 14.473C66.2575712 11.34 67.6875712 10.014 69.7155712 10.014 70.5995712 10.014 71.4185712 10.313 71.7695712 10.534L71.4835712 11.379C71.1455712 11.184 70.3915712 10.976 69.8325712 10.976 68.3765712 10.976 67.5315712 11.704 67.4145712 14.33 67.8825712 13.862 68.5975712 13.42 69.5465712 13.42 71.0285712 13.42 72.1725712 14.434 72.1725712 16.085 72.1725712 17.762 71.1195712 19.062 69.3125712 19.062zM69.2865712 18.139C70.3785712 18.139 71.0415712 17.424 71.0415712 16.202 71.0415712 14.863 70.3135712 14.356 69.2995712 14.356 68.4935712 14.356 67.7655712 14.915 67.4145712 15.409L67.4145712 15.5C67.4145712 17.099 67.9345712 18.139 69.2865712 18.139zM81.8891426 13.758L74.1931426 13.758 74.1931426 9.364 75.3501426 9.364 75.3501426 10.703 80.7451426 10.703 80.7451426 9.351 81.8891426 9.351 81.8891426 13.758zM78.6651426 17.957L77.5211426 17.957 77.5211426 15.864 72.9191426 15.864 72.9191426 14.928 83.1761426 14.928 83.1761426 15.864 78.6651426 15.864 78.6651426 17.957zM81.9801426 20.024L74.1931426 20.024 74.1931426 16.904 75.3501426 16.904 75.3501426 19.088 81.9801426 19.088 81.9801426 20.024zM80.7451426 12.822L80.7451426 11.613 75.3501426 11.613 75.3501426 12.822 80.7451426 12.822zM91.3417969 28.9902344C91.2962237 28.9902344 91.2522789 28.9820964 91.2099609 28.9658203 91.167643 28.9495442 91.1302085 28.9251304 91.0976562 28.8925781 91.0325518 28.8274736 91 28.7493494 91 28.6582031 91 28.5670568 91.0325518 28.4889326 91.0976562 28.4238281L95.5605469 23.9609375 91.1660156 19.5761719C91.1009111 19.5110674 91.0683594 19.4313156 91.0683594 19.3369141 91.0683594 19.2425125 91.1009111 19.1627607 91.1660156 19.0976562 91.2311201 19.0325518 91.3108719 19 91.4052734 19 91.499675 19 91.5794268 19.0325518 91.6445312 19.0976562L96.2636719 23.7265625C96.3287764 23.791667 96.3613281 23.8697912 96.3613281 23.9609375 96.3613281 24.0520838 96.3287764 24.130208 96.2636719 24.1953125L91.5761719 28.8925781C91.5436196 28.9251304 91.5061851 28.9495442 91.4638672 28.9658203 91.4215493 28.9820964 91.3808596 28.9902344 91.3417969 28.9902344z"/>
  </g>
</svg>
