<svg xmlns="http://www.w3.org/2000/svg" width="114" height="66" viewBox="0 0 114 66">
  <defs>
    <filter id="layer_incline_1_active-a" width="113.2%" height="123.7%" x="-6.6%" y="-8.5%" filterUnits="objectBoundingBox">
      <feOffset dy="2" in="SourceAlpha" result="shadowOffsetOuter1"/>
      <feGaussianBlur in="shadowOffsetOuter1" result="shadowBlurOuter1" stdDeviation="2"/>
      <feColorMatrix in="shadowBlurOuter1" result="shadowMatrixOuter1" values="0 0 0 0 0   0 0 0 0 0   0 0 0 0 0  0 0 0 0.5 0"/>
      <feMerge>
        <feMergeNode in="shadowMatrixOuter1"/>
        <feMergeNode in="SourceGraphic"/>
      </feMerge>
    </filter>
  </defs>
  <g fill="none" fill-rule="evenodd" filter="url(#layer_incline_1_active-a)" transform="translate(4 2)">
    <rect width="105.272" height="48.483" x=".403" y=".911" fill="#ED744A" fill-rule="nonzero" rx="4"/>
    <polygon fill="#ED744A" fill-rule="nonzero" points="81.631 58.394 74.023 48.394 89.239 48.394"/>
    <path fill="#FFF" d="M18.7758092 38.8655399C18.7758092 40.2175399 17.3848092 41.0625399 14.9018092 41.0625399 12.4578092 41.0625399 11.0408092 40.2175399 11.0408092 38.8655399 11.0408092 37.5135399 12.4578092 36.6555399 14.9018092 36.6555399 17.3848092 36.6555399 18.7758092 37.5135399 18.7758092 38.8655399zM14.9018092 37.5915399C13.2378092 37.5915399 12.2368092 38.0725399 12.2368092 38.8655399 12.2368092 39.6585399 13.2378092 40.1265399 14.9018092 40.1265399 16.6178092 40.1265399 17.6058092 39.6585399 17.6058092 38.8655399 17.6058092 38.0725399 16.6178092 37.5915399 14.9018092 37.5915399zM15.1878092 35.0435399L15.1878092 34.1205399 17.5538092 34.1205399 17.5538092 32.7425399 15.3178092 32.7425399 15.3178092 31.8195399 17.5538092 31.8195399 17.5538092 29.7005399 18.7108092 29.7005399 18.7108092 36.7335399 17.5538092 36.7335399 17.5538092 35.0435399 15.1878092 35.0435399zM15.1748092 30.5715399C15.0188092 33.5225399 13.0948092 35.5895399 10.1048092 36.6165399L9.44180924 35.6805399C11.6648092 35.1085399 13.5368092 33.4705399 13.9008092 31.5205399L10.0008092 31.5205399 10.0008092 30.5715399 15.1748092 30.5715399zM30.8063806 35.1735399L29.0383806 35.1735399 29.0383806 41.0625399 27.8943806 41.0625399 27.8943806 29.7005399 29.0383806 29.7005399 29.0383806 34.2245399 30.8063806 34.2245399 30.8063806 35.1735399zM26.9583806 37.4355399L26.2693806 38.2935399C25.2553806 37.6305399 23.9293806 36.2135399 23.5003806 34.9005399 23.1103806 36.2785399 21.9793806 37.7215399 20.6923806 38.5795399L19.9773806 37.7215399C21.6933806 36.6425399 22.9023806 34.6665399 22.9023806 32.5735399L22.9023806 30.6755399 24.0853806 30.6755399 24.0853806 32.5215399C24.0853806 34.6535399 25.3593806 36.4475399 26.9583806 37.4355399zM41.393952 39.6195399L31.136952 39.6195399 31.136952 38.6835399 35.660952 38.6835399 35.660952 36.8895399 32.371952 36.8895399 32.371952 33.2365399 38.975952 33.2365399 38.975952 31.5725399 32.345952 31.5725399 32.345952 30.6365399 40.119952 30.6365399 40.119952 34.1725399 33.515952 34.1725399 33.515952 35.9535399 40.431952 35.9535399 40.431952 36.8895399 36.817952 36.8895399 36.817952 38.6835399 41.393952 38.6835399 41.393952 39.6195399zM63.6295232 39.6065399L63.6295232 38.9305399 65.6315232 36.8505399C66.8665232 35.5635399 67.7245232 34.5755399 67.7245232 33.3535399 67.7245232 32.2225399 67.1785232 31.6765399 65.9565232 31.6765399 65.2285232 31.6765399 64.5265232 32.0275399 64.0195232 32.3655399L63.7465232 31.4815399C64.2925232 31.1175399 65.1895232 30.7015399 66.1775232 30.7015399 67.9715232 30.7015399 68.9335232 31.6765399 68.9335232 33.2365399 68.9335232 34.7705399 67.9325232 35.8885399 66.5025232 37.3315399L65.2025232 38.6445399 69.1025232 38.6445399 69.1025232 39.6065399 63.6295232 39.6065399zM80.1580946 35.9015399L69.9010946 35.9015399 69.9010946 34.9525399 73.9960946 34.9525399 73.9960946 32.8205399 75.1530946 32.8205399 75.1530946 34.9525399 80.1580946 34.9525399 80.1580946 35.9015399zM79.3000946 40.1655399L78.7410946 41.0885399C77.1030946 40.8415399 75.4130946 39.6845399 74.8800946 38.6445399 74.3990946 39.7105399 72.6180946 40.8285399 71.0580946 41.0625399L70.4730946 40.1395399C72.5270946 40.0225399 74.3210946 38.5275399 74.3210946 37.1885399L74.3210946 36.7465399 75.4910946 36.7465399 75.4910946 37.1885399C75.4910946 38.5015399 77.3890946 40.0095399 79.3000946 40.1655399zM78.8190946 30.2075399C78.8190946 30.6365399 78.8190946 31.0395399 78.8060946 31.4165399 78.7800946 32.4565399 78.6630946 33.5355399 78.4680946 34.2505399 78.1040946 34.1985399 77.7270946 34.1465399 77.3630946 34.1075399 77.6230946 33.1065399 77.6490946 32.1315399 77.6490946 31.1305399L71.1230946 31.1305399 71.1230946 30.2075399 78.8190946 30.2075399zM19.2828092 15.2702617L18.6588092 16.1802617C16.8778092 15.6732617 15.0448092 14.2562617 14.5118092 12.9692617 14.0568092 14.2692617 12.2108092 15.6862617 10.3648092 16.1672617L9.77980924 15.2312617C11.6388092 14.9062617 13.9268092 13.2812617 13.9268092 11.3702617L13.9268092 10.5902617 15.1098092 10.5902617 15.1098092 11.3702617C15.1098092 13.2682617 17.5538092 14.9322617 19.2828092 15.2702617zM19.6468092 19.6642617L9.38980924 19.6642617 9.38980924 18.7282617 13.9138092 18.7282617 13.9138092 15.9072617 15.0708092 15.9072617 15.0708092 18.7282617 19.6468092 18.7282617 19.6468092 19.6642617zM29.6233806 13.4502617C29.6233806 15.2182617 27.9333806 16.3882617 25.3853806 16.3882617 22.8503806 16.3882617 21.1603806 15.2182617 21.1603806 13.4502617 21.1603806 11.6822617 22.8503806 10.4992617 25.3853806 10.4992617 27.9463806 10.4992617 29.6233806 11.6822617 29.6233806 13.4502617zM28.4403806 13.4502617C28.4403806 12.2542617 27.2313806 11.4482617 25.3853806 11.4482617 23.5523806 11.4482617 22.3433806 12.2542617 22.3433806 13.4502617 22.3433806 14.6332617 23.5523806 15.4392617 25.3853806 15.4392617 27.2183806 15.4392617 28.4403806 14.6332617 28.4403806 13.4502617zM30.5203806 19.6642617L20.2633806 19.6642617 20.2633806 18.7282617 22.7203806 18.7282617 22.7203806 16.7132617 23.8773806 16.6742617 23.8773806 18.7282617 26.8803806 18.7282617 26.8803806 16.6742617 28.0243806 16.7132617 28.0243806 18.7282617 30.5203806 18.7282617 30.5203806 19.6642617zM40.535952 21.1072617L39.391952 21.1072617 39.391952 9.74526172 40.535952 9.74526172 40.535952 21.1072617zM38.039952 17.5192617L37.350952 18.3772617C36.336952 17.6752617 35.023952 16.3232617 34.607952 14.9972617 34.204952 16.3882617 33.086952 17.8312617 31.799952 18.6762617L31.084952 17.8312617C32.787952 16.7522617 33.996952 14.7762617 33.996952 12.6832617L33.996952 10.7462617 35.192952 10.7462617 35.192952 12.6312617C35.192952 14.7632617 36.466952 16.6092617 38.039952 17.5192617zM52.4885234 14.1652617L50.7855234 14.1652617 50.7855234 18.1172617 49.6285234 18.1172617 49.6285234 9.74526172 50.7855234 9.74526172 50.7855234 13.2032617 52.4885234 13.2032617 52.4885234 14.1652617zM51.1235234 20.8082617L43.6095234 20.8082617 43.6095234 17.2462617 44.7535234 17.2462617 44.7535234 19.8722617 51.1235234 19.8722617 51.1235234 20.8082617zM42.4525234 10.6682617L47.6005234 10.6682617C47.5095234 13.7622617 45.4295234 15.9982617 42.4525234 16.8692617L41.8675234 15.9332617C44.2205234 15.3612617 46.0275234 13.6062617 46.3395234 11.6172617L42.4525234 11.6172617 42.4525234 10.6682617zM63.729809 19.7032617L63.729809 12.0592617 62.143809 12.4102617 62.143809 11.7472617 64.249809 10.7722617 64.873809 10.7722617 64.873809 19.7032617 63.729809 19.7032617zM69.7023804 19.8072617C67.7003804 19.8072617 66.6473804 18.3642617 66.6473804 15.8942617L66.6473804 15.2182617C66.6473804 12.0852617 68.0773804 10.7592617 70.1053804 10.7592617 70.9893804 10.7592617 71.8083804 11.0582617 72.1593804 11.2792617L71.8733804 12.1242617C71.5353804 11.9292617 70.7813804 11.7212617 70.2223804 11.7212617 68.7663804 11.7212617 67.9213804 12.4492617 67.8043804 15.0752617 68.2723804 14.6072617 68.9873804 14.1652617 69.9363804 14.1652617 71.4183804 14.1652617 72.5623804 15.1792617 72.5623804 16.8302617 72.5623804 18.5072617 71.5093804 19.8072617 69.7023804 19.8072617zM69.6763804 18.8842617C70.7683804 18.8842617 71.4313804 18.1692617 71.4313804 16.9472617 71.4313804 15.6082617 70.7033804 15.1012617 69.6893804 15.1012617 68.8833804 15.1012617 68.1553804 15.6602617 67.8043804 16.1542617L67.8043804 16.2452617C67.8043804 17.8442617 68.3243804 18.8842617 69.6763804 18.8842617zM82.2789518 14.5032617L74.5829518 14.5032617 74.5829518 10.1092617 75.7399518 10.1092617 75.7399518 11.4482617 81.1349518 11.4482617 81.1349518 10.0962617 82.2789518 10.0962617 82.2789518 14.5032617zM79.0549518 18.7022617L77.9109518 18.7022617 77.9109518 16.6092617 73.3089518 16.6092617 73.3089518 15.6732617 83.5659518 15.6732617 83.5659518 16.6092617 79.0549518 16.6092617 79.0549518 18.7022617zM82.3699518 20.7692617L74.5829518 20.7692617 74.5829518 17.6492617 75.7399518 17.6492617 75.7399518 19.8332617 82.3699518 19.8332617 82.3699518 20.7692617zM81.1349518 13.5672617L81.1349518 12.3582617 75.7399518 12.3582617 75.7399518 13.5672617 81.1349518 13.5672617zM91.895321 29.8927743C91.8497478 29.8927743 91.8058029 29.8846363 91.763485 29.8683602 91.7211671 29.8520841 91.6837326 29.8276702 91.6511803 29.795118 91.5860758 29.7300135 91.5535241 29.6518893 91.5535241 29.560743 91.5535241 29.4695967 91.5860758 29.3914725 91.6511803 29.326368L96.114071 24.8634774 91.7195397 20.4787118C91.6544352 20.4136073 91.6218835 20.3338555 91.6218835 20.2394539 91.6218835 20.1450524 91.6544352 20.0653006 91.7195397 20.0001961 91.7846442 19.9350916 91.864396 19.9025399 91.9587975 19.9025399 92.053199 19.9025399 92.1329508 19.9350916 92.1980553 20.0001961L96.817196 24.6291024C96.8823004 24.6942069 96.9148522 24.7723311 96.9148522 24.8634774 96.9148522 24.9546237 96.8823004 25.0327479 96.817196 25.0978524L92.129696 29.795118C92.0971437 29.8276702 92.0597092 29.8520841 92.0173913 29.8683602 91.9750733 29.8846363 91.9343837 29.8927743 91.895321 29.8927743z"/>
  </g>
</svg>
