<?xml version="1.0" encoding="UTF-8"?>
<svg width="58px" height="20px" viewBox="0 0 58 20" version="1.1" xmlns="http://www.w3.org/2000/svg" xmlns:xlink="http://www.w3.org/1999/xlink">
    <!-- Generator: Sketch 51.3 (57544) - http://www.bohemiancoding.com/sketch -->
    <title>에펠탑</title>
    <desc>Created with Sketch.</desc>
    <defs></defs>
    <g id="Page-2" stroke="none" stroke-width="1" fill="none" fill-rule="evenodd">
        <g id="5_상세페이지" transform="translate(-158.000000, -39.000000)" fill="#241E1E">
            <g id="상단-copy">
                <path d="M164.06,43.3429758 C164.06,43.5029758 163.94,43.6829758 163.72,43.9629758 C165.32,44.2629758 166.58,45.3829758 166.94,46.9029758 C167.26,46.9029758 167.58,46.9029758 167.92,46.8829758 C168.2,46.8829758 168.48,46.8629758 168.8,46.8429758 L168.8,42.7429758 C168.58,42.2629758 168.1,41.9029758 167.4,41.6229758 C166.56,41.3429758 167.2,40.9629758 168.04,40.9629758 C168.58,40.9629758 169.3,41.1229758 170.26,41.4229758 C170.62,41.5429758 170.78,41.7429758 170.78,42.0429758 C170.78,42.3029758 170.7,42.6029758 170.7,43.2429758 L170.7,51.5629758 C170.7,52.6629758 170.66,53.7229758 170.56,54.7629758 C170.42,56.4629758 170.02,57.3029758 169.4,57.3029758 C169,57.3029758 168.8,56.3429758 168.8,54.4029758 L168.8,47.8629758 C168.54,47.9229758 168.32,47.9829758 168.2,48.0429758 C167.98,48.1429758 167.82,48.2029758 167.68,48.2029758 C167.54,48.1829758 167.38,48.1429758 167.2,48.0629758 C167.14,48.0429758 167.1,48.0029758 167.06,47.9829758 C166.96,50.1229758 165.08,51.7029758 162.84,51.7029758 C160.52,51.7029758 158.62,50.0429758 158.62,47.7829758 C158.62,45.7029758 160.26,44.1229758 162.34,43.9029758 C162.5,43.7629758 162.56,43.6229758 162.56,43.5229758 C162.56,43.2029758 162.08,43.0629758 162.08,42.9029758 C162.08,42.7229758 162.24,42.6629758 162.56,42.6629758 C162.86,42.6629758 163.26,42.7429758 163.72,42.9429758 C163.96,43.0429758 164.06,43.1829758 164.06,43.3429758 Z M174.28,40.7229758 C174.28,40.9429758 174.18,41.3229758 174.18,41.9629758 L174.18,52.9029758 C174.18,53.9229758 174.14,54.9629758 174.04,56.0029758 C173.9,57.7429758 173.52,58.6029758 172.88,58.6029758 C172.44,58.6029758 172.2,57.6429758 172.2,55.7629758 L172.2,41.3829758 C171.98,40.9229758 171.46,40.5229758 170.66,40.2029758 C170.44,40.1029758 170.32,39.9829758 170.32,39.8429758 C170.32,39.6429758 170.64,39.5429758 171.32,39.5429758 C171.96,39.5429758 172.78,39.7229758 173.76,40.0629758 C174.1,40.2029758 174.28,40.4029758 174.28,40.7229758 Z M160.52,47.6829758 C160.52,49.0829758 161.56,50.0629758 162.86,50.0629758 C164.14,50.0629758 165.2,49.0829758 165.2,47.6829758 C165.2,46.3229758 164.14,45.3029758 162.86,45.3029758 C161.56,45.3029758 160.52,46.3229758 160.52,47.6829758 Z M195.171111,56.7429758 C195.171111,57.2829758 194.831111,57.5829758 194.211111,57.5829758 C191.771111,57.5629758 188.591111,57.5829758 186.011111,57.6429758 C185.371111,57.6629758 184.811111,57.5229758 184.551111,57.2229758 C184.251111,56.9029758 184.171111,56.5229758 184.171111,56.0629758 L184.171111,54.8429758 C183.891111,54.5229758 183.511111,54.3029758 182.991111,54.1629758 C182.751111,54.1029758 182.631111,53.9829758 182.631111,53.7829758 C182.631111,53.5629758 182.811111,53.4629758 183.211111,53.4629758 C184.031111,53.4629758 184.811111,53.5229758 185.471111,53.6229758 C185.491111,53.6229758 185.891111,53.7829758 186.631111,53.7829758 C187.711111,53.7829758 189.731111,53.7429758 191.211111,53.6429758 C191.271111,53.6229758 191.331111,53.5629758 191.391111,53.4629758 C191.451111,52.9829758 191.471111,52.3629758 191.451111,52.1029758 C190.051111,52.0829758 188.191111,52.1029758 187.111111,52.2229758 C186.411111,52.2829758 185.931111,52.3629758 185.691111,52.4829758 C185.571111,52.5629758 185.431111,52.6029758 185.311111,52.6029758 C185.131111,52.6029758 184.991111,52.5829758 184.871111,52.5229758 C184.231111,52.2429758 183.651111,51.8829758 183.131111,51.5029758 C182.971111,51.3629758 182.891111,51.2429758 182.891111,51.1029758 C182.891111,50.9229758 183.051111,50.8629758 183.391111,50.9229758 C184.011111,51.0229758 184.731111,51.0829758 185.531111,51.1029758 C187.171111,51.1429758 189.471111,51.0829758 191.191111,50.9429758 C191.611111,50.9229758 191.811111,50.7429758 192.151111,50.7429758 C192.731111,50.7429758 193.311111,50.8029758 193.891111,50.9429758 C194.131111,50.9829758 194.231111,51.0829758 194.231111,51.2829758 C194.231111,51.4029758 194.131111,51.5829758 193.891111,51.7829758 C193.831111,51.8629758 193.771111,51.9429758 193.751111,52.0029758 C193.631111,52.4629758 193.411111,53.1629758 193.251111,53.5429758 C193.791111,53.7229758 193.931111,53.9629758 193.931111,54.2229758 C193.931111,54.5629758 193.691111,54.7229758 193.231111,54.7229758 C191.471111,54.7229758 188.731111,54.7629758 186.391111,54.8829758 C186.371111,55.0229758 186.351111,55.1629758 186.351111,55.3029758 L186.351111,56.0829758 C186.351111,56.3429758 186.491111,56.4829758 186.751111,56.4829758 C187.851111,56.5229758 189.571111,56.5029758 190.511111,56.4229758 C191.111111,56.3829758 191.591111,56.2629758 192.051111,56.0629758 C192.411111,55.9429758 192.691111,55.8629758 192.891111,55.8629758 C194.411111,55.8629758 195.171111,56.1429758 195.171111,56.7429758 Z M186.451111,45.0229758 C186.411111,45.1429758 186.371111,45.3029758 186.331111,45.5029758 C186.771111,45.5429758 187.171111,45.5429758 187.571111,45.5229758 C187.931111,45.5229758 188.331111,45.5029758 188.771111,45.4629758 L188.771111,42.3629758 C188.531111,41.8829758 188.051111,41.5029758 187.351111,41.2229758 C187.111111,41.1229758 186.991111,41.0029758 186.991111,40.8629758 C186.991111,40.6629758 187.351111,40.5629758 188.011111,40.5629758 C188.531111,40.5629758 189.291111,40.7229758 190.231111,41.0229758 C190.571111,41.1429758 190.731111,41.3429758 190.731111,41.6429758 C190.731111,41.9429758 190.651111,42.1829758 190.651111,42.8429758 L190.651111,46.3229758 C190.651111,46.9029758 190.611111,47.6029758 190.531111,48.3629758 C190.411111,49.6629758 190.011111,50.2829758 189.391111,50.2829758 C188.971111,50.2829758 188.771111,49.7829758 188.771111,48.7829758 L188.771111,46.4629758 C188.631111,46.4829758 188.511111,46.5029758 188.391111,46.5029758 C187.951111,46.5629758 187.631111,46.8229758 187.471111,46.8229758 C187.371111,46.8229758 187.271111,46.7829758 187.111111,46.7229758 C186.831111,46.6029758 186.491111,46.4229758 186.111111,46.1829758 C185.851111,47.0429758 185.591111,47.7629758 185.271111,48.5829758 C186.011111,48.4829758 186.691111,48.3629758 187.291111,48.2229758 C187.391111,48.2029758 187.471111,48.1829758 187.571111,48.1829758 C187.791111,48.1829758 187.911111,48.2829758 187.911111,48.4629758 C187.911111,48.6229758 187.791111,48.7429758 187.571111,48.8229758 C186.611111,49.1829758 185.631111,49.4629758 184.591111,49.7029758 C183.811111,49.9029758 183.011111,50.0429758 182.131111,50.1629758 C181.971111,50.1829758 181.711111,50.2629758 181.391111,50.4029758 C181.071111,50.5429758 180.851111,50.6229758 180.751111,50.6229758 C180.631111,50.6229758 180.511111,50.6029758 180.391111,50.5429758 C179.711111,50.2629758 179.091111,49.9229758 178.511111,49.4829758 C178.311111,49.3429758 178.211111,49.2029758 178.211111,49.0429758 C178.211111,48.8429758 178.391111,48.7629758 178.711111,48.8029758 C179.491111,48.9029758 180.311111,48.9229758 181.171111,48.9029758 C181.991111,48.8829758 183.011111,48.8029758 184.151111,48.7029758 C184.391111,47.4629758 184.491111,46.4829758 184.551111,45.3229758 C184.491111,45.0829758 184.171111,44.8229758 183.571111,44.5029758 C183.391111,44.4229758 183.311111,44.3029758 183.311111,44.1629758 C183.311111,43.9629758 183.551111,43.8829758 184.031111,43.8829758 C184.531111,43.8829758 185.231111,44.0229758 186.131111,44.3429758 C186.451111,44.4429758 186.551111,44.6829758 186.451111,45.0229758 Z M194.111111,45.9229758 C194.111111,46.6629758 194.071111,47.4029758 194.011111,48.1029758 C193.851111,49.5429758 193.451111,50.2829758 192.791111,50.2829758 C192.351111,50.2829758 192.111111,49.7029758 192.111111,48.5829758 L192.111111,41.3829758 C191.891111,40.9429758 191.371111,40.5429758 190.571111,40.2229758 C190.351111,40.1229758 190.231111,40.0029758 190.231111,39.8429758 C190.231111,39.6629758 190.551111,39.5629758 191.231111,39.5629758 C191.871111,39.5629758 192.691111,39.7429758 193.671111,40.0829758 C194.031111,40.2229758 194.211111,40.4429758 194.211111,40.7429758 C194.211111,40.9629758 194.111111,41.3229758 194.111111,41.9629758 L194.111111,45.9229758 Z M187.631111,42.6829758 C187.631111,43.2229758 187.311111,43.4629758 186.731111,43.4429758 C186.031111,43.4029758 185.371111,43.3829758 184.691111,43.4029758 C183.871111,43.4229758 182.611111,43.4629758 181.831111,43.5429758 C181.651111,43.5629758 181.391111,43.6229758 181.071111,43.7429758 C180.751111,43.8429758 180.551111,43.9029758 180.491111,43.9029758 C180.391111,43.9029758 180.251111,43.8629758 180.111111,43.8029758 C179.551111,43.5229758 179.091111,43.2429758 178.651111,42.9229758 C178.471111,42.7829758 178.371111,42.6629758 178.371111,42.5229758 C178.371111,42.3229758 178.531111,42.2429758 178.851111,42.3029758 C179.471111,42.3829758 180.171111,42.4229758 180.911111,42.4429758 C181.851111,42.4629758 183.111111,42.4429758 183.791111,42.3829758 C184.351111,42.3229758 184.751111,42.2629758 184.971111,42.1629758 C185.371111,41.9629758 185.671111,41.8629758 185.851111,41.8629758 C186.191111,41.8629758 186.591111,41.9229758 186.991111,42.0229758 C187.431111,42.1229758 187.631111,42.3429758 187.631111,42.6829758 Z M182.411111,46.9829758 C182.411111,47.2829758 182.111111,47.7829758 181.871111,48.1029758 C181.691111,48.3229758 181.511111,48.4429758 181.291111,48.4429758 C181.011111,48.4429758 180.851111,48.2629758 180.831111,47.9229758 C180.791111,47.4429758 180.731111,46.9429758 180.631111,46.4229758 C180.571111,46.1629758 180.471111,45.7829758 180.331111,45.2629758 C180.271111,45.0029758 180.231111,44.8229758 180.231111,44.7429758 C180.231111,44.5629758 180.351111,44.4429758 180.571111,44.4429758 C180.711111,44.4429758 180.891111,44.5629758 181.091111,44.7629758 C181.751111,45.4829758 182.411111,46.3229758 182.411111,46.9829758 Z M207.602222,45.5829758 C207.602222,46.1029758 207.282222,46.3629758 206.622222,46.3829758 C205.302222,46.4229758 203.622222,46.4829758 201.782222,46.5629758 L201.782222,48.1629758 C201.762222,48.4229758 201.902222,48.5429758 202.162222,48.5429758 C203.682222,48.5429758 205.242222,48.4829758 206.582222,48.3229758 C207.862222,48.1629758 209.022222,48.0029758 210.142222,47.8029758 L210.142222,41.4229758 C209.902222,40.9629758 209.382222,40.5629758 208.542222,40.2029758 C208.322222,40.1029758 208.202222,39.9829758 208.202222,39.8429758 C208.202222,39.6429758 208.522222,39.5429758 209.202222,39.5429758 C209.882222,39.5429758 210.722222,39.7229758 211.682222,40.0829758 C212.042222,40.2229758 212.242222,40.4429758 212.242222,40.7229758 C212.242222,40.9629758 212.142222,41.6229758 212.142222,41.8829758 L212.142222,45.4429758 C212.282222,45.4229758 212.422222,45.4229758 212.562222,45.4029758 C212.762222,45.3829758 212.902222,45.3229758 212.982222,45.2429758 C213.222222,45.0429758 213.462222,44.9229758 213.702222,44.8629758 C214.302222,44.7429758 214.822222,44.7629758 215.362222,44.9429758 C215.702222,45.0429758 215.862222,45.2829758 215.862222,45.6029758 C215.862222,46.1229758 215.562222,46.3829758 214.962222,46.4029758 C214.642222,46.4029758 213.722222,46.4229758 212.142222,46.4629758 C212.122222,46.9829758 212.062222,47.4629758 212.022222,47.9229758 C211.842222,49.3629758 211.442222,50.0829758 210.782222,50.0829758 C210.402222,50.0829758 210.182222,49.6229758 210.142222,48.6629758 C209.162222,48.9629758 208.042222,49.2229758 206.742222,49.5029758 C205.102222,49.8029758 203.322222,50.0429758 201.642222,50.2229758 C201.222222,50.2629758 200.902222,50.2629758 200.662222,50.1829758 C200.122222,50.0229758 199.662222,49.2629758 199.702222,48.3629758 L199.702222,43.4029758 C199.502222,43.0629758 199.062222,42.8029758 198.342222,42.6029758 C198.042222,42.5229758 197.882222,42.4229758 197.882222,42.2829758 C197.882222,42.0429758 198.342222,41.8229758 198.722222,41.8229758 C199.462222,41.8229758 200.182222,41.8829758 200.842222,42.0029758 C201.102222,42.0629758 201.342222,42.1429758 201.522222,42.2229758 C202.402222,42.2429758 203.382222,42.2229758 204.142222,42.1429758 C204.502222,42.0829758 204.842222,41.9829758 205.162222,41.8229758 C205.402222,41.6829758 205.602222,41.6029758 205.762222,41.5829758 C206.242222,41.5229758 206.682222,41.5229758 207.122222,41.5829758 C207.642222,41.6829758 207.902222,41.9229758 207.902222,42.3229758 C207.902222,42.8229758 207.562222,43.1029758 206.862222,43.1429758 C205.122222,43.1829758 203.342222,43.2429758 201.822222,43.3229758 C201.782222,43.5029758 201.782222,43.7029758 201.782222,43.8829758 L201.782222,45.5229758 C202.502222,45.5229758 203.222222,45.4829758 203.802222,45.4229758 C204.082222,45.4029758 204.402222,45.3029758 204.762222,45.1229758 C205.162222,44.9629758 205.402222,44.8829758 205.542222,44.8629758 C205.982222,44.8229758 206.402222,44.8229758 206.782222,44.8829758 C207.342222,44.9629758 207.602222,45.1829758 207.602222,45.5829758 Z M205.242219,52.0806104 C205.242222,52.0811039 205.242222,52.0818934 205.242222,52.0829758 C205.242222,52.0821867 205.242221,52.0813982 205.242219,52.0806104 Z M205.242219,52.0806104 C205.242163,52.0719865 205.24114,52.1537998 205.222222,52.3429758 C205.222222,52.4029758 205.222222,52.5029758 205.182222,52.6629758 L205.162222,53.2629758 L210.062222,53.2029758 L210.062222,51.9429758 C209.822222,51.6029758 209.382222,51.2829758 208.662222,51.0229758 C208.462222,50.9429758 208.362222,50.8429758 208.362222,50.7029758 C208.362222,50.5029758 208.822222,50.3429758 209.062222,50.3429758 C209.322222,50.3429758 209.762222,50.4029758 210.462222,50.5229758 C211.142222,50.6629758 211.622222,50.7629758 211.842222,50.8429758 C212.082222,50.9029758 212.202222,51.0629758 212.202222,51.3229758 C212.202222,51.5629758 212.102222,52.2029758 212.102222,52.4429758 L212.042222,55.5629758 C212.042222,56.1029758 211.982222,56.6229758 211.862222,57.1029758 C211.682222,57.9229758 211.322222,58.3229758 210.762222,58.3229758 C210.382222,58.3229758 210.142222,57.9829758 210.082222,57.3029758 L205.042222,57.3629758 C204.862222,58.0829758 204.502222,58.4229758 203.902222,58.4229758 C203.482222,58.4229758 203.242222,57.8429758 203.222222,56.6629758 L203.102222,52.8029758 C202.962222,52.4629758 202.482222,52.1829758 201.662222,51.9229758 C201.442222,51.8629758 201.322222,51.7429758 201.322222,51.6029758 C201.322222,51.4429758 201.702222,51.2629758 202.002222,51.2629758 C203.062222,51.2629758 203.942222,51.3229758 204.662222,51.4429758 C205.021433,51.5028443 205.241257,51.7220121 205.242219,52.0806104 Z M210.062222,56.1629758 L210.062222,54.3829758 L205.162222,54.4429758 L205.122222,56.2229758 L210.062222,56.1629758 Z" id="에펠탑"></path>
            </g>
        </g>
    </g>
</svg>