<?xml version="1.0" encoding="UTF-8"?>
<svg width="95px" height="20px" viewBox="0 0 95 20" version="1.1" xmlns="http://www.w3.org/2000/svg" xmlns:xlink="http://www.w3.org/1999/xlink">
    <!-- Generator: Sketch 51.3 (57544) - http://www.bohemiancoding.com/sketch -->
    <title>여행지선택</title>
    <desc>Created with Sketch.</desc>
    <defs></defs>
    <g id="Page-2" stroke="none" stroke-width="1" fill="none" fill-rule="evenodd">
        <g id="4_대표나라선택" transform="translate(-139.000000, -38.000000)" fill="#241E1E">
            <g id="상단" transform="translate(0.000000, -1.000000)">
                <path d="M144.8,43.1029758 C144.8,43.2629758 144.68,43.4429758 144.46,43.7029758 C146.62,44.0429758 148.2,45.6829758 148.2,47.7829758 C148.2,48.3029758 148.1,48.7829758 147.94,49.2229758 C148.32,49.2429758 148.8,49.2429758 149.38,49.2429758 C150.04,49.2429758 150.78,49.2029758 151.62,49.1229758 L151.62,45.4629758 C151.16,45.4829758 150.78,45.5229758 150.54,45.5629758 C150.04,45.6429758 149.72,45.8829758 149.54,45.8829758 C149.38,45.8829758 149.2,45.8429758 149.02,45.7629758 C148.58,45.5829758 148.1,45.3429758 147.66,45.0229758 C147.52,44.9229758 147.44,44.8029758 147.44,44.7029758 C147.44,44.5229758 147.6,44.4429758 147.9,44.4829758 C148.34,44.5229758 148.94,44.5429758 149.74,44.5429758 C150.3,44.5429758 150.92,44.5229758 151.62,44.4429758 L151.62,41.4229758 C151.4,40.9629758 150.84,40.5629758 150,40.2029758 C149.78,40.1029758 149.66,39.9829758 149.66,39.8429758 C149.66,39.6429758 149.98,39.5429758 150.66,39.5429758 C151.38,39.5429758 152.2,39.7229758 153.16,40.0829758 C153.54,40.2229758 153.72,40.4429758 153.72,40.7229758 C153.72,40.9629758 153.62,41.6229758 153.62,41.8829758 L153.62,52.9429758 C153.62,56.7229758 153.16,58.6029758 152.26,58.6029758 C151.84,58.6029758 151.62,57.6429758 151.62,55.7429758 L151.62,50.1429758 C151,50.1629758 150.52,50.2029758 150.2,50.2629758 C149.94,50.3029758 149.76,50.3629758 149.62,50.4429758 C149.42,50.5429758 149.28,50.5829758 149.2,50.5829758 C149.06,50.5829758 148.9,50.5429758 148.72,50.4629758 C148.34,50.3229758 147.96,50.1429758 147.58,49.9229758 C146.8,51.1629758 145.32,51.9429758 143.6,51.9429758 C141.02,51.9429758 139,50.1829758 139,47.7829758 C139,45.5629758 140.76,43.8629758 143.1,43.6429758 C143.24,43.5229758 143.3,43.3829758 143.3,43.2829758 C143.3,42.9629758 142.82,42.8229758 142.82,42.6629758 C142.82,42.4829758 142.98,42.4229758 143.3,42.4229758 C143.6,42.4229758 144,42.5029758 144.46,42.7029758 C144.7,42.8029758 144.8,42.9429758 144.8,43.1029758 Z M140.98,47.6829758 C140.98,49.2029758 142.12,50.3029758 143.62,50.3029758 C145.12,50.3029758 146.28,49.2029758 146.28,47.6829758 C146.28,46.1829758 145.12,45.0629758 143.62,45.0629758 C142.12,45.0629758 140.98,46.1829758 140.98,47.6829758 Z M167.191111,48.2629758 C167.191111,50.1429758 165.251111,51.1429758 163.491111,51.1429758 C161.711111,51.1429758 159.791111,50.1629758 159.791111,48.2629758 C159.791111,46.5629758 161.371111,45.6229758 162.971111,45.4629758 C163.031111,45.3829758 163.071111,45.3029758 163.071111,45.2229758 C163.071111,45.1229758 163.011111,45.0229758 162.891111,44.9229758 C162.371111,44.9429758 161.931111,44.9629758 161.611111,44.9829758 C161.271111,45.0229758 160.971111,45.1029758 160.651111,45.2429758 C160.471111,45.3229758 160.351111,45.3629758 160.251111,45.3629758 C160.111111,45.3629758 159.971111,45.3229758 159.811111,45.2629758 C159.191111,44.9629758 158.691111,44.6629758 158.331111,44.3429758 C158.151111,44.2029758 158.051111,44.0429758 158.051111,43.9029758 C158.051111,43.7429758 158.211111,43.6829758 158.511111,43.7229758 C159.231111,43.8229758 159.911111,43.8629758 160.571111,43.8829758 C161.851111,43.9029758 163.211111,43.8629758 164.231111,43.8029758 C164.751111,43.7629758 165.131111,43.6829758 165.411111,43.5829758 C165.791111,43.4029758 166.111111,43.3029758 166.371111,43.3029758 C166.751111,43.3029758 167.091111,43.3429758 167.451111,43.4429758 C167.871111,43.5429758 168.091111,43.7629758 168.091111,44.1229758 C168.091111,44.6629758 167.791111,44.9029758 167.151111,44.8829758 C166.491111,44.8629758 165.831111,44.8429758 165.231111,44.8629758 C164.891111,44.8629758 164.591111,44.8629758 164.271111,44.8829758 C164.371111,44.9629758 164.431111,45.0429758 164.431111,45.1029758 C164.431111,45.2229758 164.371111,45.3429758 164.271111,45.5029758 C165.771111,45.7429758 167.191111,46.6829758 167.191111,48.2629758 Z M165.031111,54.9029758 C165.031111,53.2429758 166.591111,51.8229758 168.971111,51.7229758 C169.011111,51.6629758 169.031111,51.6029758 169.031111,51.5229758 C169.031111,51.3029758 168.571111,51.1029758 168.571111,50.8629758 C168.571111,50.7229758 168.731111,50.6429758 169.071111,50.6429758 C169.411111,50.6429758 169.791111,50.7429758 170.211111,50.9229758 C170.411111,51.0229758 170.531111,51.1629758 170.531111,51.3429758 C170.531111,51.4629758 170.451111,51.6229758 170.291111,51.8229758 C172.211111,52.1629758 173.451111,53.4429758 173.451111,54.9029758 C173.451111,56.7429758 171.751111,58.2629758 169.231111,58.2629758 C166.711111,58.2629758 165.031111,56.7429758 165.031111,54.9029758 Z M174.091111,47.6429758 C174.091111,48.4029758 174.051111,49.1429758 173.991111,49.8429758 C173.831111,51.2829758 173.451111,52.0029758 172.791111,52.0029758 C172.351111,52.0029758 172.111111,51.4429758 172.111111,50.3229758 L172.111111,46.9629758 L170.391111,47.0029758 C170.371111,47.4229758 170.331111,47.8829758 170.291111,48.3629758 C170.151111,49.6429758 169.771111,50.2829758 169.131111,50.2829758 C168.731111,50.2829758 168.531111,49.7629758 168.531111,48.7629758 L168.531111,42.4829758 C168.291111,41.9829758 167.811111,41.6029758 167.091111,41.3229758 C166.871111,41.2229758 166.751111,41.1029758 166.751111,40.9629758 C166.751111,40.7629758 167.091111,40.6629758 167.771111,40.6629758 C168.291111,40.6629758 169.011111,40.8229758 169.971111,41.1229758 C170.331111,41.2429758 170.491111,41.4629758 170.491111,41.7429758 C170.491111,42.0429758 170.411111,42.2829758 170.411111,42.9429758 L170.411111,45.8229758 L172.111111,45.7829758 L172.111111,41.3829758 C171.871111,40.9229758 171.371111,40.5229758 170.571111,40.2029758 C170.351111,40.1029758 170.231111,39.9829758 170.231111,39.8229758 C170.231111,39.6429758 170.551111,39.5429758 171.231111,39.5429758 C171.871111,39.5429758 172.691111,39.7229758 173.651111,40.0629758 C174.011111,40.2029758 174.191111,40.4029758 174.191111,40.7229758 C174.191111,40.9429758 174.091111,41.3229758 174.091111,41.9429758 L174.091111,47.6429758 Z M167.091111,54.8829758 C167.091111,55.9029758 168.031111,56.7029758 169.331111,56.7029758 C170.631111,56.7029758 171.591111,55.9029758 171.591111,54.8829758 C171.591111,53.8829758 170.631111,53.0629758 169.331111,53.0629758 C168.011111,53.0629758 167.091111,53.8829758 167.091111,54.8829758 Z M165.391111,48.0629758 C165.391111,47.2229758 164.571111,46.5829758 163.591111,46.5829758 C162.571111,46.5829758 161.751111,47.2229758 161.751111,48.0629758 C161.751111,48.9429758 162.571111,49.5829758 163.591111,49.5829758 C164.571111,49.5829758 165.391111,48.9429758 165.391111,48.0629758 Z M165.651111,42.4229758 C165.651111,42.8829758 165.371111,43.1029758 164.771111,43.1029758 C164.391111,43.1029758 163.791111,43.1229758 162.971111,43.1629758 C162.831111,43.1829758 162.691111,43.1829758 162.511111,43.2029758 C162.331111,43.2229758 162.091111,43.1429758 161.831111,42.9629758 C161.411111,42.6829758 161.011111,42.3429758 160.691111,41.9829758 C160.551111,41.8429758 160.491111,41.7229758 160.491111,41.6029758 C160.491111,41.4429758 160.611111,41.3629758 160.871111,41.3629758 C160.971111,41.3629758 161.091111,41.3829758 161.251111,41.4029758 C162.351111,41.6229758 163.531111,41.7629758 164.791111,41.7829758 C165.371111,41.7829758 165.651111,41.9829758 165.651111,42.4229758 Z M188.582222,43.3229758 C188.582222,43.4629758 188.482222,43.6229758 188.262222,43.8429758 C188.202222,43.9229758 188.122222,44.0229758 188.062222,44.1229758 C187.442222,45.5229758 186.662222,46.8429758 185.702222,48.0629758 L186.742222,49.1029758 C187.082222,49.4629758 187.542222,49.7629758 188.202222,49.9629758 C188.542222,50.1029758 188.762222,50.2829758 188.922222,50.4629758 C189.222222,50.8829758 189.462222,51.3229758 189.622222,51.7829758 C189.682222,51.9629758 189.762222,52.2229758 189.762222,52.4029758 C189.762222,52.8229758 189.462222,53.0229758 189.142222,53.0229758 C188.922222,53.0229758 188.622222,52.8029758 188.282222,52.4629758 L184.922222,49.0429758 C183.282222,50.8829758 181.262222,52.5029758 178.902222,53.8229758 C178.802222,53.8629758 178.722222,53.8829758 178.622222,53.8829758 C178.442222,53.8829758 178.342222,53.7829758 178.342222,53.5829758 C178.342222,53.4829758 178.442222,53.3629758 178.622222,53.2229758 C181.882222,50.6829758 184.382222,47.4829758 185.722222,44.0629758 C184.482222,44.0829758 183.322222,44.1429758 182.662222,44.2229758 C182.282222,44.2629758 181.982222,44.3829758 181.742222,44.5229758 C181.582222,44.6229758 181.462222,44.6629758 181.362222,44.6629758 C181.222222,44.6629758 181.082222,44.6429758 180.942222,44.5829758 C180.482222,44.4029758 179.922222,44.0829758 179.302222,43.6629758 C179.122222,43.5429758 179.022222,43.4229758 179.022222,43.2829758 C179.022222,43.0829758 179.142222,43.0029758 179.402222,43.0429758 C179.942222,43.1029758 180.722222,43.1429758 181.682222,43.1629758 C183.162222,43.1629758 184.642222,43.1229758 185.662222,43.0229758 C185.822222,43.0029758 185.962222,42.9629758 186.102222,42.9029758 C186.322222,42.8029758 186.462222,42.7629758 186.562222,42.7629758 C187.002222,42.7629758 187.502222,42.8229758 188.142222,42.9629758 C188.442222,43.0229758 188.582222,43.1429758 188.582222,43.3229758 Z M193.322222,40.7229758 C193.322222,40.9629758 193.242222,41.6229758 193.242222,41.8829758 L193.242222,52.9429758 C193.242222,56.7229758 192.782222,58.6029758 191.882222,58.6029758 C191.462222,58.6029758 191.242222,57.6429758 191.242222,55.7429758 L191.242222,41.4229758 C191.022222,40.9629758 190.462222,40.5629758 189.622222,40.2029758 C189.402222,40.1029758 189.282222,39.9829758 189.282222,39.8429758 C189.282222,39.6429758 189.602222,39.5429758 190.282222,39.5429758 C191.002222,39.5429758 191.822222,39.7229758 192.782222,40.0829758 C193.162222,40.2229758 193.322222,40.4429758 193.322222,40.7229758 Z M213.353333,49.2229758 C213.353333,50.1029758 213.293333,50.9629758 213.173333,51.8029758 C212.973333,53.0629758 212.613333,53.7029758 212.013333,53.7029758 C211.573333,53.7029758 211.353333,53.0629758 211.353333,51.7829758 L211.353333,46.4229758 C210.873333,46.4429758 210.433333,46.5029758 210.033333,46.5429758 C209.813333,46.6029758 209.213333,46.8829758 209.053333,46.8829758 C208.913333,46.8829758 208.773333,46.8429758 208.593333,46.7829758 C208.133333,46.5829758 207.673333,46.3229758 207.153333,46.0029758 C206.993333,45.9029758 206.913333,45.8029758 206.913333,45.6829758 C206.913333,45.5029758 207.073333,45.4429758 207.413333,45.4629758 C208.033333,45.5029758 208.653333,45.5229758 209.233333,45.5029758 C209.933333,45.5029758 210.653333,45.4629758 211.353333,45.3829758 L211.353333,41.4029758 C211.133333,40.9629758 210.573333,40.5629758 209.733333,40.2029758 C209.513333,40.1029758 209.393333,39.9829758 209.393333,39.8429758 C209.393333,39.6429758 209.713333,39.5429758 210.393333,39.5429758 C211.113333,39.5429758 211.933333,39.7229758 212.893333,40.0829758 C213.273333,40.2229758 213.453333,40.4429758 213.453333,40.7229758 C213.453333,41.0229758 213.373333,41.1229758 213.353333,41.8829758 L213.353333,49.2229758 Z M205.713333,42.6229758 C205.713333,42.7829758 205.673333,42.9029758 205.633333,43.0229758 C205.353333,43.9229758 204.893333,44.8429758 204.313333,45.7429758 L205.793333,47.0629758 C206.173333,47.4229758 206.773333,47.5629758 207.293333,47.7629758 C207.453333,47.8229758 207.553333,47.9029758 207.613333,47.9629758 C207.973333,48.4029758 208.333333,48.9629758 208.533333,49.5229758 C208.613333,49.7629758 208.673333,50.0029758 208.673333,50.1829758 C208.653333,50.5829758 208.473333,50.7829758 208.053333,50.7629758 C207.833333,50.7829758 207.493333,50.5629758 207.133333,50.2029758 L203.633333,46.7229758 C203.373333,47.0629758 203.113333,47.4029758 202.833333,47.7229758 C201.593333,49.1629758 200.033333,50.4629758 198.693333,51.2029758 C198.453333,51.3429758 198.273333,51.3829758 198.153333,51.3829758 C197.973333,51.3629758 197.873333,51.3029758 197.873333,51.1229758 C197.873333,50.9629758 197.993333,50.8229758 198.213333,50.6429758 C199.353333,49.6429758 200.713333,47.9829758 201.573333,46.6229758 C202.173333,45.6629758 202.933333,44.1429758 203.293333,42.9229758 C203.173333,42.6429758 202.773333,42.3429758 202.173333,42.0229758 C201.893333,41.8629758 201.773333,41.7429758 201.773333,41.6029758 C201.773333,41.4229758 201.993333,41.3029758 202.473333,41.3229758 C202.653333,41.3229758 202.793333,41.3429758 202.933333,41.3629758 C203.813333,41.5229758 204.573333,41.7829758 205.313333,42.1029758 C205.573333,42.2229758 205.733333,42.3829758 205.713333,42.6229758 Z M214.613333,56.5229758 C214.613333,57.0629758 214.293333,57.3429758 213.653333,57.3429758 C210.273333,57.3229758 207.713333,57.3229758 205.973333,57.3829758 C205.073333,57.4029758 204.453333,57.2429758 204.133333,56.8829758 C203.933333,56.6229758 203.813333,56.1629758 203.813333,55.5829758 L203.793333,53.2829758 C203.633333,53.0629758 203.073333,52.8429758 202.113333,52.6229758 C201.873333,52.5629758 201.753333,52.4629758 201.753333,52.2629758 C201.753333,52.0429758 202.333333,51.8429758 202.673333,51.8429758 C203.893333,51.8429758 204.773333,51.9029758 205.353333,52.0029758 C205.773333,52.0629758 205.933333,52.3429758 205.873333,52.8229758 C205.853333,53.0829758 205.833333,53.3229758 205.833333,53.5429758 L205.833333,55.7629758 C205.833333,56.0829758 205.993333,56.2629758 206.333333,56.2829758 C207.453333,56.3029758 208.493333,56.3029758 209.453333,56.2429758 C210.293333,56.1829758 210.933333,56.0629758 211.313333,55.8829758 C211.693333,55.7229758 212.013333,55.6429758 212.213333,55.6429758 C213.533333,55.5829758 214.613333,55.6629758 214.613333,56.5229758 Z M230.044444,47.4829758 C230.044444,48.0829758 230.004444,48.7829758 229.924444,49.5429758 C229.784444,50.8429758 229.404444,51.4629758 228.764444,51.4629758 C228.364444,51.4629758 228.164444,50.9629758 228.164444,49.9629758 L228.164444,49.3429758 C227.164444,49.6429758 226.004444,49.9229758 225.024444,50.1429758 C223.884444,50.3829758 222.664444,50.6229758 221.564444,50.7629758 C221.184444,50.8029758 220.884444,50.8029758 220.644444,50.7229758 C220.384444,50.6629758 220.124444,50.4429758 219.924444,50.0629758 C219.744444,49.7629758 219.684444,49.4029758 219.684444,48.9229758 L219.664444,43.7429758 C219.484444,43.4429758 219.084444,43.2029758 218.484444,42.9829758 C218.184444,42.8829758 218.024444,42.7829758 218.024444,42.6629758 C218.024444,42.4429758 218.484444,42.2229758 218.864444,42.2229758 C219.584444,42.2229758 220.184444,42.2629758 220.704444,42.3629758 C221.004444,42.4229758 221.224444,42.4829758 221.384444,42.5629758 C221.944444,42.5829758 222.664444,42.5829758 223.064444,42.5629758 C223.424444,42.5229758 223.744444,42.4229758 224.004444,42.2629758 C224.224444,42.1229758 224.444444,42.0629758 224.624444,42.0429758 C225.044444,41.9629758 225.464444,41.9629758 225.724444,42.0429758 C226.244444,42.1429758 226.504444,42.3629758 226.504444,42.7429758 C226.504444,43.2629758 226.164444,43.5229758 225.464444,43.5429758 C223.864444,43.6029758 222.364444,43.6429758 221.684444,43.6829758 C221.664444,43.8629758 221.664444,44.0429758 221.664444,44.2429758 L221.664444,45.9229758 L222.564444,45.8629758 C223.404444,45.7829758 223.884444,45.3829758 224.184444,45.3629758 C224.624444,45.3429758 225.204444,45.3429758 225.544444,45.3829758 C226.024444,45.4429758 226.264444,45.6629758 226.264444,46.0429758 C226.264444,46.5029758 226.004444,46.7429758 225.444444,46.7629758 C224.404444,46.8029758 223.024444,46.8429758 221.664444,46.9029758 L221.664444,48.7629758 C221.644444,49.0229758 221.764444,49.1429758 222.024444,49.1429758 C222.984444,49.1429758 224.024444,49.0829758 224.884444,48.9829758 C226.024444,48.8429758 227.224444,48.6829758 228.164444,48.4829758 L228.164444,42.4229758 C227.924444,41.9429758 227.444444,41.5829758 226.724444,41.2829758 C226.504444,41.1829758 226.384444,41.0629758 226.384444,40.9229758 C226.384444,40.7229758 226.724444,40.6229758 227.404444,40.6229758 C227.924444,40.6229758 228.644444,40.7829758 229.604444,41.0829758 C229.964444,41.2029758 230.124444,41.4029758 230.124444,41.7029758 C230.124444,42.0029758 230.044444,42.2429758 230.044444,42.9029758 L230.044444,45.4029758 L231.844444,45.3629758 L231.844444,41.3829758 C231.604444,40.9229758 231.104444,40.5229758 230.304444,40.2029758 C230.084444,40.1029758 229.964444,39.9829758 229.964444,39.8229758 C229.964444,39.6429758 230.284444,39.5429758 230.964444,39.5429758 C231.604444,39.5429758 232.424444,39.7229758 233.404444,40.0629758 C233.744444,40.2029758 233.924444,40.4029758 233.924444,40.7229758 C233.924444,40.9429758 233.824444,41.3229758 233.824444,41.9429758 L233.824444,47.0829758 C233.824444,47.8629758 233.784444,48.5829758 233.724444,49.2829758 C233.584444,50.7229758 233.184444,51.4629758 232.524444,51.4629758 C232.084444,51.4629758 231.844444,50.9029758 231.844444,49.7629758 L231.844444,46.5229758 L230.044444,46.5629758 L230.044444,47.4829758 Z M233.644444,53.1829758 L233.544444,55.0629758 C233.524444,55.6429758 233.464444,56.2229758 233.384444,56.7229758 C233.204444,57.9829758 232.804444,58.6029758 232.224444,58.6029758 C231.764444,58.6029758 231.544444,58.0029758 231.544444,56.7829758 L231.544444,53.3029758 C229.824444,53.3029758 228.304444,53.3629758 226.944444,53.4629758 C226.124444,53.5229758 225.504444,53.6629758 225.124444,53.8629758 C224.884444,53.9629758 224.704444,54.0229758 224.604444,54.0229758 C224.484444,54.0229758 224.364444,54.0029758 224.224444,53.9429758 C223.404444,53.5829758 222.724444,53.2229758 222.204444,52.8429758 C221.984444,52.6629758 221.864444,52.5229758 221.864444,52.4029758 C221.864444,52.2029758 222.024444,52.1429758 222.364444,52.2029758 C223.124444,52.3229758 223.984444,52.3829758 224.984444,52.3829758 C226.844444,52.4029758 228.924444,52.3229758 231.184444,52.1829758 C231.424444,52.1629758 232.004444,51.9829758 232.244444,51.9829758 C232.704444,51.9829758 233.124444,52.0429758 233.484444,52.1429758 C233.764444,52.2429758 233.904444,52.3629758 233.904444,52.5229758 C233.904444,52.6629758 233.824444,52.8829758 233.644444,53.1829758 Z" id="여행지선택"></path>
            </g>
        </g>
    </g>
</svg>