<svg xmlns="http://www.w3.org/2000/svg" width="76" height="20" viewBox="0 0 76 20">
  <path fill="#241E1E" fill-rule="evenodd" d="M162.42,40.7229758 C162.42,40.9629758 162.32,41.6229758 162.32,41.8829758 L162.32,47.6229758 C162.46,47.6229758 162.64,47.6229758 162.74,47.6029758 C162.92,47.5829758 163.06,47.5229758 163.16,47.4429758 C163.34,47.3429758 163.58,47.2229758 163.88,47.0629758 C164.48,46.9429758 165,46.9629758 165.54,47.1629758 C165.88,47.2629758 166.04,47.4829758 166.04,47.8029758 C166.04,48.3429758 165.74,48.6029758 165.14,48.6029758 C164.82,48.6229758 163.9,48.6429758 162.32,48.6829758 L162.32,52.9429758 C162.32,56.7229758 161.86,58.6029758 160.96,58.6029758 C160.54,58.6029758 160.32,57.6429758 160.32,55.7429758 L160.32,51.1829758 C157.44,52.1429758 154.54,52.7229758 152.02,52.9029758 C150.72,53.0029758 150.22,52.6029758 150.06,51.6829758 C150.02,51.4429758 150,51.0229758 150,50.4429758 L149.98,44.5229758 C149.82,44.2629758 149.28,44.0029758 148.36,43.8029758 C148.1,43.7429758 147.98,43.6429758 147.98,43.4629758 C147.98,43.2429758 148.56,43.0429758 148.92,43.0429758 C149.96,43.0429758 150.86,43.1029758 151.6,43.2429758 C152.02,43.3029758 152.2,43.5829758 152.14,44.0629758 C152.1,44.3029758 152.08,44.5429758 152.08,44.7629758 L152.08,50.7629758 C152.06,51.0229758 152.22,51.1629758 152.52,51.1629758 C154.92,51.1629758 157.64,50.8629758 160.32,50.2029758 L160.32,41.4229758 C160.08,40.9629758 159.56,40.5629758 158.72,40.2029758 C158.5,40.1029758 158.38,39.9829758 158.38,39.8429758 C158.38,39.6429758 158.7,39.5429758 159.38,39.5429758 C160.06,39.5429758 160.9,39.7229758 161.86,40.0829758 C162.22,40.2229758 162.42,40.4429758 162.42,40.7229758 Z M182.331111,40.7429758 C182.331111,40.9829758 182.231111,41.6429758 182.231111,41.9029758 L182.231111,47.8429758 C182.371111,47.8429758 182.551111,47.8429758 182.651111,47.8229758 C182.831111,47.8029758 182.971111,47.7429758 183.071111,47.6629758 C183.251111,47.5629758 183.491111,47.4429758 183.791111,47.3029758 C184.391111,47.1629758 184.911111,47.1829758 185.451111,47.3829758 C185.791111,47.4829758 185.951111,47.7029758 185.951111,48.0229758 C185.951111,48.5629758 185.651111,48.8229758 185.051111,48.8229758 C184.751111,48.8429758 183.811111,48.8629758 182.231111,48.9029758 L182.231111,52.9629758 C182.231111,56.7429758 181.771111,58.6229758 180.871111,58.6229758 C180.451111,58.6229758 180.231111,57.6629758 180.231111,55.7629758 L180.231111,52.1629758 C177.371111,53.0229758 174.391111,53.6629758 171.691111,53.8629758 C171.031111,53.9629758 170.551111,53.8029758 170.211111,53.4829758 C169.971111,53.2629758 169.831111,52.9029758 169.791111,52.4229758 C169.791111,52.2229758 169.771111,51.8229758 169.771111,51.2029758 L169.771111,48.3829758 C169.591111,48.1629758 169.191111,47.9229758 168.511111,47.7029758 C168.291111,47.6429758 168.171111,47.5029758 168.171111,47.3629758 C168.171111,47.1829758 168.551111,47.0429758 168.831111,47.0429758 C169.511111,47.0429758 170.251111,47.0829758 170.971111,47.1829758 C171.131111,47.2029758 171.371111,47.3429758 171.931111,47.3429758 C172.731111,47.3429758 173.951111,47.2829758 174.931111,47.1829758 C175.051111,47.1629758 175.131111,47.1029758 175.171111,46.9629758 C175.231111,46.4029758 175.271111,45.0229758 175.251111,43.7029758 C174.511111,43.7029758 173.431111,43.7429758 172.691111,43.8029758 C172.091111,43.8629758 171.631111,43.9629758 171.291111,44.1229758 C171.111111,44.2029758 170.971111,44.2429758 170.891111,44.2429758 C170.751111,44.2429758 170.591111,44.2229758 170.451111,44.1629758 C169.791111,43.8829758 169.211111,43.5429758 168.671111,43.1229758 C168.511111,42.9829758 168.431111,42.8629758 168.431111,42.7629758 C168.431111,42.5829758 168.591111,42.5029758 168.931111,42.5629758 C169.471111,42.6429758 170.191111,42.6829758 171.051111,42.7029758 C172.131111,42.7229758 173.611111,42.6829758 174.831111,42.5829758 C175.191111,42.5629758 175.611111,42.3029758 175.911111,42.3029758 C176.571111,42.3029758 177.151111,42.3829758 177.611111,42.5429758 C177.831111,42.6229758 177.951111,42.7429758 177.951111,42.9029758 C177.951111,43.0429758 177.851111,43.2429758 177.631111,43.4429758 C177.551111,43.5229758 177.511111,43.6029758 177.491111,43.6829758 C177.231111,44.8829758 176.971111,46.2829758 176.751111,47.0629758 C177.291111,47.2029758 177.551111,47.4229758 177.551111,47.7429758 C177.551111,48.0629758 177.311111,48.2429758 176.831111,48.2629758 C175.391111,48.3229758 173.531111,48.4229758 171.911111,48.5229758 C171.891111,48.8029758 171.871111,48.9229758 171.871111,48.9429758 L171.871111,51.6229758 C171.871111,51.8829758 172.031111,52.0229758 172.371111,52.0429758 C174.911111,52.1029758 177.631111,51.8229758 180.231111,51.2629758 L180.231111,41.4629758 C179.991111,40.9829758 179.471111,40.5829758 178.631111,40.2229758 C178.411111,40.1229758 178.291111,40.0029758 178.291111,39.8629758 C178.291111,39.6629758 178.611111,39.5629758 179.291111,39.5629758 C179.971111,39.5629758 180.811111,39.7429758 181.771111,40.1029758 C182.131111,40.2429758 182.331111,40.4629758 182.331111,40.7429758 Z M203.442222,49.2229758 C203.442222,50.1029758 203.382222,50.9629758 203.262222,51.8029758 C203.062222,53.0629758 202.702222,53.7029758 202.102222,53.7029758 C201.662222,53.7029758 201.442222,53.0629758 201.442222,51.7829758 L201.442222,46.4229758 C200.962222,46.4429758 200.522222,46.5029758 200.122222,46.5429758 C199.902222,46.6029758 199.302222,46.8829758 199.142222,46.8829758 C199.002222,46.8829758 198.862222,46.8429758 198.682222,46.7829758 C198.222222,46.5829758 197.762222,46.3229758 197.242222,46.0029758 C197.082222,45.9029758 197.002222,45.8029758 197.002222,45.6829758 C197.002222,45.5029758 197.162222,45.4429758 197.502222,45.4629758 C198.122222,45.5029758 198.742222,45.5229758 199.322222,45.5029758 C200.022222,45.5029758 200.742222,45.4629758 201.442222,45.3829758 L201.442222,41.4029758 C201.222222,40.9629758 200.662222,40.5629758 199.822222,40.2029758 C199.602222,40.1029758 199.482222,39.9829758 199.482222,39.8429758 C199.482222,39.6429758 199.802222,39.5429758 200.482222,39.5429758 C201.202222,39.5429758 202.022222,39.7229758 202.982222,40.0829758 C203.362222,40.2229758 203.542222,40.4429758 203.542222,40.7229758 C203.542222,41.0229758 203.462222,41.1229758 203.442222,41.8829758 L203.442222,49.2229758 Z M195.802222,42.6229758 C195.802222,42.7829758 195.762222,42.9029758 195.722222,43.0229758 C195.442222,43.9229758 194.982222,44.8429758 194.402222,45.7429758 L195.882222,47.0629758 C196.262222,47.4229758 196.862222,47.5629758 197.382222,47.7629758 C197.542222,47.8229758 197.642222,47.9029758 197.702222,47.9629758 C198.062222,48.4029758 198.422222,48.9629758 198.622222,49.5229758 C198.702222,49.7629758 198.762222,50.0029758 198.762222,50.1829758 C198.742222,50.5829758 198.562222,50.7829758 198.142222,50.7629758 C197.922222,50.7829758 197.582222,50.5629758 197.222222,50.2029758 L193.722222,46.7229758 C193.462222,47.0629758 193.202222,47.4029758 192.922222,47.7229758 C191.682222,49.1629758 190.122222,50.4629758 188.782222,51.2029758 C188.542222,51.3429758 188.362222,51.3829758 188.242222,51.3829758 C188.062222,51.3629758 187.962222,51.3029758 187.962222,51.1229758 C187.962222,50.9629758 188.082222,50.8229758 188.302222,50.6429758 C189.442222,49.6429758 190.802222,47.9829758 191.662222,46.6229758 C192.262222,45.6629758 193.022222,44.1429758 193.382222,42.9229758 C193.262222,42.6429758 192.862222,42.3429758 192.262222,42.0229758 C191.982222,41.8629758 191.862222,41.7429758 191.862222,41.6029758 C191.862222,41.4229758 192.082222,41.3029758 192.562222,41.3229758 C192.742222,41.3229758 192.882222,41.3429758 193.022222,41.3629758 C193.902222,41.5229758 194.662222,41.7829758 195.402222,42.1029758 C195.662222,42.2229758 195.822222,42.3829758 195.802222,42.6229758 Z M204.702222,56.5229758 C204.702222,57.0629758 204.382222,57.3429758 203.742222,57.3429758 C200.362222,57.3229758 197.802222,57.3229758 196.062222,57.3829758 C195.162222,57.4029758 194.542222,57.2429758 194.222222,56.8829758 C194.022222,56.6229758 193.902222,56.1629758 193.902222,55.5829758 L193.882222,53.2829758 C193.722222,53.0629758 193.162222,52.8429758 192.202222,52.6229758 C191.962222,52.5629758 191.842222,52.4629758 191.842222,52.2629758 C191.842222,52.0429758 192.422222,51.8429758 192.762222,51.8429758 C193.982222,51.8429758 194.862222,51.9029758 195.442222,52.0029758 C195.862222,52.0629758 196.022222,52.3429758 195.962222,52.8229758 C195.942222,53.0829758 195.922222,53.3229758 195.922222,53.5429758 L195.922222,55.7629758 C195.922222,56.0829758 196.082222,56.2629758 196.422222,56.2829758 C197.542222,56.3029758 198.582222,56.3029758 199.542222,56.2429758 C200.382222,56.1829758 201.022222,56.0629758 201.402222,55.8829758 C201.782222,55.7229758 202.102222,55.6429758 202.302222,55.6429758 C203.622222,55.5829758 204.702222,55.6629758 204.702222,56.5229758 Z M220.133333,47.4829758 C220.133333,48.0829758 220.093333,48.7829758 220.013333,49.5429758 C219.873333,50.8429758 219.493333,51.4629758 218.853333,51.4629758 C218.453333,51.4629758 218.253333,50.9629758 218.253333,49.9629758 L218.253333,49.3429758 C217.253333,49.6429758 216.093333,49.9229758 215.113333,50.1429758 C213.973333,50.3829758 212.753333,50.6229758 211.653333,50.7629758 C211.273333,50.8029758 210.973333,50.8029758 210.733333,50.7229758 C210.473333,50.6629758 210.213333,50.4429758 210.013333,50.0629758 C209.833333,49.7629758 209.773333,49.4029758 209.773333,48.9229758 L209.753333,43.7429758 C209.573333,43.4429758 209.173333,43.2029758 208.573333,42.9829758 C208.273333,42.8829758 208.113333,42.7829758 208.113333,42.6629758 C208.113333,42.4429758 208.573333,42.2229758 208.953333,42.2229758 C209.673333,42.2229758 210.273333,42.2629758 210.793333,42.3629758 C211.093333,42.4229758 211.313333,42.4829758 211.473333,42.5629758 C212.033333,42.5829758 212.753333,42.5829758 213.153333,42.5629758 C213.513333,42.5229758 213.833333,42.4229758 214.093333,42.2629758 C214.313333,42.1229758 214.533333,42.0629758 214.713333,42.0429758 C215.133333,41.9629758 215.553333,41.9629758 215.813333,42.0429758 C216.333333,42.1429758 216.593333,42.3629758 216.593333,42.7429758 C216.593333,43.2629758 216.253333,43.5229758 215.553333,43.5429758 C213.953333,43.6029758 212.453333,43.6429758 211.773333,43.6829758 C211.753333,43.8629758 211.753333,44.0429758 211.753333,44.2429758 L211.753333,45.9229758 L212.653333,45.8629758 C213.493333,45.7829758 213.973333,45.3829758 214.273333,45.3629758 C214.713333,45.3429758 215.293333,45.3429758 215.633333,45.3829758 C216.113333,45.4429758 216.353333,45.6629758 216.353333,46.0429758 C216.353333,46.5029758 216.093333,46.7429758 215.533333,46.7629758 C214.493333,46.8029758 213.113333,46.8429758 211.753333,46.9029758 L211.753333,48.7629758 C211.733333,49.0229758 211.853333,49.1429758 212.113333,49.1429758 C213.073333,49.1429758 214.113333,49.0829758 214.973333,48.9829758 C216.113333,48.8429758 217.313333,48.6829758 218.253333,48.4829758 L218.253333,42.4229758 C218.013333,41.9429758 217.533333,41.5829758 216.813333,41.2829758 C216.593333,41.1829758 216.473333,41.0629758 216.473333,40.9229758 C216.473333,40.7229758 216.813333,40.6229758 217.493333,40.6229758 C218.013333,40.6229758 218.733333,40.7829758 219.693333,41.0829758 C220.053333,41.2029758 220.213333,41.4029758 220.213333,41.7029758 C220.213333,42.0029758 220.133333,42.2429758 220.133333,42.9029758 L220.133333,45.4029758 L221.933333,45.3629758 L221.933333,41.3829758 C221.693333,40.9229758 221.193333,40.5229758 220.393333,40.2029758 C220.173333,40.1029758 220.053333,39.9829758 220.053333,39.8229758 C220.053333,39.6429758 220.373333,39.5429758 221.053333,39.5429758 C221.693333,39.5429758 222.513333,39.7229758 223.493333,40.0629758 C223.833333,40.2029758 224.013333,40.4029758 224.013333,40.7229758 C224.013333,40.9429758 223.913333,41.3229758 223.913333,41.9429758 L223.913333,47.0829758 C223.913333,47.8629758 223.873333,48.5829758 223.813333,49.2829758 C223.673333,50.7229758 223.273333,51.4629758 222.613333,51.4629758 C222.173333,51.4629758 221.933333,50.9029758 221.933333,49.7629758 L221.933333,46.5229758 L220.133333,46.5629758 L220.133333,47.4829758 Z M223.733333,53.1829758 L223.633333,55.0629758 C223.613333,55.6429758 223.553333,56.2229758 223.473333,56.7229758 C223.293333,57.9829758 222.893333,58.6029758 222.313333,58.6029758 C221.853333,58.6029758 221.633333,58.0029758 221.633333,56.7829758 L221.633333,53.3029758 C219.913333,53.3029758 218.393333,53.3629758 217.033333,53.4629758 C216.213333,53.5229758 215.593333,53.6629758 215.213333,53.8629758 C214.973333,53.9629758 214.793333,54.0229758 214.693333,54.0229758 C214.573333,54.0229758 214.453333,54.0029758 214.313333,53.9429758 C213.493333,53.5829758 212.813333,53.2229758 212.293333,52.8429758 C212.073333,52.6629758 211.953333,52.5229758 211.953333,52.4029758 C211.953333,52.2029758 212.113333,52.1429758 212.453333,52.2029758 C213.213333,52.3229758 214.073333,52.3829758 215.073333,52.3829758 C216.933333,52.4029758 219.013333,52.3229758 221.273333,52.1829758 C221.513333,52.1629758 222.093333,51.9829758 222.333333,51.9829758 C222.793333,51.9829758 223.213333,52.0429758 223.573333,52.1429758 C223.853333,52.2429758 223.993333,52.3629758 223.993333,52.5229758 C223.993333,52.6629758 223.913333,52.8829758 223.733333,53.1829758 Z" transform="translate(-148 -39)"/>
</svg>
