<?xml version="1.0" encoding="UTF-8"?>
<svg width="96px" height="20px" viewBox="0 0 96 20" version="1.1" xmlns="http://www.w3.org/2000/svg" xmlns:xlink="http://www.w3.org/1999/xlink">
    <!-- Generator: Sketch 51.3 (57544) - http://www.bohemiancoding.com/sketch -->
    <title>여행스타일</title>
    <desc>Created with Sketch.</desc>
    <defs></defs>
    <g id="Page-2" stroke="none" stroke-width="1" fill="none" fill-rule="evenodd">
        <g id="3_스타일선택" transform="translate(-139.000000, -38.000000)" fill="#241E1E">
            <g id="상단" transform="translate(0.000000, -1.000000)">
                <path d="M144.8,43.1029758 C144.8,43.2629758 144.68,43.4429758 144.46,43.7029758 C146.62,44.0429758 148.2,45.6829758 148.2,47.7829758 C148.2,48.3029758 148.1,48.7829758 147.94,49.2229758 C148.32,49.2429758 148.8,49.2429758 149.38,49.2429758 C150.04,49.2429758 150.78,49.2029758 151.62,49.1229758 L151.62,45.4629758 C151.16,45.4829758 150.78,45.5229758 150.54,45.5629758 C150.04,45.6429758 149.72,45.8829758 149.54,45.8829758 C149.38,45.8829758 149.2,45.8429758 149.02,45.7629758 C148.58,45.5829758 148.1,45.3429758 147.66,45.0229758 C147.52,44.9229758 147.44,44.8029758 147.44,44.7029758 C147.44,44.5229758 147.6,44.4429758 147.9,44.4829758 C148.34,44.5229758 148.94,44.5429758 149.74,44.5429758 C150.3,44.5429758 150.92,44.5229758 151.62,44.4429758 L151.62,41.4229758 C151.4,40.9629758 150.84,40.5629758 150,40.2029758 C149.78,40.1029758 149.66,39.9829758 149.66,39.8429758 C149.66,39.6429758 149.98,39.5429758 150.66,39.5429758 C151.38,39.5429758 152.2,39.7229758 153.16,40.0829758 C153.54,40.2229758 153.72,40.4429758 153.72,40.7229758 C153.72,40.9629758 153.62,41.6229758 153.62,41.8829758 L153.62,52.9429758 C153.62,56.7229758 153.16,58.6029758 152.26,58.6029758 C151.84,58.6029758 151.62,57.6429758 151.62,55.7429758 L151.62,50.1429758 C151,50.1629758 150.52,50.2029758 150.2,50.2629758 C149.94,50.3029758 149.76,50.3629758 149.62,50.4429758 C149.42,50.5429758 149.28,50.5829758 149.2,50.5829758 C149.06,50.5829758 148.9,50.5429758 148.72,50.4629758 C148.34,50.3229758 147.96,50.1429758 147.58,49.9229758 C146.8,51.1629758 145.32,51.9429758 143.6,51.9429758 C141.02,51.9429758 139,50.1829758 139,47.7829758 C139,45.5629758 140.76,43.8629758 143.1,43.6429758 C143.24,43.5229758 143.3,43.3829758 143.3,43.2829758 C143.3,42.9629758 142.82,42.8229758 142.82,42.6629758 C142.82,42.4829758 142.98,42.4229758 143.3,42.4229758 C143.6,42.4229758 144,42.5029758 144.46,42.7029758 C144.7,42.8029758 144.8,42.9429758 144.8,43.1029758 Z M140.98,47.6829758 C140.98,49.2029758 142.12,50.3029758 143.62,50.3029758 C145.12,50.3029758 146.28,49.2029758 146.28,47.6829758 C146.28,46.1829758 145.12,45.0629758 143.62,45.0629758 C142.12,45.0629758 140.98,46.1829758 140.98,47.6829758 Z M167.191111,48.2629758 C167.191111,50.1429758 165.251111,51.1429758 163.491111,51.1429758 C161.711111,51.1429758 159.791111,50.1629758 159.791111,48.2629758 C159.791111,46.5629758 161.371111,45.6229758 162.971111,45.4629758 C163.031111,45.3829758 163.071111,45.3029758 163.071111,45.2229758 C163.071111,45.1229758 163.011111,45.0229758 162.891111,44.9229758 C162.371111,44.9429758 161.931111,44.9629758 161.611111,44.9829758 C161.271111,45.0229758 160.971111,45.1029758 160.651111,45.2429758 C160.471111,45.3229758 160.351111,45.3629758 160.251111,45.3629758 C160.111111,45.3629758 159.971111,45.3229758 159.811111,45.2629758 C159.191111,44.9629758 158.691111,44.6629758 158.331111,44.3429758 C158.151111,44.2029758 158.051111,44.0429758 158.051111,43.9029758 C158.051111,43.7429758 158.211111,43.6829758 158.511111,43.7229758 C159.231111,43.8229758 159.911111,43.8629758 160.571111,43.8829758 C161.851111,43.9029758 163.211111,43.8629758 164.231111,43.8029758 C164.751111,43.7629758 165.131111,43.6829758 165.411111,43.5829758 C165.791111,43.4029758 166.111111,43.3029758 166.371111,43.3029758 C166.751111,43.3029758 167.091111,43.3429758 167.451111,43.4429758 C167.871111,43.5429758 168.091111,43.7629758 168.091111,44.1229758 C168.091111,44.6629758 167.791111,44.9029758 167.151111,44.8829758 C166.491111,44.8629758 165.831111,44.8429758 165.231111,44.8629758 C164.891111,44.8629758 164.591111,44.8629758 164.271111,44.8829758 C164.371111,44.9629758 164.431111,45.0429758 164.431111,45.1029758 C164.431111,45.2229758 164.371111,45.3429758 164.271111,45.5029758 C165.771111,45.7429758 167.191111,46.6829758 167.191111,48.2629758 Z M165.031111,54.9029758 C165.031111,53.2429758 166.591111,51.8229758 168.971111,51.7229758 C169.011111,51.6629758 169.031111,51.6029758 169.031111,51.5229758 C169.031111,51.3029758 168.571111,51.1029758 168.571111,50.8629758 C168.571111,50.7229758 168.731111,50.6429758 169.071111,50.6429758 C169.411111,50.6429758 169.791111,50.7429758 170.211111,50.9229758 C170.411111,51.0229758 170.531111,51.1629758 170.531111,51.3429758 C170.531111,51.4629758 170.451111,51.6229758 170.291111,51.8229758 C172.211111,52.1629758 173.451111,53.4429758 173.451111,54.9029758 C173.451111,56.7429758 171.751111,58.2629758 169.231111,58.2629758 C166.711111,58.2629758 165.031111,56.7429758 165.031111,54.9029758 Z M174.091111,47.6429758 C174.091111,48.4029758 174.051111,49.1429758 173.991111,49.8429758 C173.831111,51.2829758 173.451111,52.0029758 172.791111,52.0029758 C172.351111,52.0029758 172.111111,51.4429758 172.111111,50.3229758 L172.111111,46.9629758 L170.391111,47.0029758 C170.371111,47.4229758 170.331111,47.8829758 170.291111,48.3629758 C170.151111,49.6429758 169.771111,50.2829758 169.131111,50.2829758 C168.731111,50.2829758 168.531111,49.7629758 168.531111,48.7629758 L168.531111,42.4829758 C168.291111,41.9829758 167.811111,41.6029758 167.091111,41.3229758 C166.871111,41.2229758 166.751111,41.1029758 166.751111,40.9629758 C166.751111,40.7629758 167.091111,40.6629758 167.771111,40.6629758 C168.291111,40.6629758 169.011111,40.8229758 169.971111,41.1229758 C170.331111,41.2429758 170.491111,41.4629758 170.491111,41.7429758 C170.491111,42.0429758 170.411111,42.2829758 170.411111,42.9429758 L170.411111,45.8229758 L172.111111,45.7829758 L172.111111,41.3829758 C171.871111,40.9229758 171.371111,40.5229758 170.571111,40.2029758 C170.351111,40.1029758 170.231111,39.9829758 170.231111,39.8229758 C170.231111,39.6429758 170.551111,39.5429758 171.231111,39.5429758 C171.871111,39.5429758 172.691111,39.7229758 173.651111,40.0629758 C174.011111,40.2029758 174.191111,40.4029758 174.191111,40.7229758 C174.191111,40.9429758 174.091111,41.3229758 174.091111,41.9429758 L174.091111,47.6429758 Z M167.091111,54.8829758 C167.091111,55.9029758 168.031111,56.7029758 169.331111,56.7029758 C170.631111,56.7029758 171.591111,55.9029758 171.591111,54.8829758 C171.591111,53.8829758 170.631111,53.0629758 169.331111,53.0629758 C168.011111,53.0629758 167.091111,53.8829758 167.091111,54.8829758 Z M165.391111,48.0629758 C165.391111,47.2229758 164.571111,46.5829758 163.591111,46.5829758 C162.571111,46.5829758 161.751111,47.2229758 161.751111,48.0629758 C161.751111,48.9429758 162.571111,49.5829758 163.591111,49.5829758 C164.571111,49.5829758 165.391111,48.9429758 165.391111,48.0629758 Z M165.651111,42.4229758 C165.651111,42.8829758 165.371111,43.1029758 164.771111,43.1029758 C164.391111,43.1029758 163.791111,43.1229758 162.971111,43.1629758 C162.831111,43.1829758 162.691111,43.1829758 162.511111,43.2029758 C162.331111,43.2229758 162.091111,43.1429758 161.831111,42.9629758 C161.411111,42.6829758 161.011111,42.3429758 160.691111,41.9829758 C160.551111,41.8429758 160.491111,41.7229758 160.491111,41.6029758 C160.491111,41.4429758 160.611111,41.3629758 160.871111,41.3629758 C160.971111,41.3629758 161.091111,41.3829758 161.251111,41.4029758 C162.351111,41.6229758 163.531111,41.7629758 164.791111,41.7829758 C165.371111,41.7829758 165.651111,41.9829758 165.651111,42.4229758 Z M188.702222,42.7429758 C188.702222,42.9229758 188.642222,43.1229758 188.522222,43.3229758 C188.222222,43.8229758 187.882222,44.3429758 187.502222,44.8429758 L189.762222,46.1829758 C190.302222,46.4429758 190.822222,46.6029758 191.322222,46.6829758 C191.802222,46.7029758 192.222222,46.8629758 192.482222,47.0629758 C193.682222,48.1429758 194.302222,48.8629758 194.262222,49.2429758 C194.262222,49.7029758 194.062222,49.9229758 193.642222,49.9229758 C193.422222,49.9229758 193.102222,49.7829758 192.762222,49.5629758 L186.702222,45.8029758 C186.042222,46.5429758 185.322222,47.2229758 184.582222,47.8429758 C183.202222,48.9829758 181.442222,49.9829758 179.782222,50.6829758 C179.542222,50.7829758 179.362222,50.8429758 179.242222,50.8429758 C179.082222,50.8429758 178.962222,50.7429758 178.962222,50.5629758 C178.962222,50.4229758 179.082222,50.3029758 179.282222,50.1629758 C180.482222,49.4429758 181.882222,48.3629758 183.122222,47.1229758 C184.422222,45.8029758 185.542222,44.2429758 186.102222,43.0429758 C186.002222,42.8429758 185.822222,42.6229758 185.522222,42.4229758 C185.262222,42.2429758 184.982222,42.1029758 184.742222,41.9429758 C184.562222,41.8429758 184.482222,41.7229758 184.482222,41.6029758 C184.482222,41.4029758 184.742222,41.2829758 185.262222,41.2829758 C185.602222,41.2829758 186.102222,41.4029758 186.822222,41.6229758 C187.462222,41.8029758 187.942222,42.0029758 188.322222,42.1829758 C188.582222,42.3029758 188.702222,42.5029758 188.702222,42.7429758 Z M195.822222,54.1829758 C195.822222,54.4229758 195.762222,54.6429758 195.642222,54.7829758 C195.502222,54.9629758 195.222222,55.0429758 194.862222,55.0229758 C194.562222,55.0029758 193.882222,54.9829758 192.822222,54.9629758 C189.622222,54.9029758 186.102222,54.9829758 183.042222,55.2029758 C182.082222,55.2829758 181.402222,55.4029758 181.042222,55.6029758 C180.842222,55.7029758 180.662222,55.7429758 180.562222,55.7429758 C180.542222,55.7429758 180.422222,55.7229758 180.182222,55.6829758 C179.562222,55.5829758 178.862222,55.1429758 178.022222,54.4229758 C177.822222,54.2429758 177.722222,54.1029758 177.722222,53.9629758 C177.722222,53.7829758 177.882222,53.7029758 178.222222,53.7629758 C179.062222,53.9029758 179.982222,53.9829758 181.022222,53.9829758 C183.242222,54.0029758 186.642222,53.9229758 190.442222,53.7429758 C191.482222,53.7029758 192.082222,53.6229758 192.282222,53.4829758 C192.642222,53.2829758 192.942222,53.1829758 193.202222,53.1829758 C193.802222,53.1829758 194.442222,53.2629758 195.102222,53.4229758 C195.582222,53.5429758 195.822222,53.8029758 195.822222,54.1829758 Z M212.153333,40.7229758 C212.153333,40.9629758 212.053333,41.6229758 212.053333,41.8829758 L212.053333,47.8429758 C212.193333,47.8429758 212.373333,47.8429758 212.473333,47.8229758 C212.653333,47.8029758 212.793333,47.7429758 212.893333,47.6629758 C213.073333,47.5629758 213.313333,47.4429758 213.613333,47.2829758 C214.193333,47.1629758 214.733333,47.1829758 215.273333,47.3829758 C215.613333,47.4829758 215.773333,47.7029758 215.773333,48.0229758 C215.773333,48.5629758 215.473333,48.8229758 214.873333,48.8229758 C214.553333,48.8429758 213.633333,48.8629758 212.053333,48.9029758 L212.053333,52.9429758 C212.053333,56.7229758 211.593333,58.6029758 210.693333,58.6029758 C210.273333,58.6029758 210.053333,57.6429758 210.053333,55.7429758 L210.053333,51.8229758 C207.133333,52.9029758 204.293333,53.4629758 201.573333,53.6629758 C200.993333,53.7229758 200.513333,53.6429758 200.213333,53.4629758 C199.753333,53.1829758 199.533333,52.4629758 199.533333,51.3029758 L199.533333,44.3429758 C199.393333,44.0029758 198.933333,43.7429758 198.133333,43.5229758 C197.833333,43.4429758 197.653333,43.3229758 197.653333,43.1829758 C197.653333,42.9429758 198.133333,42.7429758 198.513333,42.7429758 C199.233333,42.7429758 199.933333,42.8029758 200.653333,42.9429758 C200.893333,42.9829758 201.133333,43.0629758 201.353333,43.1829758 C202.333333,43.2029758 203.193333,43.1629758 203.893333,43.0629758 C204.713333,42.9629758 205.253333,42.5229758 205.593333,42.5029758 C206.053333,42.4429758 206.513333,42.4629758 207.013333,42.5429758 C207.513333,42.6229758 207.753333,42.8629758 207.753333,43.2629758 C207.753333,43.7629758 207.413333,44.0229758 206.733333,44.0429758 C205.213333,44.0829758 203.513333,44.1829758 201.653333,44.2829758 C201.633333,44.4629758 201.633333,44.6629758 201.633333,44.8429758 L201.633333,47.4429758 C202.273333,47.4429758 202.893333,47.3829758 203.493333,47.3029758 C203.993333,47.2429758 204.353333,47.1229758 204.633333,46.9829758 C204.873333,46.8429758 205.093333,46.7629758 205.273333,46.7429758 C205.753333,46.7029758 206.193333,46.7029758 206.553333,46.7629758 C207.093333,46.8629758 207.353333,47.1029758 207.353333,47.5029758 C207.353333,47.9829758 206.993333,48.2429758 206.273333,48.2629758 C205.313333,48.2829758 203.733333,48.3829758 201.633333,48.5029758 L201.633333,51.5829758 C201.633333,51.7829758 201.813333,51.8829758 202.213333,51.8629758 C204.773333,51.8229758 207.393333,51.5229758 210.053333,50.8829758 L210.053333,41.4229758 C209.813333,40.9629758 209.273333,40.5629758 208.453333,40.2029758 C208.233333,40.1029758 208.113333,39.9829758 208.113333,39.8429758 C208.113333,39.6429758 208.433333,39.5429758 209.113333,39.5429758 C209.793333,39.5429758 210.633333,39.7229758 211.593333,40.0829758 C211.953333,40.2229758 212.153333,40.4429758 212.153333,40.7229758 Z M219.024444,45.5629758 C219.024444,43.5829758 220.664444,42.0629758 222.904444,41.8629758 C223.024444,41.7629758 223.104444,41.6429758 223.104444,41.5629758 C223.104444,41.2229758 222.604444,41.1029758 222.604444,40.9029758 C222.604444,40.7629758 222.704444,40.6629758 223.084444,40.6629758 C223.384444,40.6629758 223.784444,40.7229758 224.244444,40.9229758 C224.484444,41.0429758 224.584444,41.1829758 224.584444,41.3029758 C224.584444,41.4629758 224.464444,41.6629758 224.264444,41.9229758 C226.304444,42.2429758 227.764444,43.6829758 227.764444,45.5629758 C227.764444,47.7029758 225.884444,49.2829758 223.404444,49.2829758 C220.924444,49.2829758 219.024444,47.7229758 219.024444,45.5629758 Z M234.204444,56.7429758 C234.204444,57.2829758 233.864444,57.5829758 233.244444,57.5829758 C230.804444,57.5629758 227.564444,57.5829758 224.984444,57.6429758 C223.864444,57.6829758 223.244444,57.2029758 223.244444,56.1429758 L223.244444,54.6629758 C222.964444,54.3429758 222.584444,54.1229758 222.064444,53.9829758 C221.824444,53.9229758 221.704444,53.8029758 221.704444,53.6029758 C221.704444,53.3829758 221.884444,53.2829758 222.284444,53.2829758 C223.104444,53.2829758 223.884444,53.3429758 224.544444,53.4429758 C224.564444,53.4429758 224.964444,53.6029758 225.704444,53.6029758 C226.784444,53.6029758 228.764444,53.5629758 230.244444,53.4629758 C230.304444,53.4429758 230.364444,53.3829758 230.424444,53.2829758 C230.484444,52.8029758 230.504444,52.0229758 230.484444,51.7629758 C229.084444,51.7429758 227.144444,51.7629758 226.064444,51.8829758 C225.364444,51.9429758 224.884444,52.0229758 224.644444,52.1429758 C224.524444,52.2229758 224.384444,52.2629758 224.264444,52.2629758 C224.084444,52.2629758 223.944444,52.2429758 223.824444,52.1829758 C223.184444,51.9029758 222.604444,51.5429758 222.084444,51.1629758 C221.924444,51.0229758 221.844444,50.9029758 221.844444,50.7629758 C221.844444,50.5829758 222.004444,50.5229758 222.344444,50.5829758 C222.964444,50.6829758 223.684444,50.7429758 224.484444,50.7629758 C226.124444,50.8029758 228.504444,50.7429758 230.224444,50.6029758 C230.644444,50.5829758 230.844444,50.4029758 231.184444,50.4029758 C231.764444,50.4029758 232.344444,50.4629758 232.924444,50.6029758 C233.164444,50.6429758 233.264444,50.7429758 233.264444,50.9429758 C233.264444,51.0629758 233.164444,51.2429758 232.924444,51.4429758 C232.864444,51.5229758 232.804444,51.6029758 232.784444,51.6629758 C232.664444,52.1229758 232.424444,52.9829758 232.284444,53.3629758 C232.824444,53.5429758 232.964444,53.7829758 232.964444,54.0429758 C232.964444,54.3829758 232.724444,54.5429758 232.264444,54.5429758 C230.504444,54.5429758 227.804444,54.5829758 225.464444,54.7029758 C225.444444,54.8429758 225.424444,54.9829758 225.424444,55.1229758 L225.424444,56.0829758 C225.424444,56.3429758 225.564444,56.4829758 225.824444,56.4829758 C226.924444,56.5229758 228.604444,56.5029758 229.544444,56.4229758 C230.144444,56.3829758 230.624444,56.2629758 231.084444,56.0629758 C231.444444,55.9429758 231.724444,55.8629758 231.924444,55.8629758 C233.444444,55.8629758 234.204444,56.1429758 234.204444,56.7429758 Z M233.064444,45.7429758 C233.064444,46.3829758 233.024444,47.0429758 232.964444,47.6229758 C232.784444,49.0829758 232.364444,49.8029758 231.704444,49.8029758 C231.284444,49.8029758 231.064444,49.2029758 231.064444,48.0029758 L231.064444,41.4029758 C230.844444,40.9629758 230.284444,40.5629758 229.444444,40.2029758 C229.224444,40.1029758 229.104444,39.9829758 229.104444,39.8429758 C229.104444,39.6429758 229.424444,39.5429758 230.104444,39.5429758 C230.824444,39.5429758 231.644444,39.7229758 232.604444,40.0829758 C232.984444,40.2229758 233.164444,40.4429758 233.164444,40.7229758 C233.164444,40.9629758 233.064444,41.6229758 233.064444,41.8829758 L233.064444,45.7429758 Z M220.904444,45.5629758 C220.904444,46.9229758 222.024444,47.9029758 223.424444,47.9029758 C224.824444,47.9029758 225.964444,46.9229758 225.964444,45.5629758 C225.964444,44.2429758 224.824444,43.2429758 223.424444,43.2429758 C222.024444,43.2429758 220.904444,44.2429758 220.904444,45.5629758 Z" id="여행스타일"></path>
            </g>
        </g>
    </g>
</svg>