<?xml version="1.0" encoding="UTF-8"?>
<svg width="78px" height="20px" viewBox="0 0 78 20" version="1.1" xmlns="http://www.w3.org/2000/svg" xmlns:xlink="http://www.w3.org/1999/xlink">
    <!-- Generator: Sketch 51.3 (57544) - http://www.bohemiancoding.com/sketch -->
    <title>여행코스</title>
    <desc>Created with Sketch.</desc>
    <defs></defs>
    <g id="Page-1" stroke="none" stroke-width="1" fill="none" fill-rule="evenodd">
        <g id="여행코스_1" transform="translate(-47.000000, -38.000000)" fill="#1D1D1B">
            <g id="상단컨텐츠">
                <path d="M53.5675781,42.202849 C53.5675781,42.362849 53.4475781,42.542849 53.2275781,42.802849 C55.3875781,43.142849 56.9675781,44.782849 56.9675781,46.882849 C56.9675781,47.402849 56.8675781,47.882849 56.7075781,48.322849 C57.0875781,48.342849 57.5675781,48.342849 58.1475781,48.342849 C58.8075781,48.342849 59.5475781,48.302849 60.3875781,48.222849 L60.3875781,44.562849 C59.9275781,44.582849 59.5475781,44.622849 59.3075781,44.662849 C58.8075781,44.742849 58.4875781,44.982849 58.3075781,44.982849 C58.1475781,44.982849 57.9675781,44.942849 57.7875781,44.862849 C57.3475781,44.682849 56.8675781,44.442849 56.4275781,44.122849 C56.2875781,44.022849 56.2075781,43.902849 56.2075781,43.802849 C56.2075781,43.622849 56.3675781,43.542849 56.6675781,43.582849 C57.1075781,43.622849 57.7075781,43.642849 58.5075781,43.642849 C59.0675781,43.642849 59.6875781,43.622849 60.3875781,43.542849 L60.3875781,40.522849 C60.1675781,40.062849 59.6075781,39.662849 58.7675781,39.302849 C58.5475781,39.202849 58.4275781,39.082849 58.4275781,38.942849 C58.4275781,38.742849 58.7475781,38.642849 59.4275781,38.642849 C60.1475781,38.642849 60.9675781,38.822849 61.9275781,39.182849 C62.3075781,39.322849 62.4875781,39.542849 62.4875781,39.822849 C62.4875781,40.062849 62.3875781,40.722849 62.3875781,40.982849 L62.3875781,52.042849 C62.3875781,55.822849 61.9275781,57.702849 61.0275781,57.702849 C60.6075781,57.702849 60.3875781,56.742849 60.3875781,54.842849 L60.3875781,49.242849 C59.7675781,49.262849 59.2875781,49.302849 58.9675781,49.362849 C58.7075781,49.402849 58.5275781,49.462849 58.3875781,49.542849 C58.1875781,49.642849 58.0475781,49.682849 57.9675781,49.682849 C57.8275781,49.682849 57.6675781,49.642849 57.4875781,49.562849 C57.1075781,49.422849 56.7275781,49.242849 56.3475781,49.022849 C55.5675781,50.262849 54.0875781,51.042849 52.3675781,51.042849 C49.7875781,51.042849 47.7675781,49.282849 47.7675781,46.882849 C47.7675781,44.662849 49.5275781,42.962849 51.8675781,42.742849 C52.0075781,42.622849 52.0675781,42.482849 52.0675781,42.382849 C52.0675781,42.062849 51.5875781,41.922849 51.5875781,41.762849 C51.5875781,41.582849 51.7475781,41.522849 52.0675781,41.522849 C52.3675781,41.522849 52.7675781,41.602849 53.2275781,41.802849 C53.4675781,41.902849 53.5675781,42.042849 53.5675781,42.202849 Z M49.7475781,46.782849 C49.7475781,48.302849 50.8875781,49.402849 52.3875781,49.402849 C53.8875781,49.402849 55.0475781,48.302849 55.0475781,46.782849 C55.0475781,45.282849 53.8875781,44.162849 52.3875781,44.162849 C50.8875781,44.162849 49.7475781,45.282849 49.7475781,46.782849 Z M75.9586891,47.362849 C75.9586891,49.242849 74.0186891,50.242849 72.2586891,50.242849 C70.4786891,50.242849 68.5586891,49.262849 68.5586891,47.362849 C68.5586891,45.662849 70.1386891,44.722849 71.7386891,44.562849 C71.7986891,44.482849 71.8386891,44.402849 71.8386891,44.322849 C71.8386891,44.222849 71.7786891,44.122849 71.6586891,44.022849 C71.1386891,44.042849 70.6986891,44.062849 70.3786891,44.082849 C70.0386891,44.122849 69.7386891,44.202849 69.4186891,44.342849 C69.2386891,44.422849 69.1186891,44.462849 69.0186891,44.462849 C68.8786891,44.462849 68.7386891,44.422849 68.5786891,44.362849 C67.9586891,44.062849 67.4586891,43.762849 67.0986891,43.442849 C66.9186891,43.302849 66.8186891,43.142849 66.8186891,43.002849 C66.8186891,42.842849 66.9786891,42.782849 67.2786891,42.822849 C67.9986891,42.922849 68.6786891,42.962849 69.3386891,42.982849 C70.6186891,43.002849 71.9786891,42.962849 72.9986891,42.902849 C73.5186891,42.862849 73.8986891,42.782849 74.1786891,42.682849 C74.5586891,42.502849 74.8786891,42.402849 75.1386891,42.402849 C75.5186891,42.402849 75.8586891,42.442849 76.2186891,42.542849 C76.6386891,42.642849 76.8586891,42.862849 76.8586891,43.222849 C76.8586891,43.762849 76.5586891,44.002849 75.9186891,43.982849 C75.2586891,43.962849 74.5986891,43.942849 73.9986891,43.962849 C73.6586891,43.962849 73.3586891,43.962849 73.0386891,43.982849 C73.1386891,44.062849 73.1986891,44.142849 73.1986891,44.202849 C73.1986891,44.322849 73.1386891,44.442849 73.0386891,44.602849 C74.5386891,44.842849 75.9586891,45.782849 75.9586891,47.362849 Z M73.7986891,54.002849 C73.7986891,52.342849 75.3586891,50.922849 77.7386891,50.822849 C77.7786891,50.762849 77.7986891,50.702849 77.7986891,50.622849 C77.7986891,50.402849 77.3386891,50.202849 77.3386891,49.962849 C77.3386891,49.822849 77.4986891,49.742849 77.8386891,49.742849 C78.1786891,49.742849 78.5586891,49.842849 78.9786891,50.022849 C79.1786891,50.122849 79.2986891,50.262849 79.2986891,50.442849 C79.2986891,50.562849 79.2186891,50.722849 79.0586891,50.922849 C80.9786891,51.262849 82.2186891,52.542849 82.2186891,54.002849 C82.2186891,55.842849 80.5186891,57.362849 77.9986891,57.362849 C75.4786891,57.362849 73.7986891,55.842849 73.7986891,54.002849 Z M82.8586891,46.742849 C82.8586891,47.502849 82.8186891,48.242849 82.7586891,48.942849 C82.5986891,50.382849 82.2186891,51.102849 81.5586891,51.102849 C81.1186891,51.102849 80.8786891,50.542849 80.8786891,49.422849 L80.8786891,46.062849 L79.1586891,46.102849 C79.1386891,46.522849 79.0986891,46.982849 79.0586891,47.462849 C78.9186891,48.742849 78.5386891,49.382849 77.8986891,49.382849 C77.4986891,49.382849 77.2986891,48.862849 77.2986891,47.862849 L77.2986891,41.582849 C77.0586891,41.082849 76.5786891,40.702849 75.8586891,40.422849 C75.6386891,40.322849 75.5186891,40.202849 75.5186891,40.062849 C75.5186891,39.862849 75.8586891,39.762849 76.5386891,39.762849 C77.0586891,39.762849 77.7786891,39.922849 78.7386891,40.222849 C79.0986891,40.342849 79.2586891,40.562849 79.2586891,40.842849 C79.2586891,41.142849 79.1786891,41.382849 79.1786891,42.042849 L79.1786891,44.922849 L80.8786891,44.882849 L80.8786891,40.482849 C80.6386891,40.022849 80.1386891,39.622849 79.3386891,39.302849 C79.1186891,39.202849 78.9986891,39.082849 78.9986891,38.922849 C78.9986891,38.742849 79.3186891,38.642849 79.9986891,38.642849 C80.6386891,38.642849 81.4586891,38.822849 82.4186891,39.162849 C82.7786891,39.302849 82.9586891,39.502849 82.9586891,39.822849 C82.9586891,40.042849 82.8586891,40.422849 82.8586891,41.042849 L82.8586891,46.742849 Z M75.8586891,53.982849 C75.8586891,55.002849 76.7986891,55.802849 78.0986891,55.802849 C79.3986891,55.802849 80.3586891,55.002849 80.3586891,53.982849 C80.3586891,52.982849 79.3986891,52.162849 78.0986891,52.162849 C76.7786891,52.162849 75.8586891,52.982849 75.8586891,53.982849 Z M74.1586891,47.162849 C74.1586891,46.322849 73.3386891,45.682849 72.3586891,45.682849 C71.3386891,45.682849 70.5186891,46.322849 70.5186891,47.162849 C70.5186891,48.042849 71.3386891,48.682849 72.3586891,48.682849 C73.3386891,48.682849 74.1586891,48.042849 74.1586891,47.162849 Z M74.4186891,41.522849 C74.4186891,41.982849 74.1386891,42.202849 73.5386891,42.202849 C73.1586891,42.202849 72.5586891,42.222849 71.7386891,42.262849 C71.5986891,42.282849 71.4586891,42.282849 71.2786891,42.302849 C71.0986891,42.322849 70.8586891,42.242849 70.5986891,42.062849 C70.1786891,41.782849 69.7786891,41.442849 69.4586891,41.082849 C69.3186891,40.942849 69.2586891,40.822849 69.2586891,40.702849 C69.2586891,40.542849 69.3786891,40.462849 69.6386891,40.462849 C69.7386891,40.462849 69.8586891,40.482849 70.0186891,40.502849 C71.1186891,40.722849 72.2986891,40.862849 73.5586891,40.882849 C74.1386891,40.882849 74.4186891,41.082849 74.4186891,41.522849 Z M102.2098,41.502849 C102.2098,41.642849 102.0698,41.862849 101.7898,42.142849 C101.5298,45.122849 101.0298,47.822849 100.2498,50.022849 C100.0098,50.602849 99.7498001,50.882849 99.4098001,50.882849 C99.1498001,50.882849 99.0298001,50.682849 99.0698001,50.282849 C99.2298001,48.822849 99.3298001,47.402849 99.3898001,46.022849 C97.3298001,46.522849 95.1498001,46.882849 92.9498001,47.182849 C92.0698001,47.322849 91.7098001,47.662849 91.4898001,47.662849 C91.3698001,47.662849 91.2498001,47.642849 91.1098001,47.582849 C90.4298001,47.322849 89.6898001,46.962849 88.9098001,46.482849 C88.6698001,46.322849 88.5698001,46.182849 88.5698001,46.002849 C88.5698001,45.822849 88.7698001,45.742849 89.1298001,45.782849 C90.0098001,45.902849 90.9498001,45.942849 91.9498001,45.882849 C94.2898001,45.762849 96.8098001,45.582849 99.4298001,45.122849 C99.4698001,44.122849 99.4698001,43.182849 99.4698001,42.262849 C97.6298001,42.242849 95.7898001,42.282849 94.1898001,42.382849 C93.3498001,42.442849 92.7498001,42.562849 92.3698001,42.782849 C92.2098001,42.862849 92.0498001,42.902849 91.9098001,42.902849 C91.8098001,42.902849 91.6698001,42.862849 91.5098001,42.802849 C90.6898001,42.502849 90.0298001,42.142849 89.4898001,41.762849 C89.2898001,41.622849 89.1898001,41.482849 89.1898001,41.342849 C89.1898001,41.162849 89.3698001,41.062849 89.7298001,41.102849 C90.4698001,41.242849 91.3298001,41.302849 92.3098001,41.302849 C94.5898001,41.322849 96.8898001,41.242849 99.0298001,41.082849 C99.3298001,41.082849 99.8898001,40.842849 100.1498,40.842849 C100.7298,40.842849 101.2498,40.902849 101.7098,41.042849 C102.0498,41.162849 102.2098,41.302849 102.2098,41.502849 Z M104.5898,53.382849 C104.5898,53.582849 104.5298,53.782849 104.4098,53.922849 C104.2698,54.102849 103.9898,54.182849 103.6298,54.162849 C103.3298,54.142849 102.6498,54.122849 101.5898,54.102849 C98.3898001,54.042849 94.8698001,54.122849 91.8098001,54.342849 C90.8498001,54.422849 90.1698001,54.542849 89.8098001,54.742849 C89.6098001,54.842849 89.4298001,54.882849 89.3298001,54.882849 C89.2698001,54.882849 89.1498001,54.862849 88.9498001,54.822849 C88.3098001,54.682849 87.6298001,54.282849 86.7898001,53.642849 C86.5898001,53.462849 86.4898001,53.322849 86.4898001,53.182849 C86.4898001,53.002849 86.6498001,52.922849 86.9898001,52.982849 C87.8298001,53.122849 88.7498001,53.202849 89.7898001,53.202849 C90.9098001,53.222849 92.3498001,53.202849 93.9698001,53.162849 L93.9098001,50.122849 C93.6298001,49.802849 93.1898001,49.522849 92.6298001,49.342849 C92.3898001,49.282849 92.2498001,49.162849 92.2498001,49.022849 C92.2498001,48.842849 92.7298001,48.642849 93.1298001,48.642849 C93.6498001,48.642849 94.4298001,48.742849 95.4498001,48.962849 C95.8098001,49.022849 95.9498001,49.282849 95.8898001,49.762849 C95.8498001,50.022849 95.8298001,50.262849 95.8298001,50.442849 L95.7498001,53.102849 C96.8498001,53.062849 98.0098001,53.022849 99.2098001,52.962849 C100.2498,52.922849 100.8498,52.842849 101.0498,52.722849 C101.4098,52.502849 101.7098,52.402849 101.9698,52.402849 C102.5698,52.402849 103.2098,52.482849 103.8698,52.662849 C104.3498,52.762849 104.5898,53.002849 104.5898,53.382849 Z M117.380911,41.842849 C117.380911,42.022849 117.320911,42.222849 117.200911,42.422849 C116.900911,42.922849 116.560911,43.442849 116.180911,43.942849 L118.440911,45.282849 C118.980911,45.542849 119.500911,45.702849 120.000911,45.782849 C120.480911,45.802849 120.900911,45.962849 121.160911,46.162849 C122.360911,47.242849 122.980911,47.962849 122.940911,48.342849 C122.940911,48.802849 122.740911,49.022849 122.320911,49.022849 C122.100911,49.022849 121.780911,48.882849 121.440911,48.662849 L115.380911,44.902849 C114.720911,45.642849 114.000911,46.322849 113.260911,46.942849 C111.880911,48.082849 110.120911,49.082849 108.460911,49.782849 C108.220911,49.882849 108.040911,49.942849 107.920911,49.942849 C107.760911,49.942849 107.640911,49.842849 107.640911,49.662849 C107.640911,49.522849 107.760911,49.402849 107.960911,49.262849 C109.160911,48.542849 110.560911,47.462849 111.800911,46.222849 C113.100911,44.902849 114.220911,43.342849 114.780911,42.142849 C114.680911,41.942849 114.500911,41.722849 114.200911,41.522849 C113.940911,41.342849 113.660911,41.202849 113.420911,41.042849 C113.240911,40.942849 113.160911,40.822849 113.160911,40.702849 C113.160911,40.502849 113.420911,40.382849 113.940911,40.382849 C114.280911,40.382849 114.780911,40.502849 115.500911,40.722849 C116.140911,40.902849 116.620911,41.102849 117.000911,41.282849 C117.260911,41.402849 117.380911,41.602849 117.380911,41.842849 Z M124.500911,53.282849 C124.500911,53.522849 124.440911,53.742849 124.320911,53.882849 C124.180911,54.062849 123.900911,54.142849 123.540911,54.122849 C123.240911,54.102849 122.560911,54.082849 121.500911,54.062849 C118.300911,54.002849 114.780911,54.082849 111.720911,54.302849 C110.760911,54.382849 110.080911,54.502849 109.720911,54.702849 C109.520911,54.802849 109.340911,54.842849 109.240911,54.842849 C109.220911,54.842849 109.100911,54.822849 108.860911,54.782849 C108.240911,54.682849 107.540911,54.242849 106.700911,53.522849 C106.500911,53.342849 106.400911,53.202849 106.400911,53.062849 C106.400911,52.882849 106.560911,52.802849 106.900911,52.862849 C107.740911,53.002849 108.660911,53.082849 109.700911,53.082849 C111.920911,53.102849 115.320911,53.022849 119.120911,52.842849 C120.160911,52.802849 120.760911,52.722849 120.960911,52.582849 C121.320911,52.382849 121.620911,52.282849 121.880911,52.282849 C122.480911,52.282849 123.120911,52.362849 123.780911,52.522849 C124.260911,52.642849 124.500911,52.902849 124.500911,53.282849 Z" id="여행코스"></path>
            </g>
        </g>
    </g>
</svg>