<svg xmlns="http://www.w3.org/2000/svg" width="600" height="600" viewBox="0 0 600 600">
    <g fill="none" fill-rule="evenodd">
        <path fill="#000" d="M514.548 157.834h-140.07l78.124-92.707L429.437 42s-57.124 71.75-101.214 115.834h-56.409C227.761 113.75 170.6 42 170.6 42l-23.107 23.127 78.103 92.707H85.303C74 157.834 64.81 166.616 64 177.697l1.413 318.817c0 11.873 9.606 21.486 21.472 21.486h427.663c11.829 0 21.452-9.613 21.452-21.486V177.697c-.83-11.08-10.152-19.863-21.452-19.863zm-17.91 284.946H102.724l.017-244.066h393.897V442.78z"/>
    </g>
</svg>
