<svg xmlns="http://www.w3.org/2000/svg" width="600" height="600" viewBox="0 0 600 600">
    <g fill="none" fill-rule="evenodd">
        <path fill="#000" d="M115.126 443.162l24.257-42.658a13.28 13.28 0 0 0 1.756-6.644V258.155c0-89.594 72.423-162.495 161.432-162.495 89.08 0 161.539 72.901 161.539 162.495v135.633c0 2.032.454 4.04 1.338 5.88l21.078 43.494h-371.4zm196.43 63.617c-24.776 0-46.274-14.832-55.993-36.708h111.982c-9.695 21.898-31.135 36.708-55.989 36.708zm208.571-56.04l-29.108-60.033v-132.55c0-104.436-84.527-189.406-188.448-189.406-103.849 0-188.341 84.97-188.341 189.405V390.3l-33.935 59.674a13.46 13.46 0 0 0 .059 13.407 13.44 13.44 0 0 0 11.639 6.691h137.568c10.933 35.946 43.699 61.18 81.995 61.18 38.432 0 71.115-25.177 82.044-61.18h114.411c4.636 0 8.938-2.389 11.399-6.309 2.462-3.919 2.725-8.842.717-13.024z"/>
    </g>
</svg>
