<?xml version="1.0" encoding="UTF-8"?><svg width="437" height="354" viewBox="0 0 437 354" xmlns="http://www.w3.org/2000/svg" xmlns:xlink="http://www.w3.org/1999/xlink"><svg width="53" height="53" viewBox="0 0 53 53" id="button_now" x="365" y="190" xmlns="http://www.w3.org/2000/svg"><defs><rect id="aab" x=".676" y=".561" width="43.203" height="43.203" rx="21.602"/><filter x="-19.7%" y="-15%" width="139.3%" height="139.3%" filterUnits="objectBoundingBox" id="aaa"><feOffset dy="2" in="SourceAlpha" result="shadowOffsetOuter1"/><feGaussianBlur stdDeviation="2.5" in="shadowOffsetOuter1" result="shadowBlurOuter1"/><feColorMatrix values="0 0 0 0 0 0 0 0 0 0 0 0 0 0 0 0 0 0 0.252915534 0" in="shadowBlurOuter1"/></filter></defs><g fill="none" fill-rule="evenodd"><g fill-rule="nonzero" transform="translate(4.92 2.28)"><use fill="#000" filter="url(#aaa)" xlink:href="#aab"/><use fill="#CBCBCB" xlink:href="#aab"/></g><path d="M34.172 17.864L20.11 23.788l6.064 1.846 2.092 6.046 5.906-13.816zm1.46-1.793c.163 0 .269.065.316.193.046.13.023.305-.07.528l-7.173 16.77a.925.925 0 0 1-.246.36.466.466 0 0 1-.299.114.535.535 0 0 1-.29-.097.78.78 0 0 1-.254-.29l-2.286-7.101-6.943-2.162c-.281-.176-.413-.373-.396-.59.018-.216.18-.389.484-.518l16.77-7.119a1.043 1.043 0 0 1 .386-.088z" fill="#FFF"/></g></svg><svg width="53" height="53" viewBox="0 0 53 53" id="button_now_active" x="82" y="266" xmlns="http://www.w3.org/2000/svg"><defs><rect id="abb" x=".676" y=".561" width="43.203" height="43.203" rx="21.602"/><filter x="-19.7%" y="-15%" width="139.3%" height="139.3%" filterUnits="objectBoundingBox" id="aba"><feOffset dy="2" in="SourceAlpha" result="shadowOffsetOuter1"/><feGaussianBlur stdDeviation="2.5" in="shadowOffsetOuter1" result="shadowBlurOuter1"/><feColorMatrix values="0 0 0 0 0 0 0 0 0 0 0 0 0 0 0 0 0 0 0.252915534 0" in="shadowBlurOuter1"/></filter></defs><g fill="none" fill-rule="evenodd"><g fill-rule="nonzero" transform="translate(4.92 2.28)"><use fill="#000" filter="url(#aba)" xlink:href="#abb"/><use fill="#ED744A" xlink:href="#abb"/></g><path d="M34.172 17.864L20.11 23.788l6.064 1.846 2.092 6.046 5.906-13.816zm1.46-1.793c.163 0 .269.065.316.193.046.13.023.305-.07.528l-7.173 16.77a.925.925 0 0 1-.246.36.466.466 0 0 1-.299.114.535.535 0 0 1-.29-.097.78.78 0 0 1-.254-.29l-2.286-7.101-6.943-2.162c-.281-.176-.413-.373-.396-.59.018-.216.18-.389.484-.518l16.77-7.119a1.043 1.043 0 0 1 .386-.088z" fill="#FFF"/></g></svg><svg width="53" height="53" viewBox="0 0 53 53" id="button_rest" x="365" y="243" xmlns="http://www.w3.org/2000/svg"><defs><rect id="acb" x=".676" y=".561" width="43.203" height="43.203" rx="21.602"/><filter x="-19.7%" y="-15%" width="139.3%" height="139.3%" filterUnits="objectBoundingBox" id="aca"><feOffset dy="2" in="SourceAlpha" result="shadowOffsetOuter1"/><feGaussianBlur stdDeviation="2.5" in="shadowOffsetOuter1" result="shadowBlurOuter1"/><feColorMatrix values="0 0 0 0 0 0 0 0 0 0 0 0 0 0 0 0 0 0 0.252915534 0" in="shadowBlurOuter1"/></filter></defs><g fill="none" fill-rule="evenodd"><g fill-rule="nonzero" transform="translate(4.92 2.663)"><use fill="#000" filter="url(#aca)" xlink:href="#acb"/><use fill="#CBCBCB" xlink:href="#acb"/></g><path stroke="#FFF" stroke-width="1.2" d="M19.304 16.324h16.558v8.121H19.304zM19.2 24.476c-.939 1.054-1.459 2.389-1.56 4.024h19.885c-.096-1.637-.598-2.973-1.501-4.028h-.017l-.799.003a3794.386 3794.386 0 0 1-7.838.022c-3.991.006-6.865 0-8.17-.021z"/><path fill="#FFF" fill-rule="nonzero" d="M18.943 18.54h17.28v1.2h-17.28zM18.943 21.444h17.28v1.2h-17.28zM17.023 29.1h1.2v6.72h-1.2zM36.943 29.1h1.2v6.72h-1.2zM21.394 29.1h1.2v4.888h-1.2zM33.072 29.1h1.2v4.888h-1.2z"/></g></svg><svg width="53" height="53" viewBox="0 0 53 53" id="button_rest_active" x="135" y="266" xmlns="http://www.w3.org/2000/svg"><defs><rect id="adb" width="43.203" height="43.203" x=".676" y=".561" rx="21.602"/><filter id="ada" width="139.3%" height="139.3%" x="-19.7%" y="-15%" filterUnits="objectBoundingBox"><feOffset dy="2" in="SourceAlpha" result="shadowOffsetOuter1"/><feGaussianBlur in="shadowOffsetOuter1" result="shadowBlurOuter1" stdDeviation="2.5"/><feColorMatrix in="shadowBlurOuter1" values="0 0 0 0 0 0 0 0 0 0 0 0 0 0 0 0 0 0 0.252915534 0"/></filter></defs><g fill="none" fill-rule="evenodd"><g fill-rule="nonzero" transform="translate(4.23 2.031)"><use fill="#000" filter="url(#ada)" xlink:href="#adb"/><use fill="#ED744A" xlink:href="#adb"/></g><path stroke="#FFF" stroke-width="1.08" d="M17.443 14.376h18.898v9.406H17.443zM17.402 23.957c-1.13 1.248-1.743 2.84-1.837 4.799H38.22c-.09-1.96-.682-3.554-1.77-4.802h-.081l-.9.004a4268.275 4268.275 0 0 1-8.816.024c-4.554.007-7.814 0-9.251-.025z"/><path fill="#FFF" fill-rule="nonzero" d="M17.172 17.004h19.44v1.08h-19.44zM17.172 20.271h19.44v1.08h-19.44zM15.012 28.884h1.08v7.56h-1.08zM37.692 28.884h1.08v7.56h-1.08zM19.929 28.884h1.08v5.499h-1.08zM33.067 28.884h1.08v5.499h-1.08z"/></g></svg><svg width="53" height="53" viewBox="0 0 53 53" id="button_view" x="365" y="84" xmlns="http://www.w3.org/2000/svg"><defs><rect id="aeb" x=".676" y=".561" width="43.203" height="43.203" rx="21.602"/><filter x="-19.7%" y="-15%" width="139.3%" height="139.3%" filterUnits="objectBoundingBox" id="aea"><feOffset dy="2" in="SourceAlpha" result="shadowOffsetOuter1"/><feGaussianBlur stdDeviation="2.5" in="shadowOffsetOuter1" result="shadowBlurOuter1"/><feColorMatrix values="0 0 0 0 0 0 0 0 0 0 0 0 0 0 0 0 0 0 0.252915534 0" in="shadowBlurOuter1"/></filter></defs><g transform="translate(4.783 1.783)" fill="none" fill-rule="evenodd"><g fill-rule="nonzero" transform="translate(.138 .331)"><use fill="#000" filter="url(#aea)" xlink:href="#aeb"/><use fill="#CBCBCB" xlink:href="#aeb"/></g><path d="M14.865 27.962c-3.346.754-5.533 2.002-5.533 3.414 0 2.304 5.823 4.172 13.006 4.172 7.182 0 13.005-1.868 13.005-4.172 0-1.379-2.085-2.601-5.3-3.36" stroke="#FFF" stroke-width="1.2" stroke-linecap="round"/><path d="M18.466 23.89l-2.506 7.421a.168.168 0 0 0 .159.222h12.437a.168.168 0 0 0 .158-.225l-2.653-7.417h-7.595z" stroke="#FFF" stroke-width="1.2"/><circle stroke="#FFF" stroke-width="1.2" fill="#CBCBCB" fill-rule="nonzero" cx="22.338" cy="17.237" r="8.507"/><circle stroke="#FFF" stroke-width="1.2" cx="22.338" cy="18.362" r="4.328"/></g></svg><svg width="53" height="53" viewBox="0 0 53 53" id="button_view_active" x="365" y="137" xmlns="http://www.w3.org/2000/svg"><defs><rect id="afb" width="43.203" height="43.203" x=".676" y=".561" rx="21.602"/><filter id="afa" width="139.3%" height="139.3%" x="-19.7%" y="-15%" filterUnits="objectBoundingBox"><feOffset dy="2" in="SourceAlpha" result="shadowOffsetOuter1"/><feGaussianBlur in="shadowOffsetOuter1" result="shadowBlurOuter1" stdDeviation="2.5"/><feColorMatrix in="shadowBlurOuter1" values="0 0 0 0 0 0 0 0 0 0 0 0 0 0 0 0 0 0 0.252915534 0"/></filter></defs><g fill="none" fill-rule="evenodd" transform="translate(4.783 1.783)"><g fill-rule="nonzero" transform="translate(.138 .331)"><use fill="#000" filter="url(#afa)" xlink:href="#afb"/><use fill="#ED744A" xlink:href="#afb"/></g><path stroke="#FFF" stroke-width="1.2" d="M18.466 23.89l-2.506 7.421a.168.168 0 0 0 .159.222h12.437a.168.168 0 0 0 .158-.225l-2.653-7.417h-7.595z"/><path stroke="#FFF" stroke-linecap="round" stroke-width="1.2" d="M14.865 27.962c-3.346.754-5.533 2.002-5.533 3.414 0 2.304 5.823 4.172 13.006 4.172 7.182 0 13.005-1.868 13.005-4.172 0-1.379-2.085-2.601-5.3-3.36"/><circle cx="22.338" cy="17.237" r="8.507" fill="#ED744A" fill-rule="nonzero" stroke="#FFF" stroke-width="1.2"/><circle cx="22.338" cy="18.362" r="4.328" stroke="#FFF" stroke-width="1.2"/></g></svg><svg width="233" height="90" viewBox="0 0 233 90" id="graph_info" y="90" xmlns="http://www.w3.org/2000/svg"><defs><circle id="agb" cx="15.207" cy="66.942" r="10.355"/><filter x="-9.7%" y="-4.8%" width="119.3%" height="119.3%" filterUnits="objectBoundingBox" id="aga"><feOffset dy="1" in="SourceAlpha" result="shadowOffsetOuter1"/><feGaussianBlur stdDeviation=".5" in="shadowOffsetOuter1" result="shadowBlurOuter1"/><feColorMatrix values="0 0 0 0 0.507307611 0 0 0 0 0.507307611 0 0 0 0 0.507307611 0 0 0 0.5 0" in="shadowBlurOuter1"/></filter><circle id="agd" cx="220.165" cy="77.914" r="10.355"/><filter x="-9.7%" y="-4.8%" width="119.3%" height="119.3%" filterUnits="objectBoundingBox" id="agc"><feOffset dy="1" in="SourceAlpha" result="shadowOffsetOuter1"/><feGaussianBlur stdDeviation=".5" in="shadowOffsetOuter1" result="shadowBlurOuter1"/><feColorMatrix values="0 0 0 0 0.507307611 0 0 0 0 0.507307611 0 0 0 0 0.507307611 0 0 0 0.5 0" in="shadowBlurOuter1"/></filter><text id="agf" font-family="AppleSDGothicNeo-Bold, Apple SD Gothic Neo" font-size="9.8" font-weight="bold" fill="#FFF"><tspan x="12.914" y="70.297">3</tspan></text><filter x="-33.3%" y="-3.2%" width="166.7%" height="112.9%" filterUnits="objectBoundingBox" id="age"><feOffset dy="1" in="SourceAlpha" result="shadowOffsetOuter1"/><feGaussianBlur stdDeviation=".5" in="shadowOffsetOuter1" result="shadowBlurOuter1"/><feColorMatrix values="0 0 0 0 0 0 0 0 0 0 0 0 0 0 0 0 0 0 0.5 0" in="shadowBlurOuter1"/></filter><text id="agh" font-family="AppleSDGothicNeo-Bold, Apple SD Gothic Neo" font-size="9.8" font-weight="bold" fill="#FFF"><tspan x="216.934" y="81.269">4</tspan></text><filter x="-33.3%" y="-3.2%" width="166.7%" height="112.9%" filterUnits="objectBoundingBox" id="agg"><feOffset dy="1" in="SourceAlpha" result="shadowOffsetOuter1"/><feGaussianBlur stdDeviation=".5" in="shadowOffsetOuter1" result="shadowBlurOuter1"/><feColorMatrix values="0 0 0 0 0 0 0 0 0 0 0 0 0 0 0 0 0 0 0.5 0" in="shadowBlurOuter1"/></filter></defs><g fill="none" fill-rule="evenodd"><path fill-opacity=".339" fill="#979797" fill-rule="nonzero" opacity=".289" d="M15.04 62.688l84.367-9.56 26.905-16.727 21.622 38.319 76 6-208.894-6z"/><path stroke="#CBCBCB" stroke-width="2" opacity=".511" d="M15.04 62.688l84.367-9.56 26.905-16.727 21.622 38.319 76 6"/><path d="M1.11.84h226.5M1.11 19.747h226.5M1.11 38.653h226.5M1.11 57.56h226.5M1.11 76.467h226.5" stroke="#CBCBCB" stroke-width=".5" stroke-linecap="square"/><path stroke="#3D4367" stroke-width="2" d="M18 63L63 2l20 12v5h5v6h5v5h6v5.586h6.372l21.238 7.67 26.757 16.872 67.295 15.339"/><path stroke="#ED744A" stroke-width="2" d="M83 14v5h5v6h5v5h6v5.586h6.372"/><path d="M62.258 2.653l-42.253 58" stroke="#ED744A" stroke-width="2" stroke-linecap="round"/><g fill-rule="nonzero" transform="translate(1 -1)"><use fill="#000" filter="url(#aga)" xlink:href="#agb"/><use fill="#3D4367" xlink:href="#agb"/></g><g fill-rule="nonzero" transform="translate(1 -1)"><use fill="#000" filter="url(#agc)" xlink:href="#agd"/><use fill="#3D4367" xlink:href="#agd"/></g><g fill="#FFF" transform="translate(1 -1)"><use filter="url(#age)" xlink:href="#agf"/><use xlink:href="#agf"/></g><g fill="#FFF" transform="translate(1 -1)"><use filter="url(#agg)" xlink:href="#agh"/><use xlink:href="#agh"/></g></g></svg><svg width="233" height="90" viewBox="0 0 233 90" id="graph_info_2" xmlns="http://www.w3.org/2000/svg"><defs><circle id="ahb" cx="11.207" cy="10.942" r="10.355"/><filter id="aha" width="119.3%" height="119.3%" x="-9.7%" y="-4.8%" filterUnits="objectBoundingBox"><feOffset dy="1" in="SourceAlpha" result="shadowOffsetOuter1"/><feGaussianBlur in="shadowOffsetOuter1" result="shadowBlurOuter1" stdDeviation=".5"/><feColorMatrix in="shadowBlurOuter1" values="0 0 0 0 0.507307611 0 0 0 0 0.507307611 0 0 0 0 0.507307611 0 0 0 0.5 0"/></filter><circle id="ahd" cx="216.165" cy="21.914" r="10.355"/><filter id="ahc" width="119.3%" height="119.3%" x="-9.7%" y="-4.8%" filterUnits="objectBoundingBox"><feOffset dy="1" in="SourceAlpha" result="shadowOffsetOuter1"/><feGaussianBlur in="shadowOffsetOuter1" result="shadowBlurOuter1" stdDeviation=".5"/><feColorMatrix in="shadowBlurOuter1" values="0 0 0 0 0.507307611 0 0 0 0 0.507307611 0 0 0 0 0.507307611 0 0 0 0.5 0"/></filter><text id="ahf" fill="#FFF" font-family="AppleSDGothicNeo-Regular, Apple SD Gothic Neo" font-size="9.8"><tspan x="8.207" y="14.653">3</tspan></text><filter id="ahe" width="166.7%" height="112.9%" x="-33.3%" y="-3.2%" filterUnits="objectBoundingBox"><feOffset dy="1" in="SourceAlpha" result="shadowOffsetOuter1"/><feGaussianBlur in="shadowOffsetOuter1" result="shadowBlurOuter1" stdDeviation=".5"/><feColorMatrix in="shadowBlurOuter1" values="0 0 0 0 0 0 0 0 0 0 0 0 0 0 0 0 0 0 0.5 0"/></filter><text id="ahh" fill="#FFF" font-family="AppleSDGothicNeo-Regular, Apple SD Gothic Neo" font-size="9.8"><tspan x="212.934" y="25.269">4</tspan></text><filter id="ahg" width="166.7%" height="112.9%" x="-33.3%" y="-3.2%" filterUnits="objectBoundingBox"><feOffset dy="1" in="SourceAlpha" result="shadowOffsetOuter1"/><feGaussianBlur in="shadowOffsetOuter1" result="shadowBlurOuter1" stdDeviation=".5"/><feColorMatrix in="shadowBlurOuter1" values="0 0 0 0 0 0 0 0 0 0 0 0 0 0 0 0 0 0 0.5 0"/></filter><rect id="ahj" width="14.401" height="14.401" x=".225" y=".187" rx="7.201"/><filter id="ahi" width="148.6%" height="148.6%" x="-24.3%" y="-17.4%" filterUnits="objectBoundingBox"><feOffset dy="1" in="SourceAlpha" result="shadowOffsetOuter1"/><feGaussianBlur in="shadowOffsetOuter1" result="shadowBlurOuter1" stdDeviation="1"/><feComposite in="shadowBlurOuter1" in2="SourceAlpha" operator="out" result="shadowBlurOuter1"/><feColorMatrix in="shadowBlurOuter1" values="0 0 0 0 0 0 0 0 0 0 0 0 0 0 0 0 0 0 0.252915534 0"/></filter><rect id="ahl" width="14.401" height="14.401" x=".225" y=".187" rx="7.201"/><filter id="ahk" width="148.6%" height="148.6%" x="-24.3%" y="-17.4%" filterUnits="objectBoundingBox"><feOffset dy="1" in="SourceAlpha" result="shadowOffsetOuter1"/><feGaussianBlur in="shadowOffsetOuter1" result="shadowBlurOuter1" stdDeviation="1"/><feComposite in="shadowBlurOuter1" in2="SourceAlpha" operator="out" result="shadowBlurOuter1"/><feColorMatrix in="shadowBlurOuter1" values="0 0 0 0 0 0 0 0 0 0 0 0 0 0 0 0 0 0 0.252915534 0"/></filter></defs><g fill="none" fill-rule="evenodd"><path stroke="#CBCBCB" stroke-linecap="square" stroke-width=".5" d="M1.11.84h226.5M1.11 19.747h226.5M1.11 38.653h226.5M1.11 57.56h226.5M1.11 76.467h226.5"/><path stroke="#E4E4E4" stroke-width="2" opacity=".393" d="M18 63L63 2l20 12v5h5v6h5v5h6v5.586h6.372l21.238 7.669 26.757 16.873 67.295 15.339"/><path d="M15.04 62.688l84.367-9.559 26.905-16.728 21.622 38.319 76 6-208.894-6z"/><path stroke="#3D4367" stroke-width="2" d="M15.04 62.688l84.367-9.559 26.905-16.728 21.622 38.319 76 6"/><g fill-rule="nonzero" transform="translate(5 55)"><use fill="#000" filter="url(#aha)" xlink:href="#ahb"/><use fill="#3D4367" xlink:href="#ahb"/></g><g fill-rule="nonzero" transform="translate(5 55)"><use fill="#000" filter="url(#ahc)" xlink:href="#ahd"/><use fill="#3D4367" xlink:href="#ahd"/></g><g fill="#FFF" transform="translate(5 55)"><use filter="url(#ahe)" xlink:href="#ahf"/><use xlink:href="#ahf"/></g><g fill="#FFF" transform="translate(5 55)"><use filter="url(#ahg)" xlink:href="#ahh"/><use xlink:href="#ahh"/></g><g><g fill-rule="nonzero" transform="translate(146.006 69.424)"><use fill="#000" filter="url(#ahi)" xlink:href="#ahj"/><rect width="13.841" height="13.841" x=".505" y=".467" fill="#FFF" fill-rule="evenodd" stroke="#4A90E2" stroke-linejoin="square" stroke-width=".56" rx="6.921"/></g><path stroke="#4A90E2" stroke-width=".5" d="M150.554 73.698h6.011v2.918h-6.011z"/><path stroke="#4A90E2" stroke-width=".5" d="M150.5 76.577c-.328.373-.513.842-.553 1.416h7.227c-.04-.574-.217-1.044-.533-1.417a5868.557 5868.557 0 0 1-1.302.004l-1.857.005c-1.45.002-2.497 0-2.982-.008z"/><path fill="#4A90E2" fill-rule="nonzero" d="M150.392 74.36h6.336v1h-6.336zM150.392 75.425h6.336v1h-6.336zM149.688 78.243h1v2.464h-1zM156.952 78.243h1v2.464h-1zM151.291 78.243h1v1.792h-1zM155.533 78.243h1v1.792h-1z"/></g><g><g fill-rule="nonzero" transform="translate(127.906 50.852)"><use fill="#000" filter="url(#ahk)" xlink:href="#ahl"/><rect width="13.841" height="13.841" x=".505" y=".467" fill="#FFF" fill-rule="evenodd" stroke="#4A90E2" stroke-linejoin="square" stroke-width=".56" rx="6.921"/></g><path stroke="#4A90E2" stroke-width=".5" d="M132.454 55.126h6.011v2.918h-6.011z"/><path stroke="#4A90E2" stroke-width=".5" d="M132.4 58.005c-.328.373-.513.842-.553 1.416h7.227c-.04-.574-.217-1.044-.533-1.417a5868.557 5868.557 0 0 1-1.302.004l-1.857.005c-1.45.002-2.497 0-2.982-.008z"/><path fill="#4A90E2" fill-rule="nonzero" d="M132.292 55.788h6.336v1h-6.336zM132.292 56.853h6.336v1h-6.336zM131.588 59.671h1v2.464h-1zM138.852 59.671h1v2.464h-1zM133.191 59.671h1v1.792h-1zM137.433 59.671h1v1.792h-1z"/></g></g></svg><svg width="18" height="18" viewBox="0 0 18 18" id="icon_arrow_aside" x="418" y="137" xmlns="http://www.w3.org/2000/svg"><path d="M9.15.367c1.173 0 2.277.221 3.312.664a8.53 8.53 0 0 1 2.706 1.818 8.53 8.53 0 0 1 1.818 2.706 8.331 8.331 0 0 1 .664 3.312 8.331 8.331 0 0 1-.664 3.312 8.53 8.53 0 0 1-1.818 2.706 8.53 8.53 0 0 1-2.706 1.818 8.331 8.331 0 0 1-3.312.664 8.331 8.331 0 0 1-3.312-.664 8.53 8.53 0 0 1-2.706-1.818 8.53 8.53 0 0 1-1.818-2.706A8.331 8.331 0 0 1 .65 8.867c0-1.173.221-2.277.664-3.312a8.53 8.53 0 0 1 1.818-2.706A8.53 8.53 0 0 1 5.838 1.03 8.331 8.331 0 0 1 9.15.367zm0 15.954c1.03 0 1.995-.197 2.897-.59a7.506 7.506 0 0 0 2.357-1.601 7.68 7.68 0 0 0 1.594-2.366c.393-.902.59-1.868.59-2.897 0-1.03-.197-1.995-.59-2.897a7.577 7.577 0 0 0-1.594-2.358 7.577 7.577 0 0 0-2.357-1.593 7.175 7.175 0 0 0-2.897-.59c-1.03 0-1.995.197-2.897.59a7.577 7.577 0 0 0-2.357 1.593c-.67.67-1.201 1.456-1.594 2.358a7.175 7.175 0 0 0-.59 2.897c0 1.03.197 1.995.59 2.897a7.68 7.68 0 0 0 1.594 2.366 7.506 7.506 0 0 0 2.357 1.602c.902.392 1.868.589 2.897.589zm.332-10.658a.525.525 0 0 1 .764 0l3.137 3.22-3.137 3.221a.756.756 0 0 1-.183.108.514.514 0 0 1-.2.042.514.514 0 0 1-.198-.042.757.757 0 0 1-.183-.108.554.554 0 0 1-.15-.382c0-.144.05-.27.15-.382l1.959-1.942h-6.01a.525.525 0 0 1-.531-.531c0-.155.05-.282.15-.382.099-.1.226-.15.381-.15h5.977L9.482 6.41a.507.507 0 0 1-.15-.374c0-.15.05-.274.15-.373z" fill="#1D1D1B" fill-rule="evenodd"/></svg><svg width="14" height="15" viewBox="0 0 14 15" id="icon_close_aside" x="423" y="64" xmlns="http://www.w3.org/2000/svg"><path d="M13.977 2.315L8.409 7.883l5.568 5.568-1.416 1.416-5.568-5.568-5.568 5.568L.009 13.45l5.568-5.568L.009 2.315 1.425.899l5.568 5.568L12.56.899z" fill="#636363" fill-rule="evenodd"/></svg><svg width="93" height="35" viewBox="0 0 93 35" id="icon_filter" x="228" y="180" xmlns="http://www.w3.org/2000/svg"><defs><rect id="akb" width="88.509" height="30.607" x=".175" y=".64" rx="15.303"/><filter id="aka" width="107.9%" height="122.9%" x="-4%" y="-8.2%" filterUnits="objectBoundingBox"><feOffset dy="1" in="SourceAlpha" result="shadowOffsetOuter1"/><feGaussianBlur in="shadowOffsetOuter1" result="shadowBlurOuter1" stdDeviation="1"/><feColorMatrix in="shadowBlurOuter1" values="0 0 0 0 0 0 0 0 0 0 0 0 0 0 0 0 0 0 0.210541214 0"/></filter></defs><g fill="none" transform="translate(1.825 .955)"><use fill="#000" filter="url(#aka)" xlink:href="#akb"/><use fill="#FBF8F2" xlink:href="#akb"/><path fill="#ED744A" d="M20.578 8.29h13.337v16H20.578z"/><path fill="#A18F86" d="M53.749 8.45h7.595v7.364h-7.595zM53.749 16.54h7.595v7.364h-7.595zM62.186 8.45h7.595v7.364h-7.595zM62.186 16.54h7.595v7.364h-7.595z"/></g></svg><svg width="26" height="26" viewBox="0 0 26 26" id="icon_incline" y="328" xmlns="http://www.w3.org/2000/svg"><g transform="translate(.684 -.02)" fill-rule="nonzero" stroke="#ED744A" stroke-width="1.2" fill="none"><circle fill="#FFF" cx="12.645" cy="13.278" r="12"/><path d="M5.445 18.678h4.8v-4.8h4.8v-4.8h4.8"/></g></svg><svg width="40" height="51" viewBox="0 0 40 51" id="icon_map_indi" x="188" y="266" xmlns="http://www.w3.org/2000/svg"><g fill="none" fill-rule="evenodd"><path d="M20.62 46.232h-1.392c-9.43 0-17.075-7.645-17.075-17.076v-7.91c0-9.432 7.645-17.077 17.075-17.077h1.392c9.431 0 17.076 7.645 17.076 17.076v7.91c0 9.432-7.645 17.077-17.076 17.077" fill="#FFF"/><path d="M20.62 46.232h-1.392c-9.43 0-17.075-7.645-17.075-17.076v-7.91c0-9.432 7.645-17.077 17.075-17.077h1.392c9.431 0 17.076 7.645 17.076 17.076v7.91c0 9.432-7.645 17.077-17.076 17.077z" stroke="#FFF" stroke-width="1.14" stroke-linecap="round" stroke-linejoin="round"/><path d="M35.93 24.055a7.378 7.378 0 1 1-14.756 0 7.378 7.378 0 0 1 14.755 0zM18.26 24.055a7.378 7.378 0 1 1-14.755 0 7.378 7.378 0 0 1 14.755 0z" stroke="#FFF" stroke-width="1.292"/><path d="M15.39 26.574c0 1.154-.775 2.089-1.732 2.089-.956 0-1.73-.935-1.73-2.089s.774-2.089 1.73-2.089c.957 0 1.732.935 1.732 2.089M27.667 26.574c0 1.154-.775 2.089-1.732 2.089-.956 0-1.73-.935-1.73-2.089s.774-2.089 1.73-2.089c.957 0 1.732.935 1.732 2.089" fill="#FFF"/><path d="M13.698 20.975s-5.694-2.657-6.548 5.599M26.013 21.338s5.694-2.657 6.548 5.6" stroke="#FFF" stroke-width="1.292" stroke-linecap="round"/><path d="M24.532 32.655s-.17 2.812-1.517 4.669c-.808 1.113-2.498 1.667-3.547 1.667-1.048 0-2.632-.433-3.44-1.546-1.347-1.856-1.623-4.79-1.623-4.79H24.532z" fill="#FFF"/><path d="M24.532 32.655s-.17 2.812-1.517 4.669c-.808 1.113-2.498 1.667-3.547 1.667-1.048 0-2.632-.433-3.44-1.546-1.347-1.856-1.623-4.79-1.623-4.79H24.532z" stroke="#FFF" stroke-width=".586" stroke-linecap="round" stroke-linejoin="round"/><path d="M15.914 36.204c1.05-.51 3.905-1.575 7.097-.002a.484.484 0 0 1 .186.695c-.449.692-1.545 1.932-3.71 2.093l-.033.002c-.21.007-2.573.032-3.752-2.107a.493.493 0 0 1 .212-.681" fill="#FFF"/><path d="M15.914 36.204c1.05-.51 3.905-1.575 7.097-.002a.484.484 0 0 1 .186.695c-.449.692-1.545 1.932-3.71 2.093l-.033.002c-.21.007-2.573.032-3.752-2.107a.493.493 0 0 1 .212-.681zM16.626 15.944s3.133-1.601 6.596 0M17.906 17.565s1.917-.535 4.036 0M15.335 33.145c-.361-.115-.764.032-1.051.28-.286.25-.479.586-.665.915-.97 1.71-1.973 3.588-1.69 5.533M24.954 32.823a11.28 11.28 0 0 1 2.93 6.671" stroke="#FFF" stroke-width=".646" stroke-linecap="round" stroke-linejoin="round"/><path fill="#FFF" d="M26.365 46.742v3.276L23.53 48.38l-2.837-1.638 2.837-1.637 2.836-1.638z"/><path stroke="#FFF" stroke-width="1.292" stroke-linecap="round" stroke-linejoin="round" d="M26.365 46.742v3.276L23.53 48.38l-2.837-1.638 2.837-1.637 2.836-1.638z"/><path fill="#FFF" d="M14.233 46.742v-3.275l2.837 1.638 2.837 1.637-2.837 1.638-2.837 1.638z"/><path stroke="#FFF" stroke-width="1.292" stroke-linecap="round" stroke-linejoin="round" d="M14.233 46.742v-3.275l2.837 1.638 2.837 1.637-2.837 1.638-2.837 1.638z"/><path d="M25.155 8.46s9.896-.569 12.541 13.523c0 0 4.812-10.86-6.733-17.814l-5.808 4.292z" fill="#FFF"/><path d="M25.155 8.46s9.896-.569 12.541 13.523c0 0 4.812-10.86-6.733-17.814l-5.808 4.292z" stroke="#FFF" stroke-width="1.292"/><path d="M2.152 22.794S3.926 8.43 22.2 9.891c1.903.153 3.832-.04 5.633-.673 2.893-1.017 6.112-3.317 5.711-8.521 0 0-4.133 2.64-8.589 1.549 0 0-28.537-3.552-22.802 20.548" fill="#FFF"/><path d="M2.152 22.794S3.926 8.43 22.2 9.891c1.903.153 3.832-.04 5.633-.673 2.893-1.017 6.112-3.317 5.711-8.521 0 0-4.133 2.64-8.589 1.549 0 0-28.537-3.552-22.802 20.548z" stroke="#FFF" stroke-width="1.292" stroke-linejoin="round"/><path d="M19.62 32.111c-.068-.518-.609-.941-1.305-1.047-.76-.115-1.816-.183-2.611.12 0 0-.996.218-2.439 1.365 0 0-2.514 1.842-4.507 1.459 0 0 4.458 2.582 9.251.284 0 0 1.792-.771 1.61-2.181" fill="#FFF"/><path d="M19.62 32.111c-.068-.518-.609-.941-1.305-1.047-.76-.115-1.816-.183-2.611.12 0 0-.996.218-2.439 1.365 0 0-2.514 1.842-4.507 1.459 0 0 4.458 2.582 9.251.284 0 0 1.792-.771 1.61-2.181z" stroke="#FFF" stroke-width=".646" stroke-linejoin="round"/><path d="M19.474 32.111c.067-.518.608-.941 1.304-1.047.76-.115 1.816-.183 2.611.12 0 0 .996.218 2.439 1.365 0 0 2.514 1.842 4.507 1.459 0 0-4.458 2.582-9.25.284 0 0-1.792-.771-1.61-2.181" fill="#FFF"/><path d="M19.474 32.111c.067-.518.608-.941 1.304-1.047.76-.115 1.816-.183 2.611.12 0 0 .996.218 2.439 1.365 0 0 2.514 1.842 4.507 1.459 0 0-4.458 2.582-9.25.284 0 0-1.792-.771-1.61-2.181z" stroke="#FFF" stroke-width=".646" stroke-linejoin="round"/><path d="M18.096 25.604s1.607-1.646 3.244 0" stroke="#FFF" stroke-width="1.292" stroke-linecap="round"/><g><path d="M20.579 44.345h-1.266c-8.573 0-15.523-6.95-15.523-15.524v-7.192c0-8.573 6.95-15.524 15.523-15.524h1.266c8.574 0 15.524 6.95 15.524 15.524v7.192c0 8.574-6.95 15.524-15.524 15.524" fill="#F6D9BE"/><path d="M20.579 44.345h-1.266c-8.573 0-15.523-6.95-15.523-15.524v-7.192c0-8.573 6.95-15.524 15.523-15.524h1.266c8.574 0 15.524 6.95 15.524 15.524v7.192c0 8.574-6.95 15.524-15.524 15.524z" stroke="#1D1D1B" stroke-width="1.036" stroke-linecap="round" stroke-linejoin="round"/><path d="M34.496 24.184a6.707 6.707 0 1 1-13.414 0 6.707 6.707 0 0 1 13.414 0zM18.434 24.184a6.707 6.707 0 1 1-13.415 0 6.707 6.707 0 0 1 13.415 0z" stroke="#1D1D1B" stroke-width="1.175"/><path d="M15.824 26.474c0 1.048-.704 1.899-1.574 1.899-.87 0-1.573-.85-1.573-1.9 0-1.048.704-1.898 1.573-1.898.87 0 1.574.85 1.574 1.899M26.985 26.474c0 1.048-.705 1.899-1.574 1.899-.87 0-1.573-.85-1.573-1.9 0-1.048.703-1.898 1.573-1.898s1.574.85 1.574 1.899" fill="#1D1D1B"/><path d="M14.286 21.384s-5.176-2.416-5.953 5.09M25.481 21.714s5.177-2.416 5.953 5.09" stroke="#1D1D1B" stroke-width="1.175" stroke-linecap="round"/><path d="M24.135 32.001s-.154 2.557-1.379 4.245c-.734 1.012-2.27 1.516-3.225 1.516-.952 0-2.392-.393-3.127-1.405C15.18 34.669 14.93 32 14.93 32h9.206z" fill="#B41E18"/><path d="M24.135 32.001s-.154 2.557-1.379 4.245c-.734 1.012-2.27 1.516-3.225 1.516-.952 0-2.392-.393-3.127-1.405C15.18 34.669 14.93 32 14.93 32h9.206z" stroke="#1D1D1B" stroke-width=".532" stroke-linecap="round" stroke-linejoin="round"/><path d="M16.3 35.228c.955-.464 3.55-1.432 6.452-.002a.44.44 0 0 1 .17.632c-.408.63-1.405 1.757-3.374 1.903l-.03.002c-.19.006-2.339.029-3.41-1.915a.448.448 0 0 1 .192-.62" fill="#E94F51"/><path d="M16.3 35.228c.955-.464 3.55-1.432 6.452-.002a.44.44 0 0 1 .17.632c-.408.63-1.405 1.757-3.374 1.903l-.03.002c-.19.006-2.339.029-3.41-1.915a.448.448 0 0 1 .192-.62z" stroke="#1D1D1B" stroke-width=".587" stroke-linecap="round" stroke-linejoin="round"/><path d="M16.948 16.81s2.848-1.456 5.996 0M18.112 18.284s1.743-.487 3.669 0M15.775 32.447c-.33-.104-.695.03-.956.255-.26.226-.435.533-.605.832-.881 1.555-1.793 3.262-1.536 5.03M24.52 32.154a10.254 10.254 0 0 1 2.663 6.065" stroke="#CDB4A1" stroke-width=".587" stroke-linecap="round" stroke-linejoin="round"/><path fill="#A32F2F" d="M25.802 44.809v2.977l-2.579-1.489-2.579-1.488 2.58-1.49 2.578-1.488z"/><path stroke="#1D1D1B" stroke-width="1.175" stroke-linecap="round" stroke-linejoin="round" d="M25.802 44.809v2.977l-2.579-1.489-2.579-1.488 2.58-1.49 2.578-1.488z"/><path fill="#A32F2F" d="M14.773 44.809V41.83l2.578 1.489 2.58 1.489-2.58 1.488-2.578 1.49z"/><path stroke="#1D1D1B" stroke-width="1.175" stroke-linecap="round" stroke-linejoin="round" d="M14.773 44.809V41.83l2.578 1.489 2.58 1.489-2.58 1.488-2.578 1.49z"/><path d="M24.701 10.007S33.698 9.49 36.102 22.3c0 0 4.375-9.872-6.12-16.194l-5.28 3.901z" fill="#777677"/><path d="M24.701 10.007S33.698 9.49 36.102 22.3c0 0 4.375-9.872-6.12-16.194l-5.28 3.901z" stroke="#1D1D1B" stroke-width="1.175"/><path d="M3.79 23.037S5.402 9.98 22.014 11.307c1.73.139 3.484-.036 5.121-.611 2.63-.925 5.557-3.016 5.192-7.747 0 0-3.757 2.4-7.808 1.408 0 0-25.943-3.229-20.729 18.68" fill="#777677"/><path d="M3.79 23.037S5.402 9.98 22.014 11.307c1.73.139 3.484-.036 5.121-.611 2.63-.925 5.557-3.016 5.192-7.747 0 0-3.757 2.4-7.808 1.408 0 0-25.943-3.229-20.729 18.68z" stroke="#1D1D1B" stroke-width="1.175" stroke-linejoin="round"/><path d="M19.669 31.507c-.061-.47-.552-.856-1.185-.952-.692-.104-1.651-.166-2.374.109 0 0-.906.199-2.217 1.242 0 0-2.286 1.674-4.098 1.326 0 0 4.053 2.347 8.41.258 0 0 1.629-.701 1.464-1.983" fill="#777677"/><path d="M19.669 31.507c-.061-.47-.552-.856-1.185-.952-.692-.104-1.651-.166-2.374.109 0 0-.906.199-2.217 1.242 0 0-2.286 1.674-4.098 1.326 0 0 4.053 2.347 8.41.258 0 0 1.629-.701 1.464-1.983z" stroke="#1D1D1B" stroke-width=".587" stroke-linejoin="round"/><path d="M19.537 31.507c.061-.47.553-.856 1.186-.952.69-.104 1.65-.166 2.373.109 0 0 .906.199 2.217 1.242 0 0 2.286 1.674 4.098 1.326 0 0-4.053 2.347-8.41.258 0 0-1.629-.701-1.464-1.983" fill="#777677"/><path d="M19.537 31.507c.061-.47.553-.856 1.186-.952.69-.104 1.65-.166 2.373.109 0 0 .906.199 2.217 1.242 0 0 2.286 1.674 4.098 1.326 0 0-4.053 2.347-8.41.258 0 0-1.629-.701-1.464-1.983z" stroke="#1D1D1B" stroke-width=".587" stroke-linejoin="round"/><path d="M18.284 25.592s1.461-1.497 2.949 0" stroke="#1D1D1B" stroke-width="1.175" stroke-linecap="round"/></g></g></svg><svg width="82" height="82" viewBox="0 0 82 82" id="icon_map_indi_now" y="246" xmlns="http://www.w3.org/2000/svg"><defs><circle id="anb" cx="38.925" cy="39.113" r="33.673"/><filter x="-16.3%" y="-14.8%" width="132.7%" height="132.7%" filterUnits="objectBoundingBox" id="ana"><feOffset dy="1" in="SourceAlpha" result="shadowOffsetOuter1"/><feGaussianBlur stdDeviation="3.5" in="shadowOffsetOuter1" result="shadowBlurOuter1"/><feColorMatrix values="0 0 0 0 0.929411765 0 0 0 0 0.454901961 0 0 0 0 0.290196078 0 0 0 0.702983469 0" in="shadowBlurOuter1"/></filter><linearGradient x1="50%" y1="0%" x2="50%" y2="100%" id="anc"><stop stop-color="#F7AC81" offset="0%"/><stop stop-color="#ED744A" offset="100%"/></linearGradient><path d="M36.68 26.3l13.636 27.271a.6.6 0 0 1-.777.818l-13.154-5.766a.6.6 0 0 0-.482 0L22.75 54.39a.6.6 0 0 1-.778-.818l13.636-27.27a.6.6 0 0 1 1.073 0z" id="and"/><filter x="-3.5%" y="-3.5%" width="107%" height="107%" filterUnits="objectBoundingBox" id="ane"><feGaussianBlur stdDeviation=".5" in="SourceAlpha" result="shadowBlurInner1"/><feOffset dy="1" in="shadowBlurInner1" result="shadowOffsetInner1"/><feComposite in="shadowOffsetInner1" in2="SourceAlpha" operator="arithmetic" k2="-1" k3="1" result="shadowInnerInner1"/><feColorMatrix values="0 0 0 0 0.579347364 0 0 0 0 0.579347364 0 0 0 0 0.579347364 0 0 0 0.635926178 0" in="shadowInnerInner1"/></filter></defs><g fill="none" fill-rule="evenodd"><g fill-rule="nonzero" transform="rotate(-14 42.172 31.682)"><use fill="#000" filter="url(#ana)" xlink:href="#anb"/><use fill="#FFF" xlink:href="#anb"/></g><g fill-rule="nonzero" transform="rotate(-148.725 37.433 40.493)"><use fill="url(#anc)" xlink:href="#and"/><use fill="#000" filter="url(#ane)" xlink:href="#and"/></g><path fill="#ED754B" d="M41.194 68.644l-1.147-.02-.054 3.097 1.147.02z"/><path fill="#C6C5C5" d="M43.895 71.619l-.216-3.09-1.144.08.216 3.09zM45.012 68.377l1.133-.18.485 3.06-1.133.18zM47.46 67.93l1.113-.278.75 3.006-1.114.278zM49.86 67.271l1.084-.373 1.008 2.929-1.084.373zM52.192 66.406l1.048-.466 1.26 2.83-1.048.466zM54.44 65.34l1.004-.555 1.502 2.709-1.003.556zM56.588 64.084l.95-.641 1.733 2.568-.951.64zM58.617 62.644l.892-.721 1.95 2.407-.892.721zM60.514 61.033l.825-.796 2.152 2.228-.825.797zM62.262 59.263l.753-.865 2.337 2.032-.752.866zM63.85 57.348l.674-.928 2.506 1.82-.674.928zM65.265 55.301l.59-.983 2.656 1.595-.591.983zM66.496 53.139l.503-1.031 2.784 1.358-.503 1.03zM67.534 50.877l.41-1.07 2.893 1.11-.412 1.07zM68.37 48.534l.317-1.102 2.977.853-.316 1.103zM72.26 45.592l-3.041-.591-.22 1.126 3.041.591zM72.618 42.857l-3.081-.324-.12 1.14 3.08.325zM72.736 40.102l-3.097-.054-.02 1.146 3.097.054zM72.694 38.49l-.08-1.144-3.09.216.08 1.144zM72.431 35.744l-.18-1.133-3.059.485.18 1.133zM68.925 33.781l-.278-1.113 3.006-.75.278 1.114zM68.266 31.382l-.373-1.085 2.929-1.008.373 1.084zM67.401 29.049L66.935 28l2.83-1.26.466 1.048zM66.336 26.8l-.556-1.003 2.709-1.502.556 1.004zM65.079 24.653l-.641-.95 2.568-1.733.64.951zM63.64 22.624l-.722-.892 2.407-1.95.721.892zM62.028 20.727l-.796-.825 2.228-2.152.797.825zM60.258 18.979l-.865-.753 2.032-2.337.866.752zM58.343 17.391l-.928-.674 1.82-2.506.928.674zM56.296 15.976l-.983-.59 1.595-2.656.983.591zM54.134 14.745l-1.031-.503 1.358-2.784 1.03.503zM51.872 13.708l-1.07-.412 1.11-2.891 1.07.41zM49.53 12.87l-1.103-.315.853-2.978 1.103.316zM47.713 9.2l-1.126-.218-.591 3.04 1.126.22zM44.993 8.743l-1.14-.12-.325 3.081 1.14.12zM42.243 8.525l-1.146-.02-.055 3.097 1.147.02zM39.701 11.638l-.216-3.09-1.144.08.216 3.09zM37.224 11.87l-.485-3.06-1.133.18.485 3.059zM34.776 12.316l-1.113.278-.75-3.006 1.114-.278zM32.377 12.975l-1.085.373-1.008-2.928 1.084-.374zM30.044 13.84l-1.048.467-1.26-2.83 1.048-.467zM27.795 14.905l-1.003.556-1.502-2.709 1.003-.556zM25.648 16.162l-.95.642-1.733-2.569.951-.64zM23.619 17.602l-.892.722-1.95-2.408.892-.721zM21.722 19.213l-.825.796-2.152-2.228.825-.797zM19.974 20.983l-.753.865-2.337-2.032.752-.866zM18.386 22.898l-.674.928-2.506-1.82.674-.928zM16.971 24.945l-.59.983-2.656-1.595.591-.983zM15.74 27.107l-.503 1.032-2.784-1.358.503-1.032zM14.703 29.369l-.412 1.07-2.891-1.11.41-1.07zM13.866 31.712l-.316 1.103-2.978-.854.316-1.103zM13.236 34.12l-.219 1.125-3.04-.591.219-1.126zM12.82 36.572l-3.082-.324-.12 1.14 3.082.325zM12.617 39.052l-3.097-.054-.02 1.147 3.097.054zM12.713 42.684l-.08-1.144-3.09.216.08 1.144zM12.864 44.017l.18 1.133-3.06.485-.18-1.133zM13.311 46.465l.278 1.113-3.006.75-.278-1.114z"/><path fill="#ED754B" d="M13.97 48.864l.373 1.085-2.928 1.008-.374-1.084zM14.835 51.197l.467 1.048-2.83 1.26-.467-1.048zM15.9 53.446l.556 1.003-2.709 1.502-.556-1.003zM17.157 55.593l.642.95-2.569 1.733-.64-.951zM18.597 57.622l.722.892-2.408 1.95-.721-.892zM20.208 59.519l.796.825-2.228 2.152-.797-.825zM21.978 61.267l.865.753-2.032 2.338-.866-.753zM23.893 62.855l.928.674-1.82 2.506-.928-.674zM25.94 64.27l.983.59-1.595 2.656-.983-.591zM28.102 65.5l1.032.504-1.359 2.784-1.03-.503zM30.364 66.539l1.07.41-1.11 2.893-1.07-.412zM32.707 67.375l1.103.317-.854 2.977-1.103-.316zM35.114 68.005l1.126.219-.591 3.04-1.126-.218zM38.708 68.542l-1.14-.12-.325 3.08 1.141.12z"/></g></svg><svg width="16" height="16" viewBox="0 0 16 16" id="icon_navigate" x="418" y="155" xmlns="http://www.w3.org/2000/svg"><path d="M14.354 1.946L2.636 6.883 7.689 8.42l1.744 5.039 4.921-11.514zM15.57.452c.137 0 .225.054.264.161.039.108.02.254-.059.44L9.8 15.027a.77.77 0 0 1-.205.3.389.389 0 0 1-.25.096.445.445 0 0 1-.241-.08.65.65 0 0 1-.212-.242L6.986 9.183 1.2 7.38c-.234-.147-.344-.31-.33-.49.015-.182.15-.326.403-.433L15.248.525a.869.869 0 0 1 .322-.073z" fill="#FBF8F2" fill-rule="evenodd"/></svg><svg width="33" height="43" viewBox="0 0 33 43" id="icon_person_normal" x="228" y="266" xmlns="http://www.w3.org/2000/svg"><g fill="none" fill-rule="evenodd"><path d="M16.875 38.71h-1.151c-7.794 0-14.112-6.319-14.112-14.113v-6.538c0-7.794 6.318-14.112 14.112-14.112h1.15c7.795 0 14.113 6.318 14.113 14.112v6.538c0 7.794-6.318 14.113-14.112 14.113" fill="#F6D9BE"/><path d="M16.875 38.71h-1.151c-7.794 0-14.112-6.319-14.112-14.113v-6.538c0-7.794 6.318-14.112 14.112-14.112h1.15c7.795 0 14.113 6.318 14.113 14.112v6.538c0 7.794-6.318 14.113-14.112 14.113z" stroke="#1D1D1B" stroke-width=".942" stroke-linecap="round" stroke-linejoin="round"/><path d="M29.527 20.382a6.097 6.097 0 1 1-12.195 0 6.097 6.097 0 0 1 12.195 0zM14.924 20.382a6.097 6.097 0 1 1-12.195 0 6.097 6.097 0 0 1 12.195 0z" stroke="#1D1D1B" stroke-width="1.068"/><path d="M12.552 22.463c0 .954-.64 1.727-1.43 1.727-.791 0-1.431-.773-1.431-1.727 0-.953.64-1.726 1.43-1.726.79 0 1.431.773 1.431 1.726M22.698 22.463c0 .954-.64 1.727-1.43 1.727-.791 0-1.431-.773-1.431-1.727 0-.953.64-1.726 1.43-1.726.79 0 1.431.773 1.431 1.726" fill="#1D1D1B"/><path d="M11.154 17.836s-4.706-2.196-5.412 4.627M21.331 18.136s4.706-2.196 5.412 4.627" stroke="#1D1D1B" stroke-width="1.068" stroke-linecap="round"/><path d="M20.107 27.488s-.14 2.325-1.253 3.86c-.668.92-2.065 1.377-2.932 1.377-.866 0-2.175-.357-2.843-1.277-1.112-1.534-1.34-3.96-1.34-3.96H20.106z" fill="#B41E18"/><path d="M20.107 27.488s-.14 2.325-1.253 3.86c-.668.92-2.065 1.377-2.932 1.377-.866 0-2.175-.357-2.843-1.277-1.112-1.534-1.34-3.96-1.34-3.96H20.106z" stroke="#1D1D1B" stroke-width=".484" stroke-linecap="round" stroke-linejoin="round"/><path d="M12.985 30.422c.868-.422 3.228-1.302 5.865-.002a.4.4 0 0 1 .154.575c-.37.572-1.276 1.596-3.066 1.73l-.028.001c-.173.006-2.126.027-3.1-1.741a.407.407 0 0 1 .175-.563" fill="#E94F51"/><path d="M12.985 30.422c.868-.422 3.228-1.302 5.865-.002a.4.4 0 0 1 .154.575c-.37.572-1.276 1.596-3.066 1.73l-.028.001c-.173.006-2.126.027-3.1-1.741a.407.407 0 0 1 .175-.563z" stroke="#1D1D1B" stroke-width=".534" stroke-linecap="round" stroke-linejoin="round"/><path d="M13.574 13.678s2.589-1.323 5.45 0M14.632 15.018s1.584-.443 3.335 0M12.507 27.894c-.299-.095-.632.026-.869.232-.236.205-.396.484-.55.756-.8 1.413-1.63 2.965-1.396 4.572M20.457 27.627a9.322 9.322 0 0 1 2.421 5.514" stroke="#CDB4A1" stroke-width=".534" stroke-linecap="round" stroke-linejoin="round"/><path fill="#A32F2F" d="M21.623 39.131v2.707l-2.344-1.353-2.345-1.354 2.345-1.353 2.344-1.354z"/><path stroke="#1D1D1B" stroke-width="1.068" stroke-linecap="round" stroke-linejoin="round" d="M21.623 39.131v2.707l-2.344-1.353-2.345-1.354 2.345-1.353 2.344-1.354z"/><path fill="#A32F2F" d="M11.596 39.131v-2.707l2.344 1.354 2.345 1.353-2.345 1.354-2.344 1.353z"/><path stroke="#1D1D1B" stroke-width="1.068" stroke-linecap="round" stroke-linejoin="round" d="M11.596 39.131v-2.707l2.344 1.354 2.345 1.353-2.345 1.354-2.344 1.353z"/><path d="M20.622 7.494s8.179-.47 10.365 11.175c0 0 3.977-8.975-5.565-14.722l-4.8 3.547z" fill="#777677"/><path d="M20.622 7.494s8.179-.47 10.365 11.175c0 0 3.977-8.975-5.565-14.722l-4.8 3.547z" stroke="#1D1D1B" stroke-width="1.068"/><path d="M1.612 19.34S3.077 7.468 18.18 8.675c1.573.126 3.167-.034 4.655-.556 2.39-.841 5.051-2.742 4.72-7.043 0 0-3.416 2.182-7.098 1.28 0 0-23.585-2.935-18.845 16.982" fill="#777677"/><path d="M1.612 19.34S3.077 7.468 18.18 8.675c1.573.126 3.167-.034 4.655-.556 2.39-.841 5.051-2.742 4.72-7.043 0 0-3.416 2.182-7.098 1.28 0 0-23.585-2.935-18.845 16.982z" stroke="#1D1D1B" stroke-width="1.068" stroke-linejoin="round"/><path d="M16.047 27.04c-.055-.429-.502-.779-1.077-.866-.629-.095-1.501-.152-2.158.099 0 0-.823.18-2.016 1.128 0 0-2.078 1.522-3.725 1.206 0 0 3.685 2.134 7.646.234 0 0 1.48-.637 1.33-1.802" fill="#777677"/><path d="M16.047 27.04c-.055-.429-.502-.779-1.077-.866-.629-.095-1.501-.152-2.158.099 0 0-.823.18-2.016 1.128 0 0-2.078 1.522-3.725 1.206 0 0 3.685 2.134 7.646.234 0 0 1.48-.637 1.33-1.802z" stroke="#1D1D1B" stroke-width=".534" stroke-linejoin="round"/><path d="M15.927 27.04c.056-.429.503-.779 1.078-.866.628-.095 1.5-.152 2.158.099 0 0 .823.18 2.016 1.128 0 0 2.077 1.522 3.724 1.206 0 0-3.684 2.134-7.645.234 0 0-1.48-.637-1.33-1.802" fill="#777677"/><path d="M15.927 27.04c.056-.429.503-.779 1.078-.866.628-.095 1.5-.152 2.158.099 0 0 .823.18 2.016 1.128 0 0 2.077 1.522 3.724 1.206 0 0-3.684 2.134-7.645.234 0 0-1.48-.637-1.33-1.802z" stroke="#1D1D1B" stroke-width=".534" stroke-linejoin="round"/><path d="M14.789 21.662s1.328-1.361 2.68 0" stroke="#1D1D1B" stroke-width="1.068" stroke-linecap="round"/></g></svg><svg width="33" height="42" viewBox="0 0 33 42" id="icon_person_tired" x="261" y="266" xmlns="http://www.w3.org/2000/svg"><g fill="none" fill-rule="evenodd"><path d="M17.06 38.105h-1.14c-7.724 0-13.985-6.261-13.985-13.985v-6.479c0-7.724 6.261-13.985 13.984-13.985h1.141c7.724 0 13.985 6.261 13.985 13.985v6.479c0 7.724-6.261 13.985-13.985 13.985" fill="#F6D9BE"/><path d="M17.06 38.105h-1.14c-7.724 0-13.985-6.261-13.985-13.985v-6.479c0-7.724 6.261-13.985 13.984-13.985h1.141c7.724 0 13.985 6.261 13.985 13.985v6.479c0 7.724-6.261 13.985-13.985 13.985z" stroke="#1D1D1B" stroke-width=".942" stroke-linecap="round" stroke-linejoin="round"/><path d="M10.583 17.384s-.358 3.329-4.148 3.753M21.81 17.384s.357 3.329 4.147 3.753" stroke="#1D1D1B" stroke-width="1.068" stroke-linecap="round"/><path d="M11.97 32.176s.139-2.303 1.241-3.824c.662-.911 2.047-1.365 2.906-1.365.858 0 2.155.354 2.817 1.266 1.103 1.52 1.33 3.923 1.33 3.923l-2.712-.43a9.218 9.218 0 0 0-2.882.002l-2.7.428z" fill="#B41E18"/><path d="M11.97 32.176s.139-2.303 1.241-3.824c.662-.911 2.047-1.365 2.906-1.365.858 0 2.155.354 2.817 1.266 1.103 1.52 1.33 3.923 1.33 3.923l-2.712-.43a9.218 9.218 0 0 0-2.882.002l-2.7.428z" stroke="#1D1D1B" stroke-width=".484" stroke-linecap="round" stroke-linejoin="round"/><path d="M19.028 29.27c-.86.418-3.199 1.29-5.813.001a.396.396 0 0 1-.152-.57c.367-.566 1.265-1.582 3.038-1.714l.028-.001c.172-.006 2.107-.026 3.072 1.725a.404.404 0 0 1-.173.558" fill="#E94F51"/><path d="M19.028 29.27c-.86.418-3.199 1.29-5.813.001a.396.396 0 0 1-.152-.57c.367-.566 1.265-1.582 3.038-1.714l.028-.001c.172-.006 2.107-.026 3.072 1.725a.404.404 0 0 1-.173.558z" stroke="#1D1D1B" stroke-width=".534" stroke-linecap="round" stroke-linejoin="round"/><path d="M13.789 13.3s2.565-1.312 5.402 0M14.837 14.627s1.57-.438 3.305 0M12.732 27.387c-.296-.094-.626.026-.861.23-.234.203-.392.48-.545.75-.794 1.4-1.616 2.938-1.384 4.53M20.61 27.123a9.238 9.238 0 0 1 2.4 5.464" stroke="#AA9281" stroke-width=".534" stroke-linecap="round" stroke-linejoin="round"/><path fill="#A32F2F" d="M21.765 38.523v2.683l-2.323-1.341-2.324-1.342 2.324-1.341 2.323-1.341z"/><path stroke="#1D1D1B" stroke-width="1.068" stroke-linecap="round" stroke-linejoin="round" d="M21.765 38.523v2.683l-2.323-1.341-2.324-1.342 2.324-1.341 2.323-1.341z"/><path fill="#A32F2F" d="M11.83 38.523v-2.682l2.322 1.34 2.324 1.342-2.324 1.342-2.323 1.34z"/><path stroke="#1D1D1B" stroke-width="1.068" stroke-linecap="round" stroke-linejoin="round" d="M11.83 38.523v-2.682l2.322 1.34 2.324 1.342-2.324 1.342-2.323 1.34z"/><path d="M20.774 7.171s8.104-.466 10.27 11.075c0 0 3.942-8.894-5.514-14.59l-4.756 3.515z" fill="#777677"/><path d="M20.774 7.171s8.104-.466 10.27 11.075c0 0 3.942-8.894-5.514-14.59l-4.756 3.515z" stroke="#1D1D1B" stroke-width="1.068"/><path d="M1.935 18.91S3.387 7.146 18.353 8.342c1.559.125 3.139-.033 4.614-.55 2.369-.834 5.005-2.717 4.677-6.98 0 0-3.385 2.162-7.034 1.27 0 0-23.372-2.91-18.675 16.828" fill="#777677"/><path d="M1.935 18.91S3.387 7.146 18.353 8.342c1.559.125 3.139-.033 4.614-.55 2.369-.834 5.005-2.717 4.677-6.98 0 0-3.385 2.162-7.034 1.27 0 0-23.372-2.91-18.675 16.828z" stroke="#1D1D1B" stroke-width="1.068" stroke-linejoin="round"/><path d="M16.24 26.54c-.055-.424-.498-.77-1.068-.857-.622-.095-1.487-.15-2.138.098 0 0-.816.179-1.998 1.118 0 0-2.059 1.508-3.69 1.195 0 0 3.65 2.115 7.576.232 0 0 1.467-.631 1.318-1.786" fill="#777677"/><path d="M16.24 26.54c-.055-.424-.498-.77-1.068-.857-.622-.095-1.487-.15-2.138.098 0 0-.816.179-1.998 1.118 0 0-2.059 1.508-3.69 1.195 0 0 3.65 2.115 7.576.232 0 0 1.467-.631 1.318-1.786z" stroke="#1D1D1B" stroke-width=".534" stroke-linejoin="round"/><path d="M16.121 26.54c.055-.424.498-.77 1.068-.857.623-.095 1.487-.15 2.139.098 0 0 .816.179 1.997 1.118 0 0 2.06 1.508 3.691 1.195 0 0-3.65 2.115-7.576.232 0 0-1.467-.631-1.319-1.786" fill="#777677"/><path d="M16.121 26.54c.055-.424.498-.77 1.068-.857.623-.095 1.487-.15 2.139.098 0 0 .816.179 1.997 1.118 0 0 2.06 1.508 3.691 1.195 0 0-3.65 2.115-7.576.232 0 0-1.467-.631-1.319-1.786z" stroke="#1D1D1B" stroke-width=".534" stroke-linejoin="round"/><path d="M14.993 21.211s1.316-1.348 2.656 0" stroke="#1D1D1B" stroke-width="1.068" stroke-linecap="round"/><path d="M29.598 19.943a6.042 6.042 0 1 1-12.085 0 6.042 6.042 0 0 1 12.085 0zM15.127 19.943a6.042 6.042 0 1 1-12.085 0 6.042 6.042 0 0 1 12.085 0z" stroke="#1D1D1B" stroke-width="1.068"/><path d="M19.748 22.006s-.106 2.345 1.456 2.745c0 0 1.367.655 2-2.745 0 0-1.71 1.911-3.456 0M9.677 22.006s-.106 2.345 1.456 2.745c0 0 1.367.655 2-2.745 0 0-1.71 1.911-3.456 0" fill="#CDB4A1"/><path d="M22.763 22.006c-1.565 1.637-2.573 0-2.573 0M10.104 22.006s1.008 1.637 2.573 0" stroke="#1D1D1B" stroke-linecap="round"/><path d="M27.672 15.657c0 1.207-.42 1.727-.935 1.727-.517 0-.937-.52-.937-1.727 0-1.208.937-2.94.937-2.94s.935 1.732.935 2.94" fill="#FCFCFC"/><path d="M27.672 15.657c0 1.207-.42 1.727-.935 1.727-.517 0-.937-.52-.937-1.727 0-1.208.937-2.94.937-2.94s.935 1.732.935 2.94z" stroke="#1D1D1B" stroke-width=".718" stroke-linecap="round" stroke-linejoin="round"/><path d="M28.537 19.385c0 .762-.264 1.119-.59 1.119-.327 0-.59-.357-.59-1.12 0-.761.59-1.855.59-1.855s.59 1.094.59 1.856" fill="#FCFCFC"/><path d="M28.537 19.385c0 .762-.264 1.119-.59 1.119-.327 0-.59-.357-.59-1.12 0-.761.59-1.855.59-1.855s.59 1.094.59 1.856z" stroke="#1D1D1B" stroke-width=".453" stroke-linecap="round" stroke-linejoin="round"/></g></svg><svg width="5" height="6" viewBox="0 0 5 6" id="icon_plus" x="430" y="90" xmlns="http://www.w3.org/2000/svg"><path d="M2.091 5.303v-1.7H.461v-.94h1.63V.953h1.01v1.71h1.64v.94h-1.64v1.7z" fill="#3D4367" fill-rule="evenodd"/></svg><svg width="5" height="6" viewBox="0 0 5 6" id="icon_plus_white" x="430" y="84" xmlns="http://www.w3.org/2000/svg"><path fill="#FFF" d="M2.091 5.303v-1.7H.461v-.94h1.63V.953h1.01v1.71h1.64v.94h-1.64v1.7z"/></svg><svg width="12" height="21" viewBox="0 0 12 21" id="icon_prev_page" x="418" y="84" xmlns="http://www.w3.org/2000/svg"><path d="M10.82.21a.654.654 0 0 1 .47.196c.13.13.194.29.194.479a.65.65 0 0 1-.195.478L2.383 10.27l8.789 8.789a.64.64 0 0 1 .195.468.64.64 0 0 1-.195.47.65.65 0 0 1-.479.194.65.65 0 0 1-.478-.195L.957 10.738a.64.64 0 0 1-.195-.468.64.64 0 0 1 .195-.47L10.352.407a.68.68 0 0 1 .469-.195z" fill="#ED744A" fill-rule="evenodd"/></svg><svg width="35" height="35" viewBox="0 0 35 35" id="icon_rest" x="321" y="180" xmlns="http://www.w3.org/2000/svg"><defs><rect id="aub" x=".45" y=".374" width="28.802" height="28.802" rx="14.401"/><filter x="-19.1%" y="-12.2%" width="138.2%" height="138.2%" filterUnits="objectBoundingBox" id="aua"><feOffset dy="2" in="SourceAlpha" result="shadowOffsetOuter1"/><feGaussianBlur stdDeviation="1.5" in="shadowOffsetOuter1" result="shadowBlurOuter1"/><feComposite in="shadowBlurOuter1" in2="SourceAlpha" operator="out" result="shadowBlurOuter1"/><feColorMatrix values="0 0 0 0 0 0 0 0 0 0 0 0 0 0 0 0 0 0 0.252915534 0" in="shadowBlurOuter1"/></filter></defs><g fill="none" fill-rule="evenodd"><g fill-rule="nonzero" transform="translate(2.015 1.059)"><use fill="#000" filter="url(#aua)" xlink:href="#aub"/><rect stroke="#4A90E2" stroke-width="1.12" stroke-linejoin="square" fill="#FFF" fill-rule="evenodd" x="1.01" y=".934" width="27.682" height="27.682" rx="13.841"/></g><path stroke="#4A90E2" stroke-width=".96" d="M11.092 9.586h12.063v5.875H11.092z"/><path d="M10.993 15.344c-.666.756-1.04 1.707-1.118 2.871h14.497c-.076-1.165-.436-2.118-1.077-2.874a2152.416 2152.416 0 0 1-6.328.019c-2.908.004-5.008 0-5.974-.016z" stroke="#4A90E2" stroke-width=".96"/><path fill="#4A90E2" fill-rule="nonzero" d="M10.787 10.93H23.46v1H10.787zM10.787 13.06H23.46v1H10.787zM9.38 18.695h1v4.928h-1zM23.907 18.695h1v4.928h-1zM12.584 18.695h1v3.584h-1zM21.068 18.695h1v3.584h-1z"/></g></svg><svg width="19" height="19" viewBox="0 0 19 19" id="icon_search" x="418" y="105" xmlns="http://www.w3.org/2000/svg"><g fill="none" transform="translate(-3.475 -3.14)"><ellipse cx="11.235" cy="10.438" stroke="#ED744A" stroke-width="2.2" rx="5.735" ry="5.965"/><path fill="#ED744A" d="M13.793 14.755l1.555-1.556 7 7-1.555 1.556z"/></g></svg><svg width="47" height="13" viewBox="0 0 47 13" id="icon_sort" x="365" y="296" xmlns="http://www.w3.org/2000/svg"><g fill="#888282" fill-rule="evenodd"><text font-family="AppleSDGothicNeo-SemiBold, Apple SD Gothic Neo" font-size="13" font-weight="500" letter-spacing=".181" transform="translate(-1 -2)"><tspan x=".5" y="12.594">인기순 </tspan></text><path fill-rule="nonzero" d="M42 10l-4.5-8h9z"/></g></svg><svg width="25" height="26" viewBox="0 0 25 26" id="icon_spot_map" x="294" y="266" xmlns="http://www.w3.org/2000/svg"><defs><circle id="axb" cx="10.83" cy="10.964" r="10.596"/><filter id="axa" width="137.8%" height="137.8%" x="-18.9%" y="-9.4%" filterUnits="objectBoundingBox"><feOffset dy="2" in="SourceAlpha" result="shadowOffsetOuter1"/><feGaussianBlur in="shadowOffsetOuter1" result="shadowBlurOuter1" stdDeviation="1"/><feComposite in="shadowBlurOuter1" in2="SourceAlpha" operator="out" result="shadowBlurOuter1"/><feColorMatrix in="shadowBlurOuter1" values="0 0 0 0 0 0 0 0 0 0 0 0 0 0 0 0 0 0 0.252915534 0"/></filter></defs><g fill="none"><g transform="translate(2)"><use fill="#000" filter="url(#axa)" xlink:href="#axb"/><circle cx="10.83" cy="10.964" r="10.176" fill="#FFF" fill-rule="evenodd" stroke="#ED744A" stroke-linejoin="square" stroke-width=".84"/></g><path fill="#ED744A" d="M12.83 13.964l-3.527 1.854.673-3.927L7.123 9.11l3.943-.573 1.764-3.573 1.763 3.573 3.943.573-2.853 2.78.673 3.928z"/></g></svg><svg width="25" height="26" viewBox="0 0 25 26" id="icon_spot_map_active" x="319" y="266" xmlns="http://www.w3.org/2000/svg"><defs><circle id="ayb" cx="10.83" cy="10.964" r="10.596"/><filter id="aya" width="137.8%" height="137.8%" x="-18.9%" y="-9.4%" filterUnits="objectBoundingBox"><feOffset dy="2" in="SourceAlpha" result="shadowOffsetOuter1"/><feGaussianBlur in="shadowOffsetOuter1" result="shadowBlurOuter1" stdDeviation="1"/><feColorMatrix in="shadowBlurOuter1" values="0 0 0 0 0 0 0 0 0 0 0 0 0 0 0 0 0 0 0.252915534 0"/></filter></defs><g fill="none"><g transform="translate(2)"><use fill="#000" filter="url(#aya)" xlink:href="#ayb"/><use fill="#ED744A" xlink:href="#ayb"/></g><path fill="#FFF" d="M12.83 13.964l-3.527 1.854.673-3.927L7.123 9.11l3.943-.573 1.764-3.573 1.763 3.573 3.943.573-2.853 2.78.673 3.928z"/></g></svg><svg width="9" height="8" viewBox="0 0 9 8" id="icon_star" x="418" y="171" xmlns="http://www.w3.org/2000/svg"><path d="M4.17 6.462L1.698 7.658l.472-2.533-2-1.793 2.764-.37L4.17.658l1.236 2.304 2.764.37-2 1.793.472 2.533z" fill="#F8C11C" fill-rule="nonzero"/></svg><svg width="72" height="64" viewBox="0 0 72 64" id="icon_triumph" x="365" xmlns="http://www.w3.org/2000/svg"><defs><path id="baa" d="M0 .294h70.835V63.12H0z"/><path d="M67.835 19.545v-1.333l3-6.704v-1.332h-3V5.55l.944-1.333V2.483h-1.603V1.202h-4.6v1.281H59.74V1.202h-4.6v1.281h-2.835V1.202h-4.6v1.281h-2.833V1.202h-4.6v1.281h-2.835V1.202h-4.6v1.281h-2.834V1.202h-4.6v1.281H22.57V1.202h-4.6v1.281h-2.834V1.202h-4.6v1.281H7.7V1.202h-4.6v1.281H1.772v1.734l.739 1.333v4.626H0v1.332l2.51 6.704v1.333h.887v13.568H1.895v1.868h1.85V61.48h20.858V34.98h1.848v-1.868h-.287v-1.67c0-5.08 4.125-9.198 9.213-9.198 5.087 0 9.212 4.118 9.212 9.198v1.67h-.255v1.868h1.848V61.48h20.859V34.98h1.85v-1.868h-1.85V19.545h.794z" id="bad"/><filter x="-3.1%" y="-3.6%" width="109%" height="110.6%" filterUnits="objectBoundingBox" id="bac"><feMorphology radius="1.2" operator="dilate" in="SourceAlpha" result="shadowSpreadOuter1"/><feOffset dx="1" dy="1" in="shadowSpreadOuter1" result="shadowOffsetOuter1"/><feGaussianBlur stdDeviation=".5" in="shadowOffsetOuter1" result="shadowBlurOuter1"/><feComposite in="shadowBlurOuter1" in2="SourceAlpha" operator="out" result="shadowBlurOuter1"/><feColorMatrix values="0 0 0 0 0 0 0 0 0 0 0 0 0 0 0 0 0 0 0.5 0" in="shadowBlurOuter1"/></filter><path id="bae" d="M0 60.62h70.835V1.028H0z"/></defs><g fill="none" fill-rule="evenodd"><g transform="translate(.233 .183)"><mask id="bab" fill="#fff"><use xlink:href="#baa"/></mask><g mask="url(#bab)"><use fill="#000" filter="url(#bac)" xlink:href="#bad"/><path stroke="#FFF" stroke-width="1.2" d="M67.64 20.145v12.368h1.85v3.068h-1.85V62.08H45.583V35.58h-1.848v-3.068h.255v-1.07c0-4.748-3.856-8.598-8.612-8.598-4.757 0-8.613 3.85-8.613 8.598v1.07h.287v3.068h-1.848V62.08H3.144V35.58h-1.85v-3.068h1.503V20.145H1.91V18.32l-2.473-6.602-.038-.21V9.576h2.51v-3.87l-.738-1.334V1.883h1.33V.602h5.8v1.281h1.634V.602h5.8v1.281h1.634V.602h5.8v1.281h1.634V.602h5.8v1.281h1.634V.602h5.8v1.281h1.635V.602h5.8v1.281h1.633V.602h5.8v1.281h1.635V.602h5.8v1.281h1.635V.602h5.8v1.281h1.603v2.525l-.944 1.333v3.835h3v2.06l-3 6.704v1.805h-.794z" fill="#B7A77C"/></g></g><path fill="#B7A77C" d="M2.744 10.836h65.324V6.263H2.744zM.233 12.154l2.51 6.628h65.325l3-6.628z"/><path fill="#7A7967" d="M.233 12.154h70.835v-1.318H.233zM68.068 6.264H2.744l-.739-1.318h67.007zM2.744 20.1h65.324v-1.318H2.744z"/><path fill="#B7A77C" d="M3.63 33.514h21.205V20.1H3.63zM3.978 61.557h20.858V35.361H3.978z"/><g transform="translate(.233 .937)"><path d="M20.612 57.581H7.388V44.208c0-3.674 2.96-6.652 6.612-6.652s6.612 2.978 6.612 6.652V57.58z" fill="#F8F2D5"/><path d="M24.57 19.163v13.413h1.594v-1.65c0-5.023 4.124-9.094 9.212-9.094 5.09 0 9.213 4.071 9.213 9.093v1.651h1.594V19.163H24.57z" fill="#ACA28D"/><mask id="baf" fill="#fff"><use xlink:href="#bae"/></mask><path fill="#7A7967" mask="url(#baf)" d="M5.596 29.976h16.807v-8.213H5.596zM1.895 34.424h24.556v-1.847H1.895z"/><path fill="#C5B385" mask="url(#baf)" d="M45.836 32.577h21.205V19.163H45.836zM46.183 60.62H67.04V34.424H46.183z"/><path d="M63.051 57.581H49.827V44.208c0-3.674 2.96-6.652 6.612-6.652s6.612 2.978 6.612 6.652V57.58z" fill="#F8F2D5" mask="url(#baf)"/><path fill="#7A7967" mask="url(#baf)" d="M48.035 29.976h16.807v-8.213H48.035zM44.333 34.424H68.89v-1.847H44.333z"/><path fill="#B7A77C" mask="url(#baf)" d="M67.175 2.294V1.028h-4.6v1.266h-2.834V1.028h-4.6v1.266h-2.834V1.028h-4.6v1.266h-2.834V1.028h-4.6v1.266h-2.835V1.028h-4.6v1.266h-2.833V1.028h-4.6v1.266H22.57V1.028h-4.6v1.266h-2.835V1.028h-4.6v1.266H7.702V1.028h-4.6v1.266h-1.33v1.714H68.78V2.294z"/></g></g></svg><svg width="18" height="12" viewBox="0 0 18 12" id="iocn_hamburger" x="418" y="124" xmlns="http://www.w3.org/2000/svg"><path d="M.777 7.035V5.23h11v1.804h-11zm0-6.402h16.5V2.48H.777V.633zm0 11V9.785h5.5v1.848h-5.5z" fill="#1D1D1B" fill-rule="evenodd"/></svg><svg width="114" height="66" viewBox="0 0 114 66" id="layer_incline_1" x="114" y="180" xmlns="http://www.w3.org/2000/svg"><defs><filter id="bca" width="113.2%" height="124.1%" x="-6.6%" y="-8.6%" filterUnits="objectBoundingBox"><feOffset dy="2" in="SourceAlpha" result="shadowOffsetOuter1"/><feGaussianBlur in="shadowOffsetOuter1" result="shadowBlurOuter1" stdDeviation="2"/><feColorMatrix in="shadowBlurOuter1" result="shadowMatrixOuter1" values="0 0 0 0 0 0 0 0 0 0 0 0 0 0 0 0 0 0 0.5 0"/><feMerge><feMergeNode in="shadowMatrixOuter1"/><feMergeNode in="SourceGraphic"/></feMerge></filter></defs><g fill="none" fill-rule="evenodd" filter="url(#bca)" transform="translate(4 2)"><path fill="#FFF" fill-rule="nonzero" d="M81.608 58L74 48h15.216z"/><rect width="105.272" height="48.483" fill="#FFF" fill-rule="nonzero" rx="4"/><path fill="#ED744A" d="M18.334 38.165c0 1.352-1.391 2.197-3.874 2.197-2.444 0-3.861-.845-3.861-2.197s1.417-2.21 3.861-2.21c2.483 0 3.874.858 3.874 2.21zm-3.874-1.274c-1.664 0-2.665.481-2.665 1.274s1.001 1.261 2.665 1.261c1.716 0 2.704-.468 2.704-1.261 0-.793-.988-1.274-2.704-1.274zm.286-2.548v-.923h2.366v-1.378h-2.236v-.923h2.236V29h1.157v7.033h-1.157v-1.69h-2.366zm-.013-4.472c-.156 2.951-2.08 5.018-5.07 6.045L9 34.98c2.223-.572 4.095-2.21 4.459-4.16h-3.9v-.949h5.174zm15.632 4.602h-1.768v5.889h-1.144V29h1.144v4.524h1.768v.949zm-3.848 2.262l-.69.858c-1.013-.663-2.34-2.08-2.768-3.393-.39 1.378-1.521 2.821-2.808 3.679l-.715-.858c1.716-1.079 2.925-3.055 2.925-5.148v-1.898h1.183v1.846c0 2.132 1.274 3.926 2.873 4.914zm14.435 2.184H30.695v-.936h4.524v-1.794H31.93v-3.653h6.604v-1.664h-6.63v-.936h7.774v3.536h-6.604v1.781h6.916v.936h-3.614v1.794h4.576v.936zm22.236-.013v-.676l2.002-2.08c1.235-1.287 2.093-2.275 2.093-3.497 0-1.131-.546-1.677-1.768-1.677-.728 0-1.43.351-1.937.689l-.273-.884c.546-.364 1.443-.78 2.43-.78 1.795 0 2.757.975 2.757 2.535 0 1.534-1.001 2.652-2.431 4.095l-1.3 1.313h3.9v.962h-5.473zm16.528-3.705H69.46v-.949h4.095V32.12h1.157v2.132h5.005v.949zm-.858 4.264l-.559.923c-1.638-.247-3.328-1.404-3.86-2.444-.482 1.066-2.263 2.184-3.823 2.418l-.585-.923c2.054-.117 3.848-1.612 3.848-2.951v-.442h1.17v.442c0 1.313 1.898 2.821 3.81 2.977zm-.48-9.958c0 .429 0 .832-.014 1.209-.026 1.04-.143 2.119-.338 2.834a32.1 32.1 0 0 0-1.105-.143c.26-1.001.286-1.976.286-2.977h-6.526v-.923h7.696zM18.892 14.525l-.624.91c-1.781-.507-3.614-1.924-4.147-3.211-.455 1.3-2.301 2.717-4.147 3.198l-.585-.936c1.859-.325 4.147-1.95 4.147-3.861v-.78h1.183v.78c0 1.898 2.444 3.562 4.173 3.9zm.364 4.394H9v-.936h4.524v-2.821h1.157v2.821h4.576v.936zm9.977-6.214c0 1.768-1.69 2.938-4.238 2.938-2.535 0-4.225-1.17-4.225-2.938 0-1.768 1.69-2.951 4.225-2.951 2.56 0 4.238 1.183 4.238 2.951zm-1.183 0c0-1.196-1.21-2.002-3.055-2.002-1.833 0-3.042.806-3.042 2.002 0 1.183 1.209 1.989 3.042 1.989 1.833 0 3.055-.806 3.055-1.989zm2.08 6.214H19.874v-.936h2.457v-2.015l1.157-.039v2.054h3.003v-2.054l1.144.039v2.015h2.496v.936zm10.015 1.443h-1.144V9h1.144v11.362zm-2.496-3.588l-.689.858c-1.014-.702-2.327-2.054-2.743-3.38-.403 1.391-1.52 2.834-2.808 3.679l-.715-.845c1.703-1.079 2.912-3.055 2.912-5.148v-1.937h1.196v1.885c0 2.132 1.274 3.978 2.847 4.888zM52.1 13.42h-1.703v3.952h-1.157V9h1.157v3.458h1.703v.962zm-1.365 6.643H43.22v-3.562h1.144v2.626h6.37v.936zm-8.671-10.14h5.148c-.091 3.094-2.171 5.33-5.148 6.201l-.585-.936c2.353-.572 4.16-2.327 4.472-4.316h-3.887v-.949zm21.277 9.035v-7.644l-1.586.351v-.663l2.106-.975h.624v8.931H63.34zm5.973.104c-2.002 0-3.055-1.443-3.055-3.913v-.676c0-3.133 1.43-4.459 3.458-4.459.884 0 1.703.299 2.054.52l-.286.845c-.338-.195-1.092-.403-1.651-.403-1.456 0-2.301.728-2.418 3.354.468-.468 1.183-.91 2.132-.91 1.482 0 2.626 1.014 2.626 2.665 0 1.677-1.053 2.977-2.86 2.977zm-.026-.923c1.092 0 1.755-.715 1.755-1.937 0-1.339-.728-1.846-1.742-1.846-.806 0-1.534.559-1.885 1.053v.091c0 1.599.52 2.639 1.872 2.639zm12.602-4.381h-7.696V9.364h1.157v1.339h5.395V9.351h1.144v4.407zm-3.224 4.199h-1.144v-2.093H72.92v-.936h10.257v.936h-4.51v2.093zm3.315 2.067h-7.787v-3.12h1.157v2.184h6.63v.936zm-1.235-7.202v-1.209H75.35v1.209h5.395zM91.342 28.99a.364.364 0 0 1-.132-.024.32.32 0 0 1-.112-.073.32.32 0 0 1-.098-.235.32.32 0 0 1 .098-.234l4.463-4.463-4.395-4.385a.325.325 0 0 1-.098-.24c0-.093.033-.173.098-.238a.325.325 0 0 1 .24-.098c.094 0 .173.033.239.098l4.619 4.629a.32.32 0 0 1 .097.234.32.32 0 0 1-.097.234l-4.688 4.698a.34.34 0 0 1-.234.098z"/></g></svg><svg width="114" height="66" viewBox="0 0 114 66" id="layer_incline_1_active" y="180" xmlns="http://www.w3.org/2000/svg"><defs><filter id="bda" width="113.2%" height="123.7%" x="-6.6%" y="-8.5%" filterUnits="objectBoundingBox"><feOffset dy="2" in="SourceAlpha" result="shadowOffsetOuter1"/><feGaussianBlur in="shadowOffsetOuter1" result="shadowBlurOuter1" stdDeviation="2"/><feColorMatrix in="shadowBlurOuter1" result="shadowMatrixOuter1" values="0 0 0 0 0 0 0 0 0 0 0 0 0 0 0 0 0 0 0.5 0"/><feMerge><feMergeNode in="shadowMatrixOuter1"/><feMergeNode in="SourceGraphic"/></feMerge></filter></defs><g fill="none" fill-rule="evenodd" filter="url(#bda)" transform="translate(4 2)"><rect width="105.272" height="48.483" x=".403" y=".911" fill="#ED744A" fill-rule="nonzero" rx="4"/><path fill="#ED744A" fill-rule="nonzero" d="M81.631 58.394l-7.608-10h15.216z"/><path fill="#FFF" d="M18.776 38.866c0 1.352-1.391 2.197-3.874 2.197-2.444 0-3.861-.845-3.861-2.197s1.417-2.21 3.86-2.21c2.484 0 3.875.858 3.875 2.21zm-3.874-1.274c-1.664 0-2.665.48-2.665 1.274 0 .793 1 1.26 2.665 1.26 1.716 0 2.704-.467 2.704-1.26 0-.793-.988-1.274-2.704-1.274zm.286-2.548v-.923h2.366v-1.378h-2.236v-.923h2.236V29.7h1.157v7.034h-1.157v-1.69h-2.366zm-.013-4.472c-.156 2.95-2.08 5.018-5.07 6.045l-.663-.936c2.223-.572 4.095-2.21 4.459-4.16H10v-.95h5.174zm15.631 4.602h-1.768v5.889h-1.144V29.7h1.144v4.524h1.768v.949zm-3.848 2.262l-.689.858c-1.014-.663-2.34-2.08-2.769-3.393-.39 1.378-1.52 2.82-2.808 3.679l-.715-.858c1.716-1.08 2.925-3.055 2.925-5.148v-1.898h1.183v1.846c0 2.132 1.274 3.926 2.873 4.914zm14.436 2.184H31.137v-.936h4.524V36.89h-3.289v-3.653h6.604v-1.664h-6.63v-.936h7.774v3.536h-6.604v1.78h6.916v.937h-3.614v1.794h4.576v.936zm22.236-.013v-.676l2.002-2.08c1.235-1.287 2.093-2.275 2.093-3.497 0-1.131-.546-1.677-1.768-1.677-.728 0-1.43.35-1.937.689l-.273-.884c.546-.364 1.443-.78 2.43-.78 1.795 0 2.757.975 2.757 2.535 0 1.534-1.001 2.652-2.431 4.095l-1.3 1.313h3.9v.962H63.63zm16.528-3.705H69.901v-.95h4.095v-2.131h1.157v2.132h5.005v.949zm-.858 4.264l-.559.923c-1.638-.247-3.328-1.404-3.86-2.444-.482 1.066-2.263 2.184-3.823 2.418l-.585-.923c2.054-.117 3.848-1.612 3.848-2.951v-.442h1.17v.442c0 1.313 1.898 2.82 3.81 2.977zm-.48-9.958c0 .429 0 .832-.014 1.209-.026 1.04-.143 2.119-.338 2.834a32.1 32.1 0 0 0-1.105-.143c.26-1.001.286-1.976.286-2.977h-6.526v-.923h7.696zM19.282 15.27l-.624.91c-1.781-.507-3.614-1.924-4.147-3.21-.455 1.3-2.301 2.716-4.147 3.197l-.585-.936c1.859-.325 4.147-1.95 4.147-3.86v-.78h1.183v.78c0 1.897 2.444 3.561 4.173 3.9zm.364 4.394H9.39v-.936h4.524v-2.82h1.157v2.82h4.576v.936zm9.976-6.214c0 1.768-1.69 2.938-4.238 2.938-2.535 0-4.225-1.17-4.225-2.938 0-1.768 1.69-2.95 4.225-2.95 2.561 0 4.238 1.182 4.238 2.95zm-1.183 0c0-1.196-1.209-2.002-3.055-2.002-1.833 0-3.042.806-3.042 2.002 0 1.183 1.21 1.99 3.042 1.99 1.833 0 3.055-.807 3.055-1.99zm2.08 6.214H20.263v-.936h2.457v-2.015l1.157-.039v2.054h3.003v-2.054l1.144.04v2.014h2.496v.936zm10.016 1.443h-1.144V9.745h1.144v11.362zM38.04 17.52l-.689.858c-1.014-.702-2.327-2.054-2.743-3.38-.403 1.391-1.521 2.834-2.808 3.68l-.715-.846c1.703-1.079 2.912-3.055 2.912-5.148v-1.937h1.196v1.885c0 2.132 1.274 3.978 2.847 4.888zm14.449-3.354h-1.703v3.952h-1.157V9.745h1.157v3.458h1.703v.962zm-1.365 6.643H43.61v-3.562h1.144v2.626h6.37v.936zm-8.671-10.14H47.6c-.091 3.094-2.171 5.33-5.148 6.201l-.585-.936c2.353-.572 4.16-2.327 4.472-4.316h-3.887v-.949zm21.277 9.035V12.06l-1.586.351v-.663l2.106-.975h.624v8.931H63.73zm5.972.104c-2.002 0-3.055-1.443-3.055-3.913v-.676c0-3.133 1.43-4.459 3.458-4.459.884 0 1.703.3 2.054.52l-.286.845c-.338-.195-1.092-.403-1.65-.403-1.457 0-2.302.728-2.419 3.354.468-.468 1.183-.91 2.132-.91 1.482 0 2.626 1.014 2.626 2.665 0 1.677-1.053 2.977-2.86 2.977zm-.026-.923c1.092 0 1.755-.715 1.755-1.937 0-1.339-.728-1.846-1.742-1.846-.806 0-1.534.56-1.885 1.053v.091c0 1.6.52 2.64 1.872 2.64zm12.603-4.38h-7.696v-4.395h1.157v1.34h5.395v-1.353h1.144v4.407zm-3.224 4.198h-1.144V16.61h-4.602v-.936h10.257v.936h-4.511v2.093zm3.315 2.067h-7.787v-3.12h1.157v2.184h6.63v.936zm-1.235-7.202v-1.209H75.74v1.21h5.395zm10.76 16.326a.364.364 0 0 1-.132-.025.32.32 0 0 1-.112-.073.32.32 0 0 1-.097-.234.32.32 0 0 1 .097-.235l4.463-4.463-4.394-4.384a.325.325 0 0 1-.098-.24c0-.094.032-.174.098-.239a.325.325 0 0 1 .239-.097c.094 0 .174.032.24.097l4.618 4.63a.32.32 0 0 1 .098.233.32.32 0 0 1-.098.235l-4.687 4.697a.34.34 0 0 1-.234.098z"/></g></svg><svg width="132" height="68" viewBox="0 0 132 68" id="layer_incline_2" x="233" xmlns="http://www.w3.org/2000/svg"><defs><filter id="bea" width="111.3%" height="123%" x="-5.6%" y="-8.2%" filterUnits="objectBoundingBox"><feOffset dy="2" in="SourceAlpha" result="shadowOffsetOuter1"/><feGaussianBlur in="shadowOffsetOuter1" result="shadowBlurOuter1" stdDeviation="2"/><feColorMatrix in="shadowBlurOuter1" result="shadowMatrixOuter1" values="0 0 0 0 0 0 0 0 0 0 0 0 0 0 0 0 0 0 0.5 0"/><feMerge><feMergeNode in="shadowMatrixOuter1"/><feMergeNode in="SourceGraphic"/></feMerge></filter></defs><g fill="none" fill-rule="evenodd" filter="url(#bea)" transform="translate(4 2)"><rect width="122.524" height="51.341" x=".588" y=".095" fill="#FFF" fill-rule="nonzero" rx="4"/><path fill="#FFF" fill-rule="nonzero" d="M24.631 60.435l-7.608-10h15.216z"/><path fill="#4A90E2" d="M21.804 15.706l-.624.91c-1.78-.507-3.614-1.924-4.147-3.211-.455 1.3-2.3 2.717-4.147 3.198l-.585-.936c1.86-.325 4.147-1.95 4.147-3.861v-.78h1.183v.78c0 1.898 2.444 3.562 4.173 3.9zm.364 4.394H11.911v-.936h4.524v-2.821h1.157v2.82h4.576v.937zm9.977-6.214c0 1.768-1.69 2.938-4.238 2.938-2.535 0-4.225-1.17-4.225-2.938 0-1.768 1.69-2.951 4.225-2.951 2.56 0 4.238 1.183 4.238 2.95zm-1.183 0c0-1.196-1.21-2.002-3.055-2.002-1.833 0-3.042.806-3.042 2.002 0 1.183 1.209 1.989 3.042 1.989 1.833 0 3.055-.806 3.055-1.99zm2.08 6.214H22.785v-.936h2.457v-2.015l1.157-.04v2.055h3.003V17.11l1.144.039v2.015h2.496v.936zm10.015 1.443h-1.144V10.18h1.144v11.362zm-2.496-3.588l-.689.858c-1.014-.702-2.327-2.054-2.743-3.38-.403 1.39-1.52 2.834-2.808 3.679l-.715-.845c1.703-1.08 2.912-3.055 2.912-5.148v-1.937h1.196v1.885c0 2.132 1.274 3.978 2.847 4.888zM55.01 14.6h-1.703v3.952H52.15V10.18h1.157v3.458h1.703v.962zm-1.365 6.643h-7.514v-3.562h1.144v2.626h6.37v.936zm-8.671-10.14h5.148c-.091 3.094-2.171 5.33-5.148 6.2l-.585-.935c2.353-.572 4.16-2.327 4.472-4.316h-3.887v-.95zm32.05 8.983v-.676l2.003-2.08c1.235-1.287 2.093-2.275 2.093-3.497 0-1.131-.546-1.677-1.768-1.677-.728 0-1.43.35-1.937.689l-.273-.884c.546-.364 1.443-.78 2.43-.78 1.795 0 2.757.975 2.757 2.535 0 1.534-1.001 2.652-2.431 4.095l-1.3 1.313h3.9v.962h-5.473zm9.535.169c-1.924 0-3.107-.962-3.107-2.392 0-1.144.962-1.937 1.924-2.314-.923-.377-1.664-1.027-1.664-2.145 0-1.287 1.092-2.223 2.808-2.223 1.677 0 2.808.793 2.808 2.158 0 1.053-.845 1.677-1.742 2.132 1.066.35 2.08.975 2.08 2.275 0 1.417-1.183 2.509-3.107 2.509zm-.026-.923c1.118 0 1.924-.611 1.924-1.47 0-1.04-.702-1.442-2.17-1.897-.846.286-1.69.91-1.69 1.833 0 .936.792 1.534 1.936 1.534zm.208-4.277c.78-.338 1.417-.858 1.417-1.664 0-.741-.559-1.287-1.612-1.287-1 0-1.625.468-1.625 1.274 0 .87.663 1.39 1.82 1.677zm12.68-.117h-7.695v-4.394h1.157v1.339h5.395v-1.352h1.144v4.407zm-3.223 4.199h-1.144v-2.093h-4.602v-.936h10.257v.936h-4.511v2.093zm3.315 2.067h-7.787v-3.12h1.157v2.184h6.63v.936zm-1.235-7.202v-1.21h-5.395v1.21h5.395zM22.648 34.38l-.52.923c-1.69-.247-3.484-1.17-4.095-2.236-.52 1.079-2.249 2.015-4.082 2.275l-.52-.923c1.768-.208 3.627-1.027 3.978-2.301h-3.47v-.936h8.19v.936h-3.446c.364 1.26 2.275 2.093 3.965 2.262zm-4.056 6.162h-1.157v-3.55h-4.524v-.948h10.257v.949h-4.576v3.549zM19.88 30.26h-3.692v-.936h3.692v.936zm10.562 5.096l-.585.923c-.962-.286-2.21-1.248-2.691-2.262-.351 1.014-1.547 2.158-2.795 2.587l-.637-.91c1.508-.468 2.769-1.742 2.834-3.237h-2.535v-.936h6.2v.936H27.75c.065 1.495 1.39 2.574 2.69 2.899zm2.665-6.175v8.294h-1.157v-3.458h-1.95v-.936h1.95v-3.9h1.157zm.247 11.01h-7.618V36.76h1.144v2.509h6.474v.923zm-4.628-9.658h-3.146v-.936h3.146v.936zm12.927 6.448l-.676.858c-1.092-.637-2.43-2.067-2.795-3.328-.325 1.339-1.495 2.795-2.847 3.588l-.728-.832c1.73-1.014 2.977-2.873 2.977-5.096v-.91H35.01v-.936h6.305v.936h-2.548v.91c0 2.197 1.274 3.939 2.886 4.81zm1.222-7.8h1.157v11.362h-1.157V29.18zm5.661.61c1.586 0 2.886 1.119 2.886 2.718s-1.287 2.652-2.886 2.652c-1.573 0-2.873-1.04-2.873-2.652 0-1.586 1.287-2.717 2.873-2.717zm0 .963c-1.027 0-1.742.767-1.742 1.742 0 1.014.728 1.742 1.742 1.742 1.053 0 1.742-.728 1.742-1.73 0-.987-.663-1.754-1.742-1.754zm3.237.87l-.013-.948h1.937V29.18h1.157v6.617h-1.157V34.29h-1.937l.013-.962h1.924v-1.703h-1.924zm-4.641 4.772h7.722v4.16h-1.157v-3.237h-6.565v-.923zm37.066 2.69v-.675l2.002-2.08c1.235-1.287 2.093-2.275 2.093-3.497 0-1.131-.546-1.677-1.768-1.677-.728 0-1.43.35-1.937.689l-.273-.884c.546-.364 1.443-.78 2.431-.78 1.794 0 2.756.975 2.756 2.535 0 1.534-1 2.652-2.43 4.095l-1.3 1.313h3.9v.962h-5.474zm16.529-3.704H90.469v-.95h4.095v-2.131h1.157v2.132h5.005v.949zm-.858 4.264l-.56.923c-1.637-.247-3.327-1.404-3.86-2.444-.481 1.066-2.262 2.184-3.822 2.418l-.585-.923c2.054-.117 3.848-1.612 3.848-2.951v-.442h1.17v.442c0 1.313 1.898 2.82 3.809 2.977zm-.481-9.958c0 .429 0 .832-.013 1.209-.026 1.04-.143 2.119-.338 2.834a32.1 32.1 0 0 0-1.105-.143c.26-1.001.286-1.976.286-2.977H91.69v-.923h7.696z"/><path fill="#FFF" stroke="#4A90E2" stroke-width="2" d="M111.303 31.373a.364.364 0 0 1-.132-.025.32.32 0 0 1-.113-.073.32.32 0 0 1-.097-.234.32.32 0 0 1 .097-.235l4.463-4.462-4.394-4.385a.325.325 0 0 1-.098-.24c0-.094.033-.174.098-.239a.325.325 0 0 1 .239-.097c.094 0 .174.032.24.097l4.618 4.63a.32.32 0 0 1 .098.234.32.32 0 0 1-.098.234l-4.687 4.697a.34.34 0 0 1-.234.098z"/></g></svg><svg width="132" height="68" viewBox="0 0 132 68" id="layer_incline_2_active" x="233" y="68" xmlns="http://www.w3.org/2000/svg"><defs><filter id="bfa" width="111.3%" height="123%" x="-5.6%" y="-8.2%" filterUnits="objectBoundingBox"><feOffset dy="2" in="SourceAlpha" result="shadowOffsetOuter1"/><feGaussianBlur in="shadowOffsetOuter1" result="shadowBlurOuter1" stdDeviation="2"/><feColorMatrix in="shadowBlurOuter1" result="shadowMatrixOuter1" values="0 0 0 0 0 0 0 0 0 0 0 0 0 0 0 0 0 0 0.5 0"/><feMerge><feMergeNode in="shadowMatrixOuter1"/><feMergeNode in="SourceGraphic"/></feMerge></filter></defs><g fill="none" fill-rule="evenodd" filter="url(#bfa)" transform="translate(4 2)"><rect width="122.524" height="51.341" x=".588" y=".095" fill="#4A90E2" fill-rule="nonzero" rx="4"/><path fill="#4A90E2" fill-rule="nonzero" d="M24.631 60.435l-7.608-10h15.216z"/><path fill="#FFF" d="M21.804 15.706l-.624.91c-1.78-.507-3.614-1.924-4.147-3.211-.455 1.3-2.3 2.717-4.147 3.198l-.585-.936c1.86-.325 4.147-1.95 4.147-3.861v-.78h1.183v.78c0 1.898 2.444 3.562 4.173 3.9zm.364 4.394H11.911v-.936h4.524v-2.821h1.157v2.82h4.576v.937zm9.977-6.214c0 1.768-1.69 2.938-4.238 2.938-2.535 0-4.225-1.17-4.225-2.938 0-1.768 1.69-2.951 4.225-2.951 2.56 0 4.238 1.183 4.238 2.95zm-1.183 0c0-1.196-1.21-2.002-3.055-2.002-1.833 0-3.042.806-3.042 2.002 0 1.183 1.209 1.989 3.042 1.989 1.833 0 3.055-.806 3.055-1.99zm2.08 6.214H22.785v-.936h2.457v-2.015l1.157-.04v2.055h3.003V17.11l1.144.039v2.015h2.496v.936zm10.015 1.443h-1.144V10.18h1.144v11.362zm-2.496-3.588l-.689.858c-1.014-.702-2.327-2.054-2.743-3.38-.403 1.39-1.52 2.834-2.808 3.679l-.715-.845c1.703-1.08 2.912-3.055 2.912-5.148v-1.937h1.196v1.885c0 2.132 1.274 3.978 2.847 4.888zM55.01 14.6h-1.703v3.952H52.15V10.18h1.157v3.458h1.703v.962zm-1.365 6.643h-7.514v-3.562h1.144v2.626h6.37v.936zm-8.671-10.14h5.148c-.091 3.094-2.171 5.33-5.148 6.2l-.585-.935c2.353-.572 4.16-2.327 4.472-4.316h-3.887v-.95zm32.05 8.983v-.676l2.003-2.08c1.235-1.287 2.093-2.275 2.093-3.497 0-1.131-.546-1.677-1.768-1.677-.728 0-1.43.35-1.937.689l-.273-.884c.546-.364 1.443-.78 2.43-.78 1.795 0 2.757.975 2.757 2.535 0 1.534-1.001 2.652-2.431 4.095l-1.3 1.313h3.9v.962h-5.473zm9.535.169c-1.924 0-3.107-.962-3.107-2.392 0-1.144.962-1.937 1.924-2.314-.923-.377-1.664-1.027-1.664-2.145 0-1.287 1.092-2.223 2.808-2.223 1.677 0 2.808.793 2.808 2.158 0 1.053-.845 1.677-1.742 2.132 1.066.35 2.08.975 2.08 2.275 0 1.417-1.183 2.509-3.107 2.509zm-.026-.923c1.118 0 1.924-.611 1.924-1.47 0-1.04-.702-1.442-2.17-1.897-.846.286-1.69.91-1.69 1.833 0 .936.792 1.534 1.936 1.534zm.208-4.277c.78-.338 1.417-.858 1.417-1.664 0-.741-.559-1.287-1.612-1.287-1 0-1.625.468-1.625 1.274 0 .87.663 1.39 1.82 1.677zm12.68-.117h-7.695v-4.394h1.157v1.339h5.395v-1.352h1.144v4.407zm-3.223 4.199h-1.144v-2.093h-4.602v-.936h10.257v.936h-4.511v2.093zm3.315 2.067h-7.787v-3.12h1.157v2.184h6.63v.936zm-1.235-7.202v-1.21h-5.395v1.21h5.395zM22.648 34.38l-.52.923c-1.69-.247-3.484-1.17-4.095-2.236-.52 1.079-2.249 2.015-4.082 2.275l-.52-.923c1.768-.208 3.627-1.027 3.978-2.301h-3.47v-.936h8.19v.936h-3.446c.364 1.26 2.275 2.093 3.965 2.262zm-4.056 6.162h-1.157v-3.55h-4.524v-.948h10.257v.949h-4.576v3.549zM19.88 30.26h-3.692v-.936h3.692v.936zm10.562 5.096l-.585.923c-.962-.286-2.21-1.248-2.691-2.262-.351 1.014-1.547 2.158-2.795 2.587l-.637-.91c1.508-.468 2.769-1.742 2.834-3.237h-2.535v-.936h6.2v.936H27.75c.065 1.495 1.39 2.574 2.69 2.899zm2.665-6.175v8.294h-1.157v-3.458h-1.95v-.936h1.95v-3.9h1.157zm.247 11.01h-7.618V36.76h1.144v2.509h6.474v.923zm-4.628-9.658h-3.146v-.936h3.146v.936zm12.927 6.448l-.676.858c-1.092-.637-2.43-2.067-2.795-3.328-.325 1.339-1.495 2.795-2.847 3.588l-.728-.832c1.73-1.014 2.977-2.873 2.977-5.096v-.91H35.01v-.936h6.305v.936h-2.548v.91c0 2.197 1.274 3.939 2.886 4.81zm1.222-7.8h1.157v11.362h-1.157V29.18zm5.661.61c1.586 0 2.886 1.119 2.886 2.718s-1.287 2.652-2.886 2.652c-1.573 0-2.873-1.04-2.873-2.652 0-1.586 1.287-2.717 2.873-2.717zm0 .963c-1.027 0-1.742.767-1.742 1.742 0 1.014.728 1.742 1.742 1.742 1.053 0 1.742-.728 1.742-1.73 0-.987-.663-1.754-1.742-1.754zm3.237.87l-.013-.948h1.937V29.18h1.157v6.617h-1.157V34.29h-1.937l.013-.962h1.924v-1.703h-1.924zm-4.641 4.772h7.722v4.16h-1.157v-3.237h-6.565v-.923zm37.066 2.69v-.675l2.002-2.08c1.235-1.287 2.093-2.275 2.093-3.497 0-1.131-.546-1.677-1.768-1.677-.728 0-1.43.35-1.937.689l-.273-.884c.546-.364 1.443-.78 2.431-.78 1.794 0 2.756.975 2.756 2.535 0 1.534-1 2.652-2.43 4.095l-1.3 1.313h3.9v.962h-5.474zm16.529-3.704H90.469v-.95h4.095v-2.131h1.157v2.132h5.005v.949zm-.858 4.264l-.56.923c-1.637-.247-3.327-1.404-3.86-2.444-.481 1.066-2.262 2.184-3.822 2.418l-.585-.923c2.054-.117 3.848-1.612 3.848-2.951v-.442h1.17v.442c0 1.313 1.898 2.82 3.809 2.977zm-.481-9.958c0 .429 0 .832-.013 1.209-.026 1.04-.143 2.119-.338 2.834a32.1 32.1 0 0 0-1.105-.143c.26-1.001.286-1.976.286-2.977H91.69v-.923h7.696zm11.916 1.685a.364.364 0 0 1-.132-.025.32.32 0 0 1-.113-.073.32.32 0 0 1-.097-.234.32.32 0 0 1 .097-.235l4.463-4.462-4.394-4.385a.325.325 0 0 1-.098-.24c0-.094.033-.174.098-.239a.325.325 0 0 1 .239-.097c.094 0 .174.032.24.097l4.618 4.63a.32.32 0 0 1 .098.234.32.32 0 0 1-.098.234l-4.687 4.697a.34.34 0 0 1-.234.098z"/></g></svg><svg width="78" height="20" viewBox="0 0 78 20" id="title_header_aside" x="228" y="215" xmlns="http://www.w3.org/2000/svg"><path d="M6.568 4.203c0 .16-.12.34-.34.6 2.16.34 3.74 1.98 3.74 4.08 0 .52-.1 1-.26 1.44.38.02.86.02 1.44.02.66 0 1.4-.04 2.24-.12v-3.66c-.46.02-.84.06-1.08.1-.5.08-.82.32-1 .32-.16 0-.34-.04-.52-.12-.44-.18-.92-.42-1.36-.74-.14-.1-.22-.22-.22-.32 0-.18.16-.26.46-.22.44.04 1.04.06 1.84.06.56 0 1.18-.02 1.88-.1v-3.02c-.22-.46-.78-.86-1.62-1.22-.22-.1-.34-.22-.34-.36 0-.2.32-.3 1-.3.72 0 1.54.18 2.5.54.38.14.56.36.56.64 0 .24-.1.9-.1 1.16v11.06c0 3.78-.46 5.66-1.36 5.66-.42 0-.64-.96-.64-2.86v-5.6c-.62.02-1.1.06-1.42.12-.26.04-.44.1-.58.18-.2.1-.34.14-.42.14-.14 0-.3-.04-.48-.12-.38-.14-.76-.32-1.14-.54-.78 1.24-2.26 2.02-3.98 2.02-2.58 0-4.6-1.76-4.6-4.16 0-2.22 1.76-3.92 4.1-4.14.14-.12.2-.26.2-.36 0-.32-.48-.46-.48-.62 0-.18.16-.24.48-.24.3 0 .7.08 1.16.28.24.1.34.24.34.4zm-3.82 4.58c0 1.52 1.14 2.62 2.64 2.62 1.5 0 2.66-1.1 2.66-2.62 0-1.5-1.16-2.62-2.66-2.62-1.5 0-2.64 1.12-2.64 2.62zm26.21.58c0 1.88-1.94 2.88-3.7 2.88-1.78 0-3.7-.98-3.7-2.88 0-1.7 1.58-2.64 3.18-2.8.06-.08.1-.16.1-.24 0-.1-.06-.2-.18-.3-.52.02-.96.04-1.28.06-.34.04-.64.12-.96.26-.18.08-.3.12-.4.12-.14 0-.28-.04-.44-.1-.62-.3-1.12-.6-1.48-.92-.18-.14-.28-.3-.28-.44 0-.16.16-.22.46-.18.72.1 1.4.14 2.06.16 1.28.02 2.64-.02 3.66-.08.52-.04.9-.12 1.18-.22.38-.18.7-.28.96-.28.38 0 .72.04 1.08.14.42.1.64.32.64.68 0 .54-.3.78-.94.76-.66-.02-1.32-.04-1.92-.02-.34 0-.64 0-.96.02.1.08.16.16.16.22 0 .12-.06.24-.16.4 1.5.24 2.92 1.18 2.92 2.76zm-2.16 6.64c0-1.66 1.56-3.08 3.94-3.18.04-.06.06-.12.06-.2 0-.22-.46-.42-.46-.66 0-.14.16-.22.5-.22.34 0 .72.1 1.14.28.2.1.32.24.32.42 0 .12-.08.28-.24.48 1.92.34 3.16 1.62 3.16 3.08 0 1.84-1.7 3.36-4.22 3.36-2.52 0-4.2-1.52-4.2-3.36zm9.06-7.26c0 .76-.04 1.5-.1 2.2-.16 1.44-.54 2.16-1.2 2.16-.44 0-.68-.56-.68-1.68v-3.36l-1.72.04c-.02.42-.06.88-.1 1.36-.14 1.28-.52 1.92-1.16 1.92-.4 0-.6-.52-.6-1.52v-6.28c-.24-.5-.72-.88-1.44-1.16-.22-.1-.34-.22-.34-.36 0-.2.34-.3 1.02-.3.52 0 1.24.16 2.2.46.36.12.52.34.52.62 0 .3-.08.54-.08 1.2v2.88l1.7-.04v-4.4c-.24-.46-.74-.86-1.54-1.18-.22-.1-.34-.22-.34-.38 0-.18.32-.28 1-.28.64 0 1.46.18 2.42.52.36.14.54.34.54.66 0 .22-.1.6-.1 1.22v5.7zm-7 7.24c0 1.02.94 1.82 2.24 1.82 1.3 0 2.26-.8 2.26-1.82 0-1-.96-1.82-2.26-1.82-1.32 0-2.24.82-2.24 1.82zm-1.7-6.82c0-.84-.82-1.48-1.8-1.48-1.02 0-1.84.64-1.84 1.48 0 .88.82 1.52 1.84 1.52.98 0 1.8-.64 1.8-1.52zm.26-5.64c0 .46-.28.68-.88.68-.38 0-.98.02-1.8.06-.14.02-.28.02-.46.04s-.42-.06-.68-.24c-.42-.28-.82-.62-1.14-.98-.14-.14-.2-.26-.2-.38 0-.16.12-.24.38-.24.1 0 .22.02.38.04 1.1.22 2.28.36 3.54.38.58 0 .86.2.86.64zm27.792-.02c0 .14-.14.36-.42.64-.26 2.98-.76 5.68-1.54 7.88-.24.58-.5.86-.84.86-.26 0-.38-.2-.34-.6.16-1.46.26-2.88.32-4.26-2.06.5-4.24.86-6.44 1.16-.88.14-1.24.48-1.46.48-.12 0-.24-.02-.38-.08-.68-.26-1.42-.62-2.2-1.1-.24-.16-.34-.3-.34-.48s.2-.26.56-.22c.88.12 1.82.16 2.82.1 2.34-.12 4.86-.3 7.48-.76.04-1 .04-1.94.04-2.86-1.84-.02-3.68.02-5.28.12-.84.06-1.44.18-1.82.4-.16.08-.32.12-.46.12-.1 0-.24-.04-.4-.1a8.63 8.63 0 0 1-2.02-1.04c-.2-.14-.3-.28-.3-.42 0-.18.18-.28.54-.24.74.14 1.6.2 2.58.2 2.28.02 4.58-.06 6.72-.22.3 0 .86-.24 1.12-.24.58 0 1.1.06 1.56.2.34.12.5.26.5.46zm2.38 11.88c0 .2-.06.4-.18.54-.14.18-.42.26-.78.24-.3-.02-.98-.04-2.04-.06-3.2-.06-6.72.02-9.78.24-.96.08-1.64.2-2 .4-.2.1-.38.14-.48.14-.06 0-.18-.02-.38-.06-.64-.14-1.32-.54-2.16-1.18-.2-.18-.3-.32-.3-.46 0-.18.16-.26.5-.2.84.14 1.76.22 2.8.22 1.12.02 2.56 0 4.18-.04l-.06-3.04c-.28-.32-.72-.6-1.28-.78-.24-.06-.38-.18-.38-.32 0-.18.48-.38.88-.38.52 0 1.3.1 2.32.32.36.06.5.32.44.8-.04.26-.06.5-.06.68l-.08 2.66c1.1-.04 2.26-.08 3.46-.14 1.04-.04 1.64-.12 1.84-.24.36-.22.66-.32.92-.32.6 0 1.24.08 1.9.26.48.1.72.34.72.72zm12.79-11.54c0 .18-.06.38-.18.58-.3.5-.64 1.02-1.02 1.52l2.26 1.34c.54.26 1.06.42 1.56.5.48.02.9.18 1.16.38 1.2 1.08 1.82 1.8 1.78 2.18 0 .46-.2.68-.62.68-.22 0-.54-.14-.88-.36l-6.06-3.76c-.66.74-1.38 1.42-2.12 2.04-1.38 1.14-3.14 2.14-4.8 2.84-.24.1-.42.16-.54.16-.16 0-.28-.1-.28-.28 0-.14.12-.26.32-.4 1.2-.72 2.6-1.8 3.84-3.04 1.3-1.32 2.42-2.88 2.98-4.08-.1-.2-.28-.42-.58-.62-.26-.18-.54-.32-.78-.48-.18-.1-.26-.22-.26-.34 0-.2.26-.32.78-.32.34 0 .84.12 1.56.34.64.18 1.12.38 1.5.56.26.12.38.32.38.56zm7.12 11.44c0 .24-.06.46-.18.6-.14.18-.42.26-.78.24-.3-.02-.98-.04-2.04-.06-3.2-.06-6.72.02-9.78.24-.96.08-1.64.2-2 .4-.2.1-.38.14-.48.14-.02 0-.14-.02-.38-.06-.62-.1-1.32-.54-2.16-1.26-.2-.18-.3-.32-.3-.46 0-.18.16-.26.5-.2.84.14 1.76.22 2.8.22 2.22.02 5.62-.06 9.42-.24 1.04-.04 1.64-.12 1.84-.26.36-.2.66-.3.92-.3.6 0 1.24.08 1.9.24.48.12.72.38.72.76z" fill="#1D1D1B" fill-rule="evenodd"/></svg><svg width="95" height="20" viewBox="0 0 95 20" id="title_header_attraction" x="233" y="156" xmlns="http://www.w3.org/2000/svg"><path d="M5.8 4.103c0 .16-.12.34-.34.6 2.16.34 3.74 1.98 3.74 4.08 0 .52-.1 1-.26 1.44.38.02.86.02 1.44.02.66 0 1.4-.04 2.24-.12v-3.66c-.46.02-.84.06-1.08.1-.5.08-.82.32-1 .32-.16 0-.34-.04-.52-.12-.44-.18-.92-.42-1.36-.74-.14-.1-.22-.22-.22-.32 0-.18.16-.26.46-.22.44.04 1.04.06 1.84.06.56 0 1.18-.02 1.88-.1v-3.02c-.22-.46-.78-.86-1.62-1.22-.22-.1-.34-.22-.34-.36 0-.2.32-.3 1-.3.72 0 1.54.18 2.5.54.38.14.56.36.56.64 0 .24-.1.9-.1 1.16v11.06c0 3.78-.46 5.66-1.36 5.66-.42 0-.64-.96-.64-2.86v-5.6c-.62.02-1.1.06-1.42.12-.26.04-.44.1-.58.18-.2.1-.34.14-.42.14-.14 0-.3-.04-.48-.12-.38-.14-.76-.32-1.14-.54-.78 1.24-2.26 2.02-3.98 2.02-2.58 0-4.6-1.76-4.6-4.16 0-2.22 1.76-3.92 4.1-4.14.14-.12.2-.26.2-.36 0-.32-.48-.46-.48-.62 0-.18.16-.24.48-.24.3 0 .7.08 1.16.28.24.1.34.24.34.4zm-3.82 4.58c0 1.52 1.14 2.62 2.64 2.62 1.5 0 2.66-1.1 2.66-2.62 0-1.5-1.16-2.62-2.66-2.62-1.5 0-2.64 1.12-2.64 2.62zm26.211.58c0 1.88-1.94 2.88-3.7 2.88-1.78 0-3.7-.98-3.7-2.88 0-1.7 1.58-2.64 3.18-2.8.06-.08.1-.16.1-.24 0-.1-.06-.2-.18-.3-.52.02-.96.04-1.28.06-.34.04-.64.12-.96.26-.18.08-.3.12-.4.12-.14 0-.28-.04-.44-.1-.62-.3-1.12-.6-1.48-.92-.18-.14-.28-.3-.28-.44 0-.16.16-.22.46-.18.72.1 1.4.14 2.06.16 1.28.02 2.64-.02 3.66-.08.52-.04.9-.12 1.18-.22.38-.18.7-.28.96-.28.38 0 .72.04 1.08.14.42.1.64.32.64.68 0 .54-.3.78-.94.76-.66-.02-1.32-.04-1.92-.02-.34 0-.64 0-.96.02.1.08.16.16.16.22 0 .12-.06.24-.16.4 1.5.24 2.92 1.18 2.92 2.76zm-2.16 6.64c0-1.66 1.56-3.08 3.94-3.18.04-.06.06-.12.06-.2 0-.22-.46-.42-.46-.66 0-.14.16-.22.5-.22.34 0 .72.1 1.14.28.2.1.32.24.32.42 0 .12-.08.28-.24.48 1.92.34 3.16 1.62 3.16 3.08 0 1.84-1.7 3.36-4.22 3.36-2.52 0-4.2-1.52-4.2-3.36zm9.06-7.26c0 .76-.04 1.5-.1 2.2-.16 1.44-.54 2.16-1.2 2.16-.44 0-.68-.56-.68-1.68v-3.36l-1.72.04c-.02.42-.06.88-.1 1.36-.14 1.28-.52 1.92-1.16 1.92-.4 0-.6-.52-.6-1.52v-6.28c-.24-.5-.72-.88-1.44-1.16-.22-.1-.34-.22-.34-.36 0-.2.34-.3 1.02-.3.52 0 1.24.16 2.2.46.36.12.52.34.52.62 0 .3-.08.54-.08 1.2v2.88l1.7-.04v-4.4c-.24-.46-.74-.86-1.54-1.18-.22-.1-.34-.22-.34-.38 0-.18.32-.28 1-.28.64 0 1.46.18 2.42.52.36.14.54.34.54.66 0 .22-.1.6-.1 1.22v5.7zm-7 7.24c0 1.02.94 1.82 2.24 1.82 1.3 0 2.26-.8 2.26-1.82 0-1-.96-1.82-2.26-1.82-1.32 0-2.24.82-2.24 1.82zm-1.7-6.82c0-.84-.82-1.48-1.8-1.48-1.02 0-1.84.64-1.84 1.48 0 .88.82 1.52 1.84 1.52.98 0 1.8-.64 1.8-1.52zm.26-5.64c0 .46-.28.68-.88.68-.38 0-.98.02-1.8.06-.14.02-.28.02-.46.04s-.42-.06-.68-.24c-.42-.28-.82-.62-1.14-.98-.14-.14-.2-.26-.2-.38 0-.16.12-.24.38-.24.1 0 .22.02.38.04 1.1.22 2.28.36 3.54.38.58 0 .86.2.86.64zm22.931.9c0 .14-.1.3-.32.52-.06.08-.14.18-.2.28-.62 1.4-1.4 2.72-2.36 3.94l1.04 1.04c.34.36.8.66 1.46.86.34.14.56.32.72.5.3.42.54.86.7 1.32.06.18.14.44.14.62 0 .42-.3.62-.62.62-.22 0-.52-.22-.86-.56l-3.36-3.42c-1.64 1.84-3.66 3.46-6.02 4.78-.1.04-.18.06-.28.06-.18 0-.28-.1-.28-.3 0-.1.1-.22.28-.36 3.26-2.54 5.76-5.74 7.1-9.16-1.24.02-2.4.08-3.06.16-.38.04-.68.16-.92.3-.16.1-.28.14-.38.14-.14 0-.28-.02-.42-.08-.46-.18-1.02-.5-1.64-.92-.18-.12-.28-.24-.28-.38 0-.2.12-.28.38-.24.54.06 1.32.1 2.28.12 1.48 0 2.96-.04 3.98-.14.16-.02.3-.06.44-.12.22-.1.36-.14.46-.14.44 0 .94.06 1.58.2.3.06.44.18.44.36zm4.74-2.6c0 .24-.08.9-.08 1.16v11.06c0 3.78-.46 5.66-1.36 5.66-.42 0-.64-.96-.64-2.86V2.423c-.22-.46-.78-.86-1.62-1.22-.22-.1-.34-.22-.34-.36 0-.2.32-.3 1-.3.72 0 1.54.18 2.5.54.38.14.54.36.54.64zm20.031 8.5c0 .88-.06 1.74-.18 2.58-.2 1.26-.56 1.9-1.16 1.9-.44 0-.66-.64-.66-1.92v-5.36c-.48.02-.92.08-1.32.12-.22.06-.82.34-.98.34-.14 0-.28-.04-.46-.1-.46-.2-.92-.46-1.44-.78-.16-.1-.24-.2-.24-.32 0-.18.16-.24.5-.22.62.04 1.24.06 1.82.04.7 0 1.42-.04 2.12-.12v-3.98c-.22-.44-.78-.84-1.62-1.2-.22-.1-.34-.22-.34-.36 0-.2.32-.3 1-.3.72 0 1.54.18 2.5.54.38.14.56.36.56.64 0 .3-.08.4-.1 1.16v7.34zm-7.64-6.6c0 .16-.04.28-.08.4-.28.9-.74 1.82-1.32 2.72l1.48 1.32c.38.36.98.5 1.5.7.16.06.26.14.32.2.36.44.72 1 .92 1.56.08.24.14.48.14.66-.02.4-.2.6-.62.58-.22.02-.56-.2-.92-.56l-3.5-3.48c-.26.34-.52.68-.8 1-1.24 1.44-2.8 2.74-4.14 3.48-.24.14-.42.18-.54.18-.18-.02-.28-.08-.28-.26 0-.16.12-.3.34-.48 1.14-1 2.5-2.66 3.36-4.02.6-.96 1.36-2.48 1.72-3.7-.12-.28-.52-.58-1.12-.9-.28-.16-.4-.28-.4-.42 0-.18.22-.3.7-.28.18 0 .32.02.46.04.88.16 1.64.42 2.38.74.26.12.42.28.4.52zm8.9 13.9c0 .54-.32.82-.96.82-3.38-.02-5.94-.02-7.68.04-.9.02-1.52-.14-1.84-.5-.2-.26-.32-.72-.32-1.3l-.02-2.3c-.16-.22-.72-.44-1.68-.66-.24-.06-.36-.16-.36-.36 0-.22.58-.42.92-.42 1.22 0 2.1.06 2.68.16.42.06.58.34.52.82-.02.26-.04.5-.04.72v2.22c0 .32.16.5.5.52 1.12.02 2.16.02 3.12-.04.84-.06 1.48-.18 1.86-.36.38-.16.7-.24.9-.24 1.32-.06 2.4.02 2.4.88zm15.431-9.04c0 .6-.04 1.3-.12 2.06-.14 1.3-.52 1.92-1.16 1.92-.4 0-.6-.5-.6-1.5v-.62c-1 .3-2.16.58-3.14.8-1.14.24-2.36.48-3.46.62-.38.04-.68.04-.92-.04-.26-.06-.52-.28-.72-.66-.18-.3-.24-.66-.24-1.14l-.02-5.18c-.18-.3-.58-.54-1.18-.76-.3-.1-.46-.2-.46-.32 0-.22.46-.44.84-.44.72 0 1.32.04 1.84.14.3.06.52.12.68.2.56.02 1.28.02 1.68 0 .36-.04.68-.14.94-.3.22-.14.44-.2.62-.22.42-.08.84-.08 1.1 0 .52.1.78.32.78.7 0 .52-.34.78-1.04.8-1.6.06-3.1.1-3.78.14-.02.18-.02.36-.02.56v1.68l.9-.06c.84-.08 1.32-.48 1.62-.5.44-.02 1.02-.02 1.36.02.48.06.72.28.72.66 0 .46-.26.7-.82.72-1.04.04-2.42.08-3.78.14v1.86c-.02.26.1.38.36.38.96 0 2-.06 2.86-.16 1.14-.14 2.34-.3 3.28-.5v-6.06c-.24-.48-.72-.84-1.44-1.14-.22-.1-.34-.22-.34-.36 0-.2.34-.3 1.02-.3.52 0 1.24.16 2.2.46.36.12.52.32.52.62s-.08.54-.08 1.2v2.5l1.8-.04v-3.98c-.24-.46-.74-.86-1.54-1.18-.22-.1-.34-.22-.34-.38 0-.18.32-.28 1-.28.64 0 1.46.18 2.44.52.34.14.52.34.52.66 0 .22-.1.6-.1 1.22v5.14c0 .78-.04 1.5-.1 2.2-.14 1.44-.54 2.18-1.2 2.18-.44 0-.68-.56-.68-1.7v-3.24l-1.8.04v.92zm3.6 5.7l-.1 1.88c-.02.58-.08 1.16-.16 1.66-.18 1.26-.58 1.88-1.16 1.88-.46 0-.68-.6-.68-1.82v-3.48c-1.72 0-3.24.06-4.6.16-.82.06-1.44.2-1.82.4-.24.1-.42.16-.52.16-.12 0-.24-.02-.38-.08-.82-.36-1.5-.72-2.02-1.1-.22-.18-.34-.32-.34-.44 0-.2.16-.26.5-.2.76.12 1.62.18 2.62.18 1.86.02 3.94-.06 6.2-.2.24-.02.82-.2 1.06-.2.46 0 .88.06 1.24.16.28.1.42.22.42.38 0 .14-.08.36-.26.66z" fill="#241E1E" fill-rule="evenodd"/></svg><svg width="58" height="20" viewBox="0 0 58 20" id="title_header_effiel" x="365" y="64" xmlns="http://www.w3.org/2000/svg"><path d="M6.06 4.343c0 .16-.12.34-.34.62 1.6.3 2.86 1.42 3.22 2.94.32 0 .64 0 .98-.02.28 0 .56-.02.88-.04v-4.1c-.22-.48-.7-.84-1.4-1.12-.84-.28-.2-.66.64-.66.54 0 1.26.16 2.22.46.36.12.52.32.52.62 0 .26-.08.56-.08 1.2v8.32c0 1.1-.04 2.16-.14 3.2-.14 1.7-.54 2.54-1.16 2.54-.4 0-.6-.96-.6-2.9v-6.54c-.26.06-.48.12-.6.18-.22.1-.38.16-.52.16-.14-.02-.3-.06-.48-.14-.06-.02-.1-.06-.14-.08-.1 2.14-1.98 3.72-4.22 3.72-2.32 0-4.22-1.66-4.22-3.92 0-2.08 1.64-3.66 3.72-3.88.16-.14.22-.28.22-.38 0-.32-.48-.46-.48-.62 0-.18.16-.24.48-.24.3 0 .7.08 1.16.28.24.1.34.24.34.4zm10.22-2.62c0 .22-.1.6-.1 1.24v10.94c0 1.02-.04 2.06-.14 3.1-.14 1.74-.52 2.6-1.16 2.6-.44 0-.68-.96-.68-2.84V2.383c-.22-.46-.74-.86-1.54-1.18-.22-.1-.34-.22-.34-.36 0-.2.32-.3 1-.3.64 0 1.46.18 2.44.52.34.14.52.34.52.66zM2.52 8.683c0 1.4 1.04 2.38 2.34 2.38 1.28 0 2.34-.98 2.34-2.38 0-1.36-1.06-2.38-2.34-2.38-1.3 0-2.34 1.02-2.34 2.38zm34.651 9.06c0 .54-.34.84-.96.84-2.44-.02-5.62 0-8.2.06-.64.02-1.2-.12-1.46-.42-.3-.32-.38-.7-.38-1.16v-1.22c-.28-.32-.66-.54-1.18-.68-.24-.06-.36-.18-.36-.38 0-.22.18-.32.58-.32.82 0 1.6.06 2.26.16.02 0 .42.16 1.16.16 1.08 0 3.1-.04 4.58-.14.06-.02.12-.08.18-.18.06-.48.08-1.1.06-1.36-1.4-.02-3.26 0-4.34.12-.7.06-1.18.14-1.42.26-.12.08-.26.12-.38.12-.18 0-.32-.02-.44-.08-.64-.28-1.22-.64-1.74-1.02-.16-.14-.24-.26-.24-.4 0-.18.16-.24.5-.18.62.1 1.34.16 2.14.18 1.64.04 3.94-.02 5.66-.16.42-.02.62-.2.96-.2.58 0 1.16.06 1.74.2.24.04.34.14.34.34 0 .12-.1.3-.34.5-.06.08-.12.16-.14.22-.12.46-.34 1.16-.5 1.54.54.18.68.42.68.68 0 .34-.24.5-.7.5-1.76 0-4.5.04-6.84.16-.02.14-.04.28-.04.42v.78c0 .26.14.4.4.4 1.1.04 2.82.02 3.76-.06.6-.04 1.08-.16 1.54-.36.36-.12.64-.2.84-.2 1.52 0 2.28.28 2.28.88zm-8.72-11.72c-.04.12-.08.28-.12.48.44.04.84.04 1.24.02.36 0 .76-.02 1.2-.06v-3.1c-.24-.48-.72-.86-1.42-1.14-.24-.1-.36-.22-.36-.36 0-.2.36-.3 1.02-.3.52 0 1.28.16 2.22.46.34.12.5.32.5.62s-.08.54-.08 1.2v3.48c0 .58-.04 1.28-.12 2.04-.12 1.3-.52 1.92-1.14 1.92-.42 0-.62-.5-.62-1.5v-2.32c-.14.02-.26.04-.38.04-.44.06-.76.32-.92.32-.1 0-.2-.04-.36-.1-.28-.12-.62-.3-1-.54-.26.86-.52 1.58-.84 2.4.74-.1 1.42-.22 2.02-.36.1-.02.18-.04.28-.04.22 0 .34.1.34.28 0 .16-.12.28-.34.36-.96.36-1.94.64-2.98.88-.78.2-1.58.34-2.46.46-.16.02-.42.1-.74.24-.32.14-.54.22-.64.22-.12 0-.24-.02-.36-.08-.68-.28-1.3-.62-1.88-1.06-.2-.14-.3-.28-.3-.44 0-.2.18-.28.5-.24.78.1 1.6.12 2.46.1.82-.02 1.84-.1 2.98-.2.24-1.24.34-2.22.4-3.38-.06-.24-.38-.5-.98-.82-.18-.08-.26-.2-.26-.34 0-.2.24-.28.72-.28.5 0 1.2.14 2.1.46.32.1.42.34.32.68zm7.66.9c0 .74-.04 1.48-.1 2.18-.16 1.44-.56 2.18-1.22 2.18-.44 0-.68-.58-.68-1.7v-7.2c-.22-.44-.74-.84-1.54-1.16-.22-.1-.34-.22-.34-.38 0-.18.32-.28 1-.28.64 0 1.46.18 2.44.52.36.14.54.36.54.66 0 .22-.1.58-.1 1.22v3.96zm-6.48-3.24c0 .54-.32.78-.9.76-.7-.04-1.36-.06-2.04-.04-.82.02-2.08.06-2.86.14-.18.02-.44.08-.76.2-.32.1-.52.16-.58.16-.1 0-.24-.04-.38-.1-.56-.28-1.02-.56-1.46-.88-.18-.14-.28-.26-.28-.4 0-.2.16-.28.48-.22.62.08 1.32.12 2.06.14.94.02 2.2 0 2.88-.06.56-.06.96-.12 1.18-.22.4-.2.7-.3.88-.3.34 0 .74.06 1.14.16.44.1.64.32.64.66zm-5.22 4.3c0 .3-.3.8-.54 1.12-.18.22-.36.34-.58.34-.28 0-.44-.18-.46-.52-.04-.48-.1-.98-.2-1.5-.06-.26-.16-.64-.3-1.16-.06-.26-.1-.44-.1-.52 0-.18.12-.3.34-.3.14 0 .32.12.52.32.66.72 1.32 1.56 1.32 2.22zm25.191-1.4c0 .52-.32.78-.98.8-1.32.04-3 .1-4.84.18v1.6c-.02.26.12.38.38.38 1.52 0 3.08-.06 4.42-.22 1.28-.16 2.44-.32 3.56-.52v-6.38c-.24-.46-.76-.86-1.6-1.22-.22-.1-.34-.22-.34-.36 0-.2.32-.3 1-.3.68 0 1.52.18 2.48.54.36.14.56.36.56.64 0 .24-.1.9-.1 1.16v3.56c.14-.02.28-.02.42-.04.2-.02.34-.08.42-.16.24-.2.48-.32.72-.38.6-.12 1.12-.1 1.66.08.34.1.5.34.5.66 0 .52-.3.78-.9.8-.32 0-1.24.02-2.82.06-.02.52-.08 1-.12 1.46-.18 1.44-.58 2.16-1.24 2.16-.38 0-.6-.46-.64-1.42-.98.3-2.1.56-3.4.84-1.64.3-3.42.54-5.1.72-.42.04-.74.04-.98-.04-.54-.16-1-.92-.96-1.82v-4.96c-.2-.34-.64-.6-1.36-.8-.3-.08-.46-.18-.46-.32 0-.24.46-.46.84-.46.74 0 1.46.06 2.12.18.26.06.5.14.68.22.88.02 1.86 0 2.62-.08.36-.06.7-.16 1.02-.32.24-.14.44-.22.6-.24.48-.06.92-.06 1.36 0 .52.1.78.34.78.74 0 .5-.34.78-1.04.82-1.74.04-3.52.1-5.04.18-.04.18-.04.38-.04.56v1.64c.72 0 1.44-.04 2.02-.1.28-.02.6-.12.96-.3.4-.16.64-.24.78-.26.44-.04.86-.04 1.24.02.56.08.82.3.82.7zm-2.36 6.498zm0 0c0-.009 0 .073-.02.262 0 .06 0 .16-.04.32l-.02.6 4.9-.06v-1.26c-.24-.34-.68-.66-1.4-.92-.2-.08-.3-.18-.3-.32 0-.2.46-.36.7-.36.26 0 .7.06 1.4.18.68.14 1.16.24 1.38.32.24.06.36.22.36.48 0 .24-.1.88-.1 1.12l-.06 3.12c0 .54-.06 1.06-.18 1.54-.18.82-.54 1.22-1.1 1.22-.38 0-.62-.34-.68-1.02l-5.04.06c-.18.72-.54 1.06-1.14 1.06-.42 0-.66-.58-.68-1.76l-.12-3.86c-.14-.34-.62-.62-1.44-.88-.22-.06-.34-.18-.34-.32 0-.16.38-.34.68-.34 1.06 0 1.94.06 2.66.18.36.06.58.279.58.638zm4.82 4.082v-1.78l-4.9.06-.04 1.78 4.94-.06z" fill="#241E1E" fill-rule="evenodd"/></svg><svg width="96" height="20" viewBox="0 0 96 20" id="title_header_style" x="233" y="136" xmlns="http://www.w3.org/2000/svg"><path d="M5.8 4.103c0 .16-.12.34-.34.6 2.16.34 3.74 1.98 3.74 4.08 0 .52-.1 1-.26 1.44.38.02.86.02 1.44.02.66 0 1.4-.04 2.24-.12v-3.66c-.46.02-.84.06-1.08.1-.5.08-.82.32-1 .32-.16 0-.34-.04-.52-.12-.44-.18-.92-.42-1.36-.74-.14-.1-.22-.22-.22-.32 0-.18.16-.26.46-.22.44.04 1.04.06 1.84.06.56 0 1.18-.02 1.88-.1v-3.02c-.22-.46-.78-.86-1.62-1.22-.22-.1-.34-.22-.34-.36 0-.2.32-.3 1-.3.72 0 1.54.18 2.5.54.38.14.56.36.56.64 0 .24-.1.9-.1 1.16v11.06c0 3.78-.46 5.66-1.36 5.66-.42 0-.64-.96-.64-2.86v-5.6c-.62.02-1.1.06-1.42.12-.26.04-.44.1-.58.18-.2.1-.34.14-.42.14-.14 0-.3-.04-.48-.12-.38-.14-.76-.32-1.14-.54-.78 1.24-2.26 2.02-3.98 2.02-2.58 0-4.6-1.76-4.6-4.16 0-2.22 1.76-3.92 4.1-4.14.14-.12.2-.26.2-.36 0-.32-.48-.46-.48-.62 0-.18.16-.24.48-.24.3 0 .7.08 1.16.28.24.1.34.24.34.4zm-3.82 4.58c0 1.52 1.14 2.62 2.64 2.62 1.5 0 2.66-1.1 2.66-2.62 0-1.5-1.16-2.62-2.66-2.62-1.5 0-2.64 1.12-2.64 2.62zm26.211.58c0 1.88-1.94 2.88-3.7 2.88-1.78 0-3.7-.98-3.7-2.88 0-1.7 1.58-2.64 3.18-2.8.06-.08.1-.16.1-.24 0-.1-.06-.2-.18-.3-.52.02-.96.04-1.28.06-.34.04-.64.12-.96.26-.18.08-.3.12-.4.12-.14 0-.28-.04-.44-.1-.62-.3-1.12-.6-1.48-.92-.18-.14-.28-.3-.28-.44 0-.16.16-.22.46-.18.72.1 1.4.14 2.06.16 1.28.02 2.64-.02 3.66-.08.52-.04.9-.12 1.18-.22.38-.18.7-.28.96-.28.38 0 .72.04 1.08.14.42.1.64.32.64.68 0 .54-.3.78-.94.76-.66-.02-1.32-.04-1.92-.02-.34 0-.64 0-.96.02.1.08.16.16.16.22 0 .12-.06.24-.16.4 1.5.24 2.92 1.18 2.92 2.76zm-2.16 6.64c0-1.66 1.56-3.08 3.94-3.18.04-.06.06-.12.06-.2 0-.22-.46-.42-.46-.66 0-.14.16-.22.5-.22.34 0 .72.1 1.14.28.2.1.32.24.32.42 0 .12-.08.28-.24.48 1.92.34 3.16 1.62 3.16 3.08 0 1.84-1.7 3.36-4.22 3.36-2.52 0-4.2-1.52-4.2-3.36zm9.06-7.26c0 .76-.04 1.5-.1 2.2-.16 1.44-.54 2.16-1.2 2.16-.44 0-.68-.56-.68-1.68v-3.36l-1.72.04c-.02.42-.06.88-.1 1.36-.14 1.28-.52 1.92-1.16 1.92-.4 0-.6-.52-.6-1.52v-6.28c-.24-.5-.72-.88-1.44-1.16-.22-.1-.34-.22-.34-.36 0-.2.34-.3 1.02-.3.52 0 1.24.16 2.2.46.36.12.52.34.52.62 0 .3-.08.54-.08 1.2v2.88l1.7-.04v-4.4c-.24-.46-.74-.86-1.54-1.18-.22-.1-.34-.22-.34-.38 0-.18.32-.28 1-.28.64 0 1.46.18 2.42.52.36.14.54.34.54.66 0 .22-.1.6-.1 1.22v5.7zm-7 7.24c0 1.02.94 1.82 2.24 1.82 1.3 0 2.26-.8 2.26-1.82 0-1-.96-1.82-2.26-1.82-1.32 0-2.24.82-2.24 1.82zm-1.7-6.82c0-.84-.82-1.48-1.8-1.48-1.02 0-1.84.64-1.84 1.48 0 .88.82 1.52 1.84 1.52.98 0 1.8-.64 1.8-1.52zm.26-5.64c0 .46-.28.68-.88.68-.38 0-.98.02-1.8.06-.14.02-.28.02-.46.04s-.42-.06-.68-.24c-.42-.28-.82-.62-1.14-.98-.14-.14-.2-.26-.2-.38 0-.16.12-.24.38-.24.1 0 .22.02.38.04 1.1.22 2.28.36 3.54.38.58 0 .86.2.86.64zm23.051.32c0 .18-.06.38-.18.58-.3.5-.64 1.02-1.02 1.52l2.26 1.34c.54.26 1.06.42 1.56.5.48.02.9.18 1.16.38 1.2 1.08 1.82 1.8 1.78 2.18 0 .46-.2.68-.62.68-.22 0-.54-.14-.88-.36l-6.06-3.76c-.66.74-1.38 1.42-2.12 2.04-1.38 1.14-3.14 2.14-4.8 2.84-.24.1-.42.16-.54.16-.16 0-.28-.1-.28-.28 0-.14.12-.26.32-.4 1.2-.72 2.6-1.8 3.84-3.04 1.3-1.32 2.42-2.88 2.98-4.08-.1-.2-.28-.42-.58-.62-.26-.18-.54-.32-.78-.48-.18-.1-.26-.22-.26-.34 0-.2.26-.32.78-.32.34 0 .84.12 1.56.34.64.18 1.12.38 1.5.56.26.12.38.32.38.56zm7.12 11.44c0 .24-.06.46-.18.6-.14.18-.42.26-.78.24-.3-.02-.98-.04-2.04-.06-3.2-.06-6.72.02-9.78.24-.96.08-1.64.2-2 .4-.2.1-.38.14-.48.14-.02 0-.14-.02-.38-.06-.62-.1-1.32-.54-2.16-1.26-.2-.18-.3-.32-.3-.46 0-.18.16-.26.5-.2.84.14 1.76.22 2.8.22 2.22.02 5.62-.06 9.42-.24 1.04-.04 1.64-.12 1.84-.26.36-.2.66-.3.92-.3.6 0 1.24.08 1.9.24.48.12.72.38.72.76zm16.331-13.46c0 .24-.1.9-.1 1.16v5.96c.14 0 .32 0 .42-.02.18-.02.32-.08.42-.16.18-.1.42-.22.72-.38.58-.12 1.12-.1 1.66.1.34.1.5.32.5.64 0 .54-.3.8-.9.8-.32.02-1.24.04-2.82.08v4.04c0 3.78-.46 5.66-1.36 5.66-.42 0-.64-.96-.64-2.86v-3.92a30.819 30.819 0 0 1-8.48 1.84c-.58.06-1.06-.02-1.36-.2-.46-.28-.68-1-.68-2.16v-6.96c-.14-.34-.6-.6-1.4-.82-.3-.08-.48-.2-.48-.34 0-.24.48-.44.86-.44.72 0 1.42.06 2.14.2.24.04.48.12.7.24.98.02 1.84-.02 2.54-.12.82-.1 1.36-.54 1.7-.56.46-.06.92-.04 1.42.04.5.08.74.32.74.72 0 .5-.34.76-1.02.78-1.52.04-3.22.14-5.08.24-.02.18-.02.38-.02.56v2.6c.64 0 1.26-.06 1.86-.14.5-.06.86-.18 1.14-.32.24-.14.46-.22.64-.24.48-.04.92-.04 1.28.02.54.1.8.34.8.74 0 .48-.36.74-1.08.76-.96.02-2.54.12-4.64.24v3.08c0 .2.18.3.58.28 2.56-.04 5.18-.34 7.84-.98v-9.46c-.24-.46-.78-.86-1.6-1.22-.22-.1-.34-.22-.34-.36 0-.2.32-.3 1-.3.68 0 1.52.18 2.48.54.36.14.56.36.56.64zm6.871 4.84c0-1.98 1.64-3.5 3.88-3.7.12-.1.2-.22.2-.3 0-.34-.5-.46-.5-.66 0-.14.1-.24.48-.24.3 0 .7.06 1.16.26.24.12.34.26.34.38 0 .16-.12.36-.32.62 2.04.32 3.5 1.76 3.5 3.64 0 2.14-1.88 3.72-4.36 3.72-2.48 0-4.38-1.56-4.38-3.72zm15.18 11.18c0 .54-.34.84-.96.84-2.44-.02-5.68 0-8.26.06-1.12.04-1.74-.44-1.74-1.5v-1.48c-.28-.32-.66-.54-1.18-.68-.24-.06-.36-.18-.36-.38 0-.22.18-.32.58-.32.82 0 1.6.06 2.26.16.02 0 .42.16 1.16.16 1.08 0 3.06-.04 4.54-.14.06-.02.12-.08.18-.18.06-.48.08-1.26.06-1.52-1.4-.02-3.34 0-4.42.12-.7.06-1.18.14-1.42.26-.12.08-.26.12-.38.12-.18 0-.32-.02-.44-.08-.64-.28-1.22-.64-1.74-1.02-.16-.14-.24-.26-.24-.4 0-.18.16-.24.5-.18.62.1 1.34.16 2.14.18 1.64.04 4.02-.02 5.74-.16.42-.02.62-.2.96-.2.58 0 1.16.06 1.74.2.24.04.34.14.34.34 0 .12-.1.3-.34.5-.06.08-.12.16-.14.22-.12.46-.36 1.32-.5 1.7.54.18.68.42.68.68 0 .34-.24.5-.7.5-1.76 0-4.46.04-6.8.16-.02.14-.04.28-.04.42v.96c0 .26.14.4.4.4 1.1.04 2.78.02 3.72-.06.6-.04 1.08-.16 1.54-.36.36-.12.64-.2.84-.2 1.52 0 2.28.28 2.28.88zm-1.14-11c0 .64-.04 1.3-.1 1.88-.18 1.46-.6 2.18-1.26 2.18-.42 0-.64-.6-.64-1.8v-6.6c-.22-.44-.78-.84-1.62-1.2-.22-.1-.34-.22-.34-.36 0-.2.32-.3 1-.3.72 0 1.54.18 2.5.54.38.14.56.36.56.64 0 .24-.1.9-.1 1.16v3.86zm-12.16-.18c0 1.36 1.12 2.34 2.52 2.34s2.54-.98 2.54-2.34c0-1.32-1.14-2.32-2.54-2.32-1.4 0-2.52 1-2.52 2.32z" fill="#241E1E" fill-rule="evenodd"/></svg><svg width="76" height="20" viewBox="0 0 76 20" id="title_index" x="82" y="246" xmlns="http://www.w3.org/2000/svg"><path fill="#241E1E" fill-rule="evenodd" d="M14.42 1.723c0 .24-.1.9-.1 1.16v5.74c.14 0 .32 0 .42-.02.18-.02.32-.08.42-.16.18-.1.42-.22.72-.38.6-.12 1.12-.1 1.66.1.34.1.5.32.5.64 0 .54-.3.8-.9.8-.32.02-1.24.04-2.82.08v4.26c0 3.78-.46 5.66-1.36 5.66-.42 0-.64-.96-.64-2.86v-4.56c-2.88.96-5.78 1.54-8.3 1.72-1.3.1-1.8-.3-1.96-1.22-.04-.24-.06-.66-.06-1.24l-.02-5.92c-.16-.26-.7-.52-1.62-.72-.26-.06-.38-.16-.38-.34 0-.22.58-.42.94-.42 1.04 0 1.94.06 2.68.2.42.06.6.34.54.82-.04.24-.06.48-.06.7v6c-.02.26.14.4.44.4 2.4 0 5.12-.3 7.8-.96v-8.78c-.24-.46-.76-.86-1.6-1.22-.22-.1-.34-.22-.34-.36 0-.2.32-.3 1-.3.68 0 1.52.18 2.48.54.36.14.56.36.56.64zm19.911.02c0 .24-.1.9-.1 1.16v5.94c.14 0 .32 0 .42-.02.18-.02.32-.08.42-.16.18-.1.42-.22.72-.36.6-.14 1.12-.12 1.66.08.34.1.5.32.5.64 0 .54-.3.8-.9.8-.3.02-1.24.04-2.82.08v4.06c0 3.78-.46 5.66-1.36 5.66-.42 0-.64-.96-.64-2.86v-3.6c-2.86.86-5.84 1.5-8.54 1.7-.66.1-1.14-.06-1.48-.38-.24-.22-.38-.58-.42-1.06 0-.2-.02-.6-.02-1.22v-2.82c-.18-.22-.58-.46-1.26-.68-.22-.06-.34-.2-.34-.34 0-.18.38-.32.66-.32.68 0 1.42.04 2.14.14.16.02.4.16.96.16.8 0 2.02-.06 3-.16.12-.02.2-.08.24-.22.06-.56.1-1.94.08-3.26-.74 0-1.82.04-2.56.1-.6.06-1.06.16-1.4.32-.18.08-.32.12-.4.12-.14 0-.3-.02-.44-.08-.66-.28-1.24-.62-1.78-1.04-.16-.14-.24-.26-.24-.36 0-.18.16-.26.5-.2.54.08 1.26.12 2.12.14 1.08.02 2.56-.02 3.78-.12.36-.02.78-.28 1.08-.28.66 0 1.24.08 1.7.24.22.08.34.2.34.36 0 .14-.1.34-.32.54-.08.08-.12.16-.14.24-.26 1.2-.52 2.6-.74 3.38.54.14.8.36.8.68 0 .32-.24.5-.72.52-1.44.06-3.3.16-4.92.26-.02.28-.04.4-.04.42v2.68c0 .26.16.4.5.42 2.54.06 5.26-.22 7.86-.78v-9.8c-.24-.48-.76-.88-1.6-1.24-.22-.1-.34-.22-.34-.36 0-.2.32-.3 1-.3.68 0 1.52.18 2.48.54.36.14.56.36.56.64zm21.111 8.48c0 .88-.06 1.74-.18 2.58-.2 1.26-.56 1.9-1.16 1.9-.44 0-.66-.64-.66-1.92v-5.36c-.48.02-.92.08-1.32.12-.22.06-.82.34-.98.34-.14 0-.28-.04-.46-.1-.46-.2-.92-.46-1.44-.78-.16-.1-.24-.2-.24-.32 0-.18.16-.24.5-.22.62.04 1.24.06 1.82.04.7 0 1.42-.04 2.12-.12v-3.98c-.22-.44-.78-.84-1.62-1.2-.22-.1-.34-.22-.34-.36 0-.2.32-.3 1-.3.72 0 1.54.18 2.5.54.38.14.56.36.56.64 0 .3-.08.4-.1 1.16v7.34zm-7.64-6.6c0 .16-.04.28-.08.4-.28.9-.74 1.82-1.32 2.72l1.48 1.32c.38.36.98.5 1.5.7.16.06.26.14.32.2.36.44.72 1 .92 1.56.08.24.14.48.14.66-.02.4-.2.6-.62.58-.22.02-.56-.2-.92-.56l-3.5-3.48c-.26.34-.52.68-.8 1-1.24 1.44-2.8 2.74-4.14 3.48-.24.14-.42.18-.54.18-.18-.02-.28-.08-.28-.26 0-.16.12-.3.34-.48 1.14-1 2.5-2.66 3.36-4.02.6-.96 1.36-2.48 1.72-3.7-.12-.28-.52-.58-1.12-.9-.28-.16-.4-.28-.4-.42 0-.18.22-.3.7-.28.18 0 .32.02.46.04.88.16 1.64.42 2.38.74.26.12.42.28.4.52zm8.9 13.9c0 .54-.32.82-.96.82-3.38-.02-5.94-.02-7.68.04-.9.02-1.52-.14-1.84-.5-.2-.26-.32-.72-.32-1.3l-.02-2.3c-.16-.22-.72-.44-1.68-.66-.24-.06-.36-.16-.36-.36 0-.22.58-.42.92-.42 1.22 0 2.1.06 2.68.16.42.06.58.34.52.82-.02.26-.04.5-.04.72v2.22c0 .32.16.5.5.52 1.12.02 2.16.02 3.12-.04.84-.06 1.48-.18 1.86-.36.38-.16.7-.24.9-.24 1.32-.06 2.4.02 2.4.88zm15.431-9.04c0 .6-.04 1.3-.12 2.06-.14 1.3-.52 1.92-1.16 1.92-.4 0-.6-.5-.6-1.5v-.62c-1 .3-2.16.58-3.14.8-1.14.24-2.36.48-3.46.62-.38.04-.68.04-.92-.04-.26-.06-.52-.28-.72-.66-.18-.3-.24-.66-.24-1.14l-.02-5.18c-.18-.3-.58-.54-1.18-.76-.3-.1-.46-.2-.46-.32 0-.22.46-.44.84-.44.72 0 1.32.04 1.84.14.3.06.52.12.68.2.56.02 1.28.02 1.68 0 .36-.04.68-.14.94-.3.22-.14.44-.2.62-.22.42-.08.84-.08 1.1 0 .52.1.78.32.78.7 0 .52-.34.78-1.04.8-1.6.06-3.1.1-3.78.14-.02.18-.02.36-.02.56v1.68l.9-.06c.84-.08 1.32-.48 1.62-.5.44-.02 1.02-.02 1.36.02.48.06.72.28.72.66 0 .46-.26.7-.82.72-1.04.04-2.42.08-3.78.14v1.86c-.02.26.1.38.36.38.96 0 2-.06 2.86-.16 1.14-.14 2.34-.3 3.28-.5v-6.06c-.24-.48-.72-.84-1.44-1.14-.22-.1-.34-.22-.34-.36 0-.2.34-.3 1.02-.3.52 0 1.24.16 2.2.46.36.12.52.32.52.62s-.08.54-.08 1.2v2.5l1.8-.04v-3.98c-.24-.46-.74-.86-1.54-1.18-.22-.1-.34-.22-.34-.38 0-.18.32-.28 1-.28.64 0 1.46.18 2.44.52.34.14.52.34.52.66 0 .22-.1.6-.1 1.22v5.14c0 .78-.04 1.5-.1 2.2-.14 1.44-.54 2.18-1.2 2.18-.44 0-.68-.56-.68-1.7v-3.24l-1.8.04v.92zm3.6 5.7l-.1 1.88c-.02.58-.08 1.16-.16 1.66-.18 1.26-.58 1.88-1.16 1.88-.46 0-.68-.6-.68-1.82v-3.48c-1.72 0-3.24.06-4.6.16-.82.06-1.44.2-1.82.4-.24.1-.42.16-.52.16-.12 0-.24-.02-.38-.08-.82-.36-1.5-.72-2.02-1.1-.22-.18-.34-.32-.34-.44 0-.2.16-.26.5-.2.76.12 1.62.18 2.62.18 1.86.02 3.94-.06 6.2-.2.24-.02.82-.2 1.06-.2.46 0 .88.06 1.24.16.28.1.42.22.42.38 0 .14-.08.36-.26.66z"/></svg></svg>